<svg width="1200" height="628" viewBox="0 0 1200 628" fill="none" xmlns="http://www.w3.org/2000/svg">
<g clip-path="url(#clip0_4317_400)">
<rect width="1200" height="628" fill="white"/>
<rect x="514" y="538" width="686" height="90" fill="#06F881"/>
<rect x="514" y="359" width="686" height="90" fill="#06F881"/>
<rect x="514" y="179" width="686" height="90" fill="#06F881"/>
<rect x="514" width="686" height="90" fill="#06F881"/>
<rect y="449" width="392" height="89" fill="#06F881"/>
<rect y="269" width="392" height="90" fill="#06F881"/>
<rect y="90" width="392" height="89" fill="#06F881"/>
<path d="M294.519 309H273.207L261.831 208.2H277.815L282.711 266.088C283.431 274.152 284.007 285.096 284.151 289.704H284.727C285.015 285.096 285.879 273.864 286.599 266.088L292.071 208.2H307.911L294.519 309ZM346.624 309H315.088V208.2H346.192V223.464H330.928V250.248H344.752V265.512H330.928V293.736H346.624V309ZM389.147 264.36L398.075 309H381.659L374.171 268.824H371.147V309H355.307V208.2H374.171C388.715 208.2 396.347 215.976 396.347 233.544V243.624C396.347 254.28 393.179 261.192 389.147 264.36ZM380.507 244.776V232.392C380.507 225.048 378.203 222.312 374.171 222.312H371.147V254.712H374.171C378.203 254.712 380.507 252.12 380.507 244.776ZM422.616 309H406.776V208.2H422.616V309ZM449.897 309H434.057V208.2H465.161V223.464H449.897V252.12H463.721V267.384H449.897V309ZM488.147 309H472.307V208.2H488.147V309ZM510.676 309H494.836L508.516 208.2H529.828L541.924 309H526.084L524.068 288.984H512.692L510.676 309ZM516.868 242.04L513.988 273.72H522.916L520.18 242.04C519.46 235.128 519.028 226.632 518.884 224.76H518.452C518.308 226.2 517.588 234.84 516.868 242.04ZM567.959 309H548.807V208.2H567.383C581.927 208.2 589.559 215.976 589.559 233.544V239.592C589.559 248.376 586.391 254.712 581.639 258.168C586.823 261.48 590.135 267.96 590.135 277.032V283.656C590.135 301.224 582.647 309 567.959 309ZM564.647 222.312V250.68H567.383C571.559 250.68 573.719 248.088 573.719 240.744V232.392C573.719 225.048 571.559 222.312 567.383 222.312H564.647ZM564.647 265.944V294.888H567.959C572.135 294.888 574.295 292.152 574.295 284.808V275.88C574.295 268.536 572.135 265.944 567.959 265.944H564.647ZM630.968 309H599.432V208.2H615.272V293.736H630.968V309ZM668.234 309H636.698V208.2H667.802V223.464H652.538V250.248H666.362V265.512H652.538V293.736H668.234V309ZM720.893 309H705.053V223.464H693.533V208.2H732.269V223.464H720.893V309ZM754.631 309H738.791V208.2H754.631V309ZM785.657 310.728C772.409 310.728 765.353 302.52 765.353 286.392V230.808C765.353 214.68 772.553 206.472 785.657 206.472C798.761 206.472 805.961 214.824 805.961 230.808V242.184H790.121V229.656C790.121 223.32 788.825 221.016 785.657 221.016C782.489 221.016 781.193 223.32 781.193 229.656V287.544C781.193 293.88 782.633 296.184 785.657 296.184C788.825 296.184 790.121 293.88 790.121 287.544V272.568H805.961V286.392C805.961 302.52 798.761 310.728 785.657 310.728ZM831.131 309H815.291V208.2H831.131V252.696H833.579L844.523 208.2H860.651L847.979 257.016L861.947 309H845.243L833.579 263.784H831.131V309ZM899.28 309H867.744V208.2H898.848V223.464H883.584V250.248H897.408V265.512H883.584V293.736H899.28V309ZM930.283 309H914.443V223.464H902.923V208.2H941.659V223.464H930.283V309ZM364.183 439H345.463V338.2H364.183C378.583 338.2 386.503 346.84 386.503 363.544V413.656C386.503 430.504 378.583 439 364.183 439ZM361.303 352.744V424.456H364.183C368.359 424.456 370.663 422.008 370.663 414.52V362.68C370.663 355.336 368.359 352.744 364.183 352.744H361.303ZM413.194 439H397.354V338.2H413.194V439ZM442.059 440.728C428.955 440.728 421.755 432.664 421.755 416.824V407.32H437.595V417.832C437.595 423.88 438.891 426.184 442.059 426.184C445.227 426.184 446.667 423.88 446.667 417.544C446.667 409.192 445.371 407.176 435.147 392.632C424.635 377.944 422.475 372.472 422.475 360.952C422.475 344.824 429.675 336.472 442.491 336.472C455.451 336.472 462.651 344.824 462.651 360.808V368.872H446.811V359.656C446.811 353.176 445.371 351.016 442.491 351.016C439.611 351.016 438.315 353.32 438.315 359.944C438.315 368.008 439.179 369.592 449.403 383.704C460.059 398.68 462.507 404.296 462.507 416.392C462.507 432.664 455.307 440.728 442.059 440.728ZM493.643 439H477.803V353.464H466.283V338.2H505.019V353.464H493.643V439ZM545.381 394.36L554.309 439H537.893L530.405 398.824H527.381V439H511.541V338.2H530.405C544.949 338.2 552.581 345.976 552.581 363.544V373.624C552.581 384.28 549.413 391.192 545.381 394.36ZM536.741 374.776V362.392C536.741 355.048 534.437 352.312 530.405 352.312H527.381V384.712H530.405C534.437 384.712 536.741 382.12 536.741 374.776ZM578.85 439H563.01V338.2H578.85V439ZM609.443 439H590.291V338.2H608.867C623.411 338.2 631.043 345.976 631.043 363.544V369.592C631.043 378.376 627.875 384.712 623.123 388.168C628.307 391.48 631.619 397.96 631.619 407.032V413.656C631.619 431.224 624.131 439 609.443 439ZM606.131 352.312V380.68H608.867C613.043 380.68 615.203 378.088 615.203 370.744V362.392C615.203 355.048 613.043 352.312 608.867 352.312H606.131ZM606.131 395.944V424.888H609.443C613.619 424.888 615.779 422.152 615.779 414.808V405.88C615.779 398.536 613.619 395.944 609.443 395.944H606.131ZM661.076 440.728C647.972 440.728 640.484 432.52 640.484 416.104V338.2H656.324V417.112C656.324 423.88 658.196 426.184 661.076 426.184C663.956 426.184 665.684 423.88 665.684 417.112V338.2H681.524V416.104C681.524 432.52 673.892 440.728 661.076 440.728ZM714.986 439H699.146V353.464H687.626V338.2H726.362V353.464H714.986V439ZM748.725 439H732.885V338.2H748.725V439ZM780.182 440.728C766.934 440.728 759.446 432.52 759.446 416.104V361.096C759.446 344.68 766.934 336.472 780.182 336.472C793.43 336.472 800.918 344.824 800.918 361.096V416.104C800.918 432.52 793.43 440.728 780.182 440.728ZM780.182 426.184C783.35 426.184 785.078 423.88 785.078 417.112V360.088C785.078 353.32 783.35 351.016 780.182 351.016C777.014 351.016 775.286 353.32 775.286 360.088V417.112C775.286 423.88 777.014 426.184 780.182 426.184ZM826.608 439H811.776V338.2H827.76L841.44 407.608H841.728C841.008 393.496 840.576 385.72 840.432 379.672L839.712 338.2H854.544V439H838.56L824.88 369.592H824.592L825.888 397.96L826.608 439Z" fill="#1D1D1B"/>
<rect x="403" y="478" width="395" height="80" rx="40" fill="#1D1D1B"/>
<path d="M481.652 528.5V506.682H490.004C491.581 506.682 492.891 506.93 493.935 507.428C494.987 507.918 495.771 508.589 496.29 509.441C496.815 510.293 497.078 511.259 497.078 512.339C497.078 513.227 496.908 513.987 496.567 514.619C496.226 515.244 495.768 515.751 495.192 516.142C494.617 516.533 493.974 516.813 493.264 516.984V517.197C494.038 517.239 494.781 517.477 495.491 517.911C496.208 518.337 496.794 518.94 497.249 519.722C497.703 520.503 497.93 521.447 497.93 522.555C497.93 523.685 497.657 524.7 497.11 525.602C496.563 526.497 495.739 527.204 494.638 527.722C493.538 528.241 492.153 528.5 490.484 528.5H481.652ZM485.604 525.197H489.855C491.29 525.197 492.323 524.924 492.955 524.377C493.594 523.823 493.914 523.113 493.914 522.246C493.914 521.6 493.754 521.018 493.435 520.499C493.115 519.974 492.661 519.562 492.071 519.263C491.482 518.958 490.778 518.805 489.962 518.805H485.604V525.197ZM485.604 515.961H489.514C490.196 515.961 490.81 515.837 491.357 515.588C491.904 515.332 492.334 514.974 492.646 514.512C492.966 514.043 493.126 513.489 493.126 512.85C493.126 512.005 492.827 511.309 492.231 510.762C491.641 510.215 490.764 509.942 489.599 509.942H485.604V515.961ZM511.628 521.618V512.136H515.485V528.5H511.745V525.592H511.575C511.205 526.508 510.598 527.257 509.753 527.839C508.915 528.422 507.882 528.713 506.653 528.713C505.58 528.713 504.632 528.475 503.808 527.999C502.992 527.516 502.352 526.817 501.891 525.901C501.429 524.977 501.198 523.862 501.198 522.555V512.136H505.055V521.959C505.055 522.996 505.339 523.82 505.907 524.43C506.475 525.041 507.221 525.347 508.144 525.347C508.713 525.347 509.263 525.208 509.796 524.931C510.328 524.654 510.765 524.242 511.106 523.695C511.454 523.141 511.628 522.449 511.628 521.618ZM521.847 534.636C521.322 534.636 520.835 534.594 520.388 534.509C519.947 534.43 519.596 534.338 519.333 534.232L520.228 531.227C520.789 531.391 521.29 531.469 521.73 531.462C522.17 531.455 522.558 531.316 522.891 531.046C523.232 530.783 523.52 530.343 523.754 529.725L524.085 528.841L518.151 512.136H522.241L526.013 524.494H526.183L529.965 512.136H534.067L527.515 530.482C527.21 531.348 526.805 532.09 526.3 532.708C525.796 533.333 525.178 533.809 524.447 534.136C523.722 534.469 522.856 534.636 521.847 534.636ZM552.348 512.136V515.119H542.941V512.136H552.348ZM545.263 508.216H549.12V523.578C549.12 524.097 549.198 524.494 549.354 524.771C549.518 525.041 549.731 525.226 549.994 525.325C550.256 525.425 550.548 525.474 550.867 525.474C551.109 525.474 551.329 525.457 551.528 525.421C551.734 525.386 551.89 525.354 551.996 525.325L552.646 528.34C552.44 528.411 552.146 528.489 551.762 528.575C551.386 528.66 550.924 528.71 550.377 528.724C549.411 528.752 548.541 528.607 547.767 528.287C546.993 527.96 546.379 527.456 545.924 526.774C545.477 526.092 545.256 525.24 545.263 524.217V508.216ZM555.573 528.5V512.136H559.43V528.5H555.573ZM557.512 509.814C556.901 509.814 556.376 509.612 555.936 509.207C555.495 508.795 555.275 508.301 555.275 507.726C555.275 507.143 555.495 506.65 555.936 506.245C556.376 505.833 556.901 505.627 557.512 505.627C558.13 505.627 558.656 505.833 559.089 506.245C559.529 506.65 559.749 507.143 559.749 507.726C559.749 508.301 559.529 508.795 559.089 509.207C558.656 509.612 558.13 509.814 557.512 509.814ZM570.533 528.82C568.9 528.82 567.497 528.461 566.325 527.744C565.161 527.026 564.262 526.036 563.63 524.771C563.005 523.5 562.692 522.037 562.692 520.382C562.692 518.72 563.012 517.254 563.651 515.982C564.29 514.704 565.192 513.71 566.357 512.999C567.529 512.282 568.914 511.923 570.512 511.923C571.84 511.923 573.016 512.168 574.038 512.658C575.068 513.141 575.888 513.827 576.499 514.714C577.11 515.595 577.458 516.625 577.543 517.804H573.857C573.708 517.016 573.353 516.359 572.792 515.833C572.238 515.3 571.496 515.034 570.565 515.034C569.777 515.034 569.085 515.247 568.488 515.673C567.891 516.092 567.426 516.696 567.092 517.484C566.766 518.273 566.602 519.217 566.602 520.318C566.602 521.433 566.766 522.392 567.092 523.195C567.419 523.99 567.877 524.604 568.467 525.038C569.063 525.464 569.763 525.677 570.565 525.677C571.134 525.677 571.641 525.57 572.089 525.357C572.543 525.137 572.923 524.821 573.229 524.409C573.534 523.997 573.744 523.496 573.857 522.907H577.543C577.451 524.065 577.11 525.091 576.521 525.986C575.931 526.874 575.129 527.57 574.113 528.074C573.097 528.571 571.904 528.82 570.533 528.82ZM584.226 523.365L584.215 518.71H584.833L590.714 512.136H595.22L587.986 520.19H587.187L584.226 523.365ZM580.71 528.5V506.682H584.567V528.5H580.71ZM590.98 528.5L585.653 521.053L588.253 518.337L595.593 528.5H590.98ZM604.361 528.82C602.72 528.82 601.303 528.479 600.11 527.797C598.924 527.108 598.011 526.135 597.372 524.878C596.733 523.614 596.413 522.126 596.413 520.414C596.413 518.731 596.733 517.254 597.372 515.982C598.018 514.704 598.92 513.71 600.078 512.999C601.236 512.282 602.596 511.923 604.158 511.923C605.167 511.923 606.118 512.087 607.013 512.413C607.915 512.733 608.711 513.23 609.4 513.905C610.096 514.58 610.643 515.439 611.04 516.483C611.438 517.52 611.637 518.756 611.637 520.19V521.373H598.224V518.773H607.94C607.933 518.035 607.773 517.378 607.461 516.803C607.148 516.22 606.711 515.762 606.15 515.428C605.596 515.094 604.95 514.928 604.211 514.928C603.423 514.928 602.731 515.119 602.134 515.503C601.537 515.879 601.072 516.376 600.738 516.994C600.412 517.605 600.245 518.276 600.238 519.008V521.277C600.238 522.229 600.412 523.045 600.76 523.727C601.108 524.402 601.594 524.92 602.219 525.283C602.844 525.638 603.576 525.815 604.414 525.815C604.975 525.815 605.483 525.737 605.937 525.581C606.392 525.418 606.786 525.18 607.12 524.867C607.454 524.555 607.706 524.168 607.876 523.706L611.477 524.111C611.25 525.062 610.817 525.893 610.177 526.604C609.545 527.307 608.736 527.854 607.748 528.244C606.761 528.628 605.632 528.82 604.361 528.82ZM623.071 512.136V515.119H613.664V512.136H623.071ZM615.986 508.216H619.843V523.578C619.843 524.097 619.921 524.494 620.077 524.771C620.24 525.041 620.453 525.226 620.716 525.325C620.979 525.425 621.27 525.474 621.59 525.474C621.831 525.474 622.051 525.457 622.25 525.421C622.456 525.386 622.613 525.354 622.719 525.325L623.369 528.34C623.163 528.411 622.868 528.489 622.485 528.575C622.108 528.66 621.647 528.71 621.1 528.724C620.134 528.752 619.264 528.607 618.49 528.287C617.716 527.96 617.101 527.456 616.647 526.774C616.199 526.092 615.979 525.24 615.986 524.217V508.216ZM638.995 516.462L635.479 516.845C635.38 516.49 635.206 516.156 634.957 515.844C634.716 515.531 634.389 515.279 633.977 515.087C633.565 514.896 633.061 514.8 632.464 514.8C631.662 514.8 630.987 514.974 630.44 515.322C629.9 515.67 629.634 516.121 629.641 516.675C629.634 517.151 629.808 517.538 630.163 517.836C630.525 518.134 631.122 518.379 631.953 518.571L634.744 519.168C636.292 519.501 637.443 520.031 638.196 520.755C638.956 521.479 639.339 522.428 639.346 523.599C639.339 524.629 639.037 525.538 638.441 526.327C637.851 527.108 637.031 527.719 635.98 528.159C634.929 528.599 633.721 528.82 632.358 528.82C630.355 528.82 628.743 528.401 627.521 527.562C626.3 526.717 625.572 525.542 625.337 524.036L629.098 523.674C629.268 524.413 629.631 524.97 630.184 525.347C630.738 525.723 631.459 525.911 632.347 525.911C633.263 525.911 633.998 525.723 634.552 525.347C635.113 524.97 635.394 524.505 635.394 523.951C635.394 523.482 635.213 523.095 634.851 522.79C634.496 522.484 633.942 522.25 633.189 522.087L630.398 521.501C628.828 521.174 627.667 520.624 626.914 519.849C626.161 519.068 625.788 518.081 625.795 516.888C625.788 515.879 626.062 515.006 626.616 514.267C627.177 513.521 627.954 512.946 628.949 512.541C629.95 512.129 631.104 511.923 632.411 511.923C634.329 511.923 635.838 512.332 636.939 513.148C638.047 513.965 638.732 515.07 638.995 516.462ZM658.256 512.136V515.119H648.583V512.136H658.256ZM651.001 528.5V510.592C651.001 509.491 651.229 508.575 651.683 507.843C652.145 507.112 652.763 506.565 653.537 506.202C654.311 505.84 655.17 505.659 656.115 505.659C656.782 505.659 657.376 505.712 657.894 505.819C658.412 505.925 658.796 506.021 659.045 506.107L658.278 509.089C658.114 509.04 657.908 508.99 657.66 508.94C657.411 508.884 657.134 508.855 656.829 508.855C656.111 508.855 655.604 509.029 655.305 509.377C655.014 509.718 654.868 510.208 654.868 510.847V528.5H651.001ZM665.429 528.83C664.392 528.83 663.458 528.646 662.627 528.276C661.803 527.9 661.15 527.346 660.667 526.614C660.191 525.883 659.953 524.981 659.953 523.908C659.953 522.985 660.123 522.222 660.464 521.618C660.805 521.014 661.27 520.531 661.86 520.169C662.449 519.807 663.113 519.533 663.852 519.349C664.598 519.157 665.368 519.018 666.164 518.933C667.123 518.834 667.9 518.745 668.497 518.667C669.093 518.582 669.527 518.454 669.797 518.283C670.074 518.106 670.212 517.832 670.212 517.463V517.399C670.212 516.597 669.974 515.975 669.498 515.535C669.022 515.094 668.337 514.874 667.442 514.874C666.498 514.874 665.748 515.08 665.194 515.492C664.647 515.904 664.278 516.391 664.086 516.952L660.485 516.44C660.77 515.446 661.238 514.615 661.892 513.947C662.545 513.273 663.344 512.768 664.289 512.435C665.233 512.094 666.277 511.923 667.421 511.923C668.209 511.923 668.994 512.016 669.775 512.2C670.556 512.385 671.27 512.69 671.917 513.116C672.563 513.536 673.081 514.107 673.472 514.832C673.87 515.556 674.069 516.462 674.069 517.548V528.5H670.361V526.252H670.233C669.999 526.707 669.669 527.133 669.243 527.531C668.824 527.921 668.294 528.237 667.655 528.479C667.023 528.713 666.281 528.83 665.429 528.83ZM666.43 525.996C667.204 525.996 667.875 525.844 668.444 525.538C669.012 525.226 669.449 524.814 669.754 524.303C670.066 523.791 670.223 523.234 670.223 522.63V520.702C670.102 520.801 669.896 520.893 669.605 520.979C669.321 521.064 669.001 521.138 668.646 521.202C668.291 521.266 667.939 521.323 667.591 521.373C667.243 521.423 666.941 521.465 666.686 521.501C666.11 521.579 665.596 521.707 665.141 521.884C664.686 522.062 664.328 522.31 664.065 522.63C663.802 522.942 663.671 523.347 663.671 523.844C663.671 524.555 663.93 525.091 664.449 525.453C664.967 525.815 665.627 525.996 666.43 525.996ZM677.946 528.5V512.136H681.803V528.5H677.946ZM679.885 509.814C679.275 509.814 678.749 509.612 678.309 509.207C677.868 508.795 677.648 508.301 677.648 507.726C677.648 507.143 677.868 506.65 678.309 506.245C678.749 505.833 679.275 505.627 679.885 505.627C680.503 505.627 681.029 505.833 681.462 506.245C681.902 506.65 682.123 507.143 682.123 507.726C682.123 508.301 681.902 508.795 681.462 509.207C681.029 509.612 680.503 509.814 679.885 509.814ZM685.769 528.5V512.136H689.508V514.864H689.678C689.977 513.919 690.488 513.191 691.213 512.68C691.944 512.161 692.779 511.902 693.716 511.902C693.929 511.902 694.167 511.913 694.43 511.934C694.7 511.948 694.923 511.973 695.101 512.009V515.556C694.938 515.499 694.678 515.45 694.323 515.407C693.975 515.357 693.638 515.332 693.311 515.332C692.608 515.332 691.976 515.485 691.415 515.79C690.861 516.089 690.424 516.504 690.105 517.037C689.785 517.57 689.625 518.184 689.625 518.88V528.5H685.769ZM701.52 506.682V528.5H697.663V506.682H701.52ZM707.882 534.636C707.357 534.636 706.87 534.594 706.423 534.509C705.983 534.43 705.631 534.338 705.368 534.232L706.263 531.227C706.824 531.391 707.325 531.469 707.765 531.462C708.206 531.455 708.593 531.316 708.926 531.046C709.267 530.783 709.555 530.343 709.789 529.725L710.12 528.841L704.186 512.136H708.277L712.048 524.494H712.218L716 512.136H720.102L713.55 530.482C713.245 531.348 712.84 532.09 712.336 532.708C711.831 533.333 711.213 533.809 710.482 534.136C709.757 534.469 708.891 534.636 707.882 534.636Z" fill="white"/>
<path fill-rule="evenodd" clip-rule="evenodd" d="M491.667 60.3499H502.896V95.1273H491.667V60.3499ZM493.476 62.1585V93.3187H501.087V62.1585H493.476Z" fill="#1D1D1B"/>
<path fill-rule="evenodd" clip-rule="evenodd" d="M491.667 112.158H502.896V146.935H491.667V112.158ZM493.476 113.967V145.127H501.087V113.967H493.476Z" fill="#1D1D1B"/>
<path fill-rule="evenodd" clip-rule="evenodd" d="M505.871 103.643C517.796 99.9137 526.445 88.4884 526.445 75.3837C526.445 59.2773 513.388 46.2205 497.281 46.2205C485.382 46.2205 477.015 48.6011 471.599 51.0082C468.892 52.2111 466.928 53.4184 465.631 54.3338C464.983 54.7914 464.502 55.1759 464.178 55.4501C464.017 55.5872 463.895 55.6968 463.811 55.7741C463.769 55.8128 463.737 55.8434 463.714 55.8654C463.71 55.8691 463.706 55.8724 463.703 55.8756L463.698 55.8809C463.693 55.8851 463.69 55.8887 463.686 55.8919L463.682 55.8959L463.678 55.9001L463.676 55.9026L463.673 55.905L463.672 55.9066L454.254 65.3246C454.252 65.326 454.251 65.3274 454.249 65.3288L435.417 84.1614L435.414 84.164L415.936 103.643L425.993 113.7L425.995 113.702L454.254 141.961C454.255 141.962 454.256 141.963 454.258 141.965L463.673 151.38C463.675 151.382 463.677 151.384 463.679 151.386L463.686 151.393C463.693 151.4 463.702 151.409 463.714 151.42C463.724 151.43 463.737 151.442 463.752 151.456C463.769 151.472 463.789 151.49 463.811 151.511C463.895 151.588 464.017 151.698 464.178 151.835C464.502 152.109 464.983 152.494 465.631 152.951C466.928 153.867 468.892 155.074 471.599 156.277C477.015 158.684 485.382 161.065 497.281 161.065C513.388 161.065 526.445 148.008 526.445 131.902C526.445 118.797 517.796 107.371 505.871 103.643ZM455.797 140.947L463.408 148.558V58.7275L455.797 66.3386V140.947ZM453.989 139.138L446.378 131.527V75.7583L453.989 68.1472V139.138ZM465.262 150.382C465.289 150.406 465.318 150.43 465.348 150.456C465.632 150.697 466.071 151.048 466.674 151.474C467.879 152.325 469.741 153.472 472.333 154.624C472.495 154.696 472.66 154.768 472.828 154.84V52.4449C472.66 52.5169 472.495 52.5889 472.333 52.6609C469.741 53.813 467.879 54.9605 466.674 55.8113C466.071 56.2368 465.632 56.5883 465.348 56.8292C465.3 56.8701 465.256 56.9079 465.217 56.9423V150.343C465.231 150.356 465.247 150.369 465.262 150.382ZM474.637 51.7164V155.569C479.811 157.523 487.232 159.256 497.281 159.256C512.389 159.256 524.636 147.009 524.636 131.902C524.636 118.385 514.839 106.792 501.991 104.56V102.725C514.839 100.493 524.636 88.8998 524.636 75.3837C524.636 60.2761 512.389 48.029 497.281 48.029C487.232 48.029 479.811 49.7622 474.637 51.7164ZM444.569 77.5669L436.958 85.1779V122.107L444.569 129.718V77.5669ZM435.149 120.299L427.538 112.688V94.5976L435.149 86.9865V120.299ZM418.493 103.643L425.73 96.4062V110.879L418.493 103.643Z" fill="#1D1D1B"/>
<path fill-rule="evenodd" clip-rule="evenodd" d="M505.871 103.643C517.796 99.9137 526.445 88.4884 526.445 75.3837C526.445 59.2773 513.388 46.2205 497.281 46.2205C485.382 46.2205 477.015 48.6011 471.599 51.0082C468.892 52.2111 466.928 53.4184 465.631 54.3338C464.983 54.7914 464.502 55.1759 464.178 55.4501C464.017 55.5872 463.895 55.6968 463.811 55.7741C463.769 55.8128 463.737 55.8434 463.714 55.8654L463.703 55.8756L463.698 55.8809C463.681 55.8971 463.665 55.9135 463.648 55.9299L415.936 103.643L463.673 151.38L463.679 151.386L463.686 151.393C463.686 151.393 463.702 151.409 463.714 151.42C463.724 151.43 463.737 151.442 463.752 151.456C463.769 151.472 463.789 151.49 463.811 151.511C463.895 151.588 464.017 151.698 464.178 151.835C464.502 152.109 464.983 152.494 465.631 152.951C466.928 153.867 468.892 155.074 471.599 156.277C477.015 158.684 485.382 161.065 497.281 161.065C513.388 161.065 526.445 148.008 526.445 131.902C526.445 118.797 517.796 107.371 505.871 103.643ZM455.797 140.947L463.408 148.558V58.7275L455.797 66.3386V140.947ZM453.989 139.138L446.378 131.527V75.7583L453.989 68.1472V139.138ZM465.262 150.382C465.289 150.406 465.318 150.43 465.348 150.456C465.632 150.697 466.071 151.048 466.674 151.474C467.879 152.325 469.741 153.472 472.333 154.624C472.495 154.696 472.66 154.768 472.828 154.84V52.4449C472.66 52.5169 472.495 52.5889 472.333 52.6609C469.741 53.813 467.879 54.9605 466.674 55.8113C466.071 56.2368 465.632 56.5883 465.348 56.8292C465.3 56.8701 465.256 56.9079 465.217 56.9423V150.343C465.231 150.356 465.247 150.369 465.262 150.382ZM474.637 51.7164V155.569C479.811 157.523 487.232 159.256 497.281 159.256C512.389 159.256 524.636 147.009 524.636 131.902C524.636 118.385 514.839 106.792 501.991 104.56V102.725C514.839 100.493 524.636 88.8998 524.636 75.3837C524.636 60.2761 512.389 48.029 497.281 48.029C487.232 48.029 479.811 49.7622 474.637 51.7164ZM444.569 77.5669L436.958 85.1779V122.107L444.569 129.718V77.5669ZM435.149 120.299L427.538 112.688V94.5976L435.149 86.9865V120.299ZM418.493 103.643L425.73 96.4062V110.879L418.493 103.643Z" fill="#1D1D1B"/>
<path fill-rule="evenodd" clip-rule="evenodd" d="M751.103 141.325V65.9653H766.235C771.736 65.9653 776.209 67.6295 779.366 71.1766C782.512 74.6413 783.93 79.6271 783.93 85.8121V121.478C783.93 125.679 783.291 129.307 781.918 132.28C780.542 135.263 778.482 137.574 775.742 139.14L775.734 139.144L775.727 139.148C773.068 140.634 769.875 141.325 766.235 141.325H751.103ZM778.022 72.3859C775.288 69.3112 771.36 67.7739 766.235 67.7739H752.912V139.517H766.235C769.652 139.517 772.521 138.867 774.844 137.569C777.236 136.203 779.046 134.187 780.276 131.522C781.506 128.858 782.121 125.51 782.121 121.478V85.8121C782.121 79.8677 780.755 75.3923 778.022 72.3859Z" fill="#1D1D1B"/>
<path fill-rule="evenodd" clip-rule="evenodd" d="M722.479 141.325V65.9653H748.234V80.4464H737.37V95.8923H747.209V110.373H737.37V126.844H748.541V141.325H722.479ZM735.561 128.653V108.565H745.4V97.7009H735.561V78.6378H746.425V67.7739H724.288V139.517H746.733V128.653H735.561Z" fill="#1D1D1B"/>
<path fill-rule="evenodd" clip-rule="evenodd" d="M687.2 115.16H702.091V124.451C702.091 126.53 702.342 127.638 702.592 128.103C702.701 128.305 702.841 128.484 703.46 128.484C704.078 128.484 704.218 128.305 704.327 128.103L704.352 128.057L704.379 128.012C704.639 127.589 704.931 126.472 704.931 124.246C704.931 122.279 704.765 120.775 704.478 119.684C704.205 118.647 703.599 117.364 702.57 115.82L702.546 115.784L702.524 115.747C701.534 114.096 699.72 111.374 697.056 107.548C694.516 103.91 692.57 100.924 691.234 98.6032C689.867 96.2296 688.902 93.9121 688.375 91.6549L688.368 91.6268L688.363 91.5986C687.923 89.4003 687.713 86.8502 687.713 83.9671C687.713 80.0443 688.282 76.6132 689.494 73.7338C690.711 70.8443 692.541 68.5844 695.015 67.0628C697.48 65.4776 700.43 64.7354 703.767 64.7354C708.824 64.7354 712.937 66.3544 715.813 69.79C718.65 73.1782 719.924 77.9664 719.924 83.8647V91.4126H705.033V83.0447C705.033 80.8852 704.779 79.7495 704.532 79.2902L704.519 79.266L704.507 79.2415C704.395 79.017 704.294 78.9366 704.236 78.9015C704.176 78.8649 704.045 78.8064 703.767 78.8064C703.546 78.8064 703.45 78.8544 703.406 78.8824C703.357 78.9132 703.252 78.9974 703.13 79.2415L703.118 79.266L703.105 79.2902C702.862 79.7408 702.604 80.9314 702.604 83.2497C702.604 85.1368 702.733 86.5815 702.96 87.6276C703.24 88.6084 703.818 89.8211 704.77 91.2808C705.775 92.8228 707.569 95.4301 710.166 99.1197C712.777 102.831 714.765 105.895 716.107 108.297C717.465 110.727 718.424 113.099 718.95 115.409C719.544 117.653 719.822 120.337 719.822 123.426C719.822 127.419 719.218 130.896 717.926 133.788C716.702 136.614 714.866 138.829 712.399 140.341C709.925 141.858 706.909 142.555 703.46 142.555C698.359 142.555 694.211 140.986 691.325 137.619C688.476 134.295 687.2 129.565 687.2 123.733V115.16ZM717.193 115.841C716.715 113.723 715.827 111.503 714.529 109.18C713.23 106.856 711.283 103.85 708.687 100.16C706.09 96.4709 704.28 93.8403 703.255 92.2688C702.23 90.6973 701.547 89.2966 701.205 88.0667C700.932 86.8368 700.795 85.2312 700.795 83.2497C700.795 80.9266 701.034 79.321 701.512 78.4327C701.991 77.4761 702.742 76.9979 703.767 76.9979C704.86 76.9979 705.646 77.4761 706.125 78.4327C706.603 79.321 706.842 80.8583 706.842 83.0447V89.6041H718.116V83.8647C718.116 78.1936 716.886 73.889 714.426 70.951C711.966 68.0129 708.413 66.5439 703.767 66.5439C700.693 66.5439 698.096 67.2272 695.978 68.5937C693.86 69.8919 692.254 71.8392 691.161 74.4356C690.068 77.032 689.521 80.2092 689.521 83.9671C689.521 86.7685 689.726 89.1941 690.136 91.2439C690.614 93.2937 691.503 95.446 692.801 97.7007C694.099 99.9555 696.012 102.894 698.54 106.515C701.205 110.341 703.05 113.108 704.075 114.816C705.168 116.456 705.885 117.925 706.227 119.224C706.569 120.522 706.739 122.196 706.739 124.246C706.739 126.5 706.466 128.072 705.92 128.96C705.441 129.848 704.621 130.292 703.46 130.292C702.298 130.292 701.478 129.848 701 128.96C700.522 128.072 700.283 126.569 700.283 124.451V116.969H689.009V123.733C689.009 129.336 690.239 133.572 692.698 136.442C695.158 139.311 698.745 140.746 703.46 140.746C706.671 140.746 709.336 140.097 711.454 138.799C713.572 137.501 715.178 135.588 716.271 133.06C717.433 130.463 718.013 127.252 718.013 123.426C718.013 120.419 717.74 117.891 717.193 115.841Z" fill="#1D1D1B"/>
<path fill-rule="evenodd" clip-rule="evenodd" d="M652.127 115.16H667.018V124.451C667.018 126.53 667.269 127.638 667.519 128.103C667.628 128.305 667.768 128.484 668.387 128.484C669.005 128.484 669.145 128.305 669.254 128.103L669.279 128.057L669.306 128.012C669.566 127.589 669.858 126.472 669.858 124.246C669.858 122.279 669.692 120.775 669.405 119.684C669.132 118.647 668.526 117.364 667.497 115.82L667.473 115.784L667.451 115.747C666.46 114.096 664.647 111.374 661.983 107.548C659.443 103.91 657.496 100.924 656.16 98.6032C654.794 96.2296 653.828 93.9121 653.302 91.6549L653.295 91.6268L653.289 91.5986C652.85 89.4003 652.639 86.8502 652.639 83.9671C652.639 80.0443 653.209 76.6132 654.421 73.7338C655.638 70.8443 657.468 68.5844 659.942 67.0628C662.407 65.4776 665.356 64.7354 668.694 64.7354C673.751 64.7354 677.863 66.3544 680.74 69.79C683.576 73.1782 684.851 77.9664 684.851 83.8647V91.4126H669.96V83.0447C669.96 80.8852 669.706 79.7495 669.459 79.2902L669.446 79.266L669.434 79.2415C669.321 79.017 669.221 78.9366 669.163 78.9015C669.103 78.8649 668.972 78.8064 668.694 78.8064C668.473 78.8064 668.377 78.8544 668.333 78.8824C668.284 78.9132 668.179 78.9974 668.057 79.2415L668.045 79.266L668.032 79.2902C667.789 79.7408 667.53 80.9314 667.53 83.2497C667.53 85.1368 667.66 86.5815 667.887 87.6276C668.167 88.6084 668.744 89.8211 669.696 91.2808C670.702 92.8228 672.496 95.4301 675.093 99.1197C677.704 102.831 679.692 105.895 681.034 108.297C682.392 110.727 683.351 113.099 683.877 115.409C684.471 117.653 684.749 120.337 684.749 123.426C684.749 127.418 684.145 130.895 682.853 133.788C681.629 136.614 679.793 138.829 677.326 140.341C674.851 141.858 671.836 142.555 668.387 142.555C663.286 142.555 659.138 140.986 656.252 137.619C653.403 134.295 652.127 129.565 652.127 123.733V115.16ZM681.198 133.06C682.359 130.463 682.94 127.252 682.94 123.426C682.94 120.419 682.667 117.891 682.12 115.841C681.642 113.723 680.754 111.503 679.455 109.18C678.157 106.856 676.21 103.85 673.614 100.16C671.017 96.4709 669.206 93.8403 668.182 92.2688C667.157 90.6973 666.473 89.2966 666.132 88.0667C665.858 86.8368 665.722 85.2312 665.722 83.2497C665.722 80.9266 665.961 79.321 666.439 78.4327C666.918 77.4761 667.669 76.9979 668.694 76.9979C669.787 76.9979 670.573 77.4761 671.051 78.4327C671.53 79.321 671.769 80.8583 671.769 83.0447V89.6041H683.043V83.8647C683.043 78.1936 681.813 73.889 679.353 70.951C676.893 68.0129 673.34 66.5439 668.694 66.5439C665.619 66.5439 663.023 67.2272 660.905 68.5937C658.787 69.8919 657.181 71.8392 656.088 74.4356C654.995 77.032 654.448 80.2092 654.448 83.9671C654.448 86.7685 654.653 89.1941 655.063 91.2439C655.541 93.2937 656.429 95.446 657.728 97.7007C659.026 99.9555 660.939 102.894 663.467 106.515C666.132 110.341 667.977 113.108 669.001 114.816C670.095 116.456 670.812 117.925 671.154 119.224C671.495 120.522 671.666 122.196 671.666 124.246C671.666 126.5 671.393 128.072 670.846 128.96C670.368 129.848 669.548 130.292 668.387 130.292C667.225 130.292 666.405 129.848 665.927 128.96C665.449 128.072 665.209 126.569 665.209 124.451V116.969H653.936V123.733C653.936 129.336 655.165 133.572 657.625 136.442C660.085 139.311 663.672 140.746 668.387 140.746C671.598 140.746 674.263 140.097 676.381 138.799C678.499 137.501 680.105 135.588 681.198 133.06Z" fill="#1D1D1B"/>
<path fill-rule="evenodd" clip-rule="evenodd" d="M624.206 141.325V65.9653H649.961V80.4464H639.097V95.8923H648.936V110.373H639.097V126.844H650.268V141.325H624.206ZM637.288 128.653V108.565H647.127V97.7009H637.288V78.6378H648.152V67.7739H626.015V139.517H648.46V128.653H637.288Z" fill="#1D1D1B"/>
<path fill-rule="evenodd" clip-rule="evenodd" d="M595.839 141.325V65.9653H610.73V126.844H621.902V141.325H595.839ZM608.922 128.653V67.7739H597.648V139.517H620.093V128.653H608.922Z" fill="#1D1D1B"/>
<path fill-rule="evenodd" clip-rule="evenodd" d="M559.708 141.325V65.9656H574.737C580.321 65.9656 584.818 67.5313 587.864 70.9669C590.967 74.3208 592.329 79.4047 592.329 85.8123V90.1169C592.329 93.3891 591.784 96.3201 590.63 98.8594L590.625 98.8691L590.621 98.8787C589.841 100.543 588.868 102.002 587.695 103.238C589.038 104.485 590.114 106.013 590.928 107.796C592.162 110.352 592.739 113.363 592.739 116.764V121.479C592.739 127.901 591.371 133.01 588.275 136.426C585.225 139.796 580.728 141.325 575.147 141.325H559.708ZM586.933 135.212C589.598 132.274 590.931 127.696 590.931 121.479V116.764C590.931 113.553 590.384 110.82 589.291 108.565C588.549 106.932 587.573 105.568 586.365 104.473C585.905 104.055 585.411 103.677 584.884 103.338C585.378 102.962 585.845 102.549 586.282 102.098C587.355 100.993 588.255 99.6642 588.983 98.111C590.008 95.8563 590.521 93.1916 590.521 90.1169V85.8123C590.521 79.5946 589.188 75.0509 586.524 72.1812C583.927 69.2432 579.998 67.7741 574.737 67.7741H561.516V139.517H575.147C580.408 139.517 584.337 138.082 586.933 135.212Z" fill="#1D1D1B"/>
<path fill-rule="evenodd" clip-rule="evenodd" d="M577.438 79.6264H574.599V96.1996H577.438V79.6264ZM572.79 77.8179V98.0081H579.247V77.8179H572.79Z" fill="#1D1D1B"/>
<path fill-rule="evenodd" clip-rule="evenodd" d="M577.848 110.681H574.599V127.664H577.848V110.681ZM572.79 108.872V129.473H579.657V108.872H572.79Z" fill="#1D1D1B"/>
<path fill-rule="evenodd" clip-rule="evenodd" d="M769.038 79.9336H765.994V127.356H769.038V79.9336ZM764.186 78.125V129.165H770.847V78.125H764.186Z" fill="#1D1D1B"/>
</g>
<defs>
<clipPath id="clip0_4317_400">
<rect width="1200" height="628" fill="white"/>
</clipPath>
</defs>
</svg>
