<svg width="2001" height="2001" viewBox="0 0 2001 2001" fill="none" xmlns="http://www.w3.org/2000/svg">
<rect width="2000" height="2000" transform="translate(0.633789 0.810547)" fill="#1D1D1B"/>
<path fill-rule="evenodd" clip-rule="evenodd" d="M1238.63 426.311H1387.63V887.811H1238.63V426.311ZM1262.63 450.311V863.811H1363.63V450.311H1262.63Z" fill="white"/>
<path fill-rule="evenodd" clip-rule="evenodd" d="M1238.63 1113.81H1387.63V1575.31H1238.63V1113.81ZM1262.63 1137.81V1551.31H1363.63V1137.81H1262.63Z" fill="white"/>
<path fill-rule="evenodd" clip-rule="evenodd" d="M1427.12 1000.81C1585.36 951.328 1700.13 799.712 1700.13 625.811C1700.13 412.076 1526.87 238.811 1313.13 238.811C1155.23 238.811 1044.19 270.402 972.323 302.345C936.408 318.307 910.336 334.329 893.128 346.476C884.525 352.548 878.14 357.65 873.851 361.289C871.707 363.109 870.086 364.563 868.974 365.589C868.418 366.102 867.99 366.509 867.686 366.801C867.636 366.849 867.589 366.894 867.546 366.936L867.473 367.006C867.416 367.061 867.367 367.11 867.324 367.152L867.27 367.205L867.213 367.261L867.18 367.293L867.148 367.325L867.127 367.347L742.148 492.325C742.13 492.344 742.111 492.363 742.093 492.381L492.183 742.292L492.148 742.326L233.663 1000.81L367.13 1134.28L367.148 1134.3L742.148 1509.3C742.167 1509.31 742.186 1509.33 742.205 1509.35L867.148 1634.3C867.176 1634.32 867.204 1634.35 867.231 1634.38L867.324 1634.47C867.413 1634.56 867.534 1634.67 867.686 1634.82C867.828 1634.96 867.997 1635.12 868.194 1635.3C868.419 1635.52 868.678 1635.76 868.974 1636.03C870.086 1637.06 871.707 1638.51 873.851 1640.33C878.14 1643.97 884.525 1649.07 893.128 1655.15C910.336 1667.29 936.408 1683.31 972.323 1699.28C1044.19 1731.22 1155.23 1762.81 1313.13 1762.81C1526.87 1762.81 1700.13 1589.54 1700.13 1375.81C1700.13 1201.91 1585.36 1050.29 1427.12 1000.81ZM762.634 1495.84L863.634 1596.84V404.781L762.634 505.781V1495.84ZM738.634 1471.84L637.634 1370.84V630.781L738.634 529.781V1471.84ZM888.238 1621.05C888.595 1621.36 888.975 1621.69 889.379 1622.03C893.147 1625.23 898.969 1629.89 906.968 1635.54C922.963 1646.83 947.671 1662.06 982.07 1677.34C984.22 1678.3 986.408 1679.26 988.634 1680.21V321.41C986.408 322.365 984.22 323.321 982.07 324.276C947.671 339.565 922.963 354.792 906.968 366.083C898.969 371.729 893.147 376.393 889.379 379.59C888.738 380.133 888.156 380.635 887.634 381.091V1620.53C887.827 1620.7 888.028 1620.87 888.238 1621.05ZM1012.63 311.743V1689.88C1081.31 1715.81 1179.78 1738.81 1313.13 1738.81C1513.61 1738.81 1676.13 1576.29 1676.13 1375.81C1676.13 1196.45 1546.13 1042.61 1375.63 1012.98V988.637C1546.13 959.015 1676.13 805.172 1676.13 625.811C1676.13 425.331 1513.61 262.811 1313.13 262.811C1179.78 262.811 1081.31 285.81 1012.63 311.743ZM613.634 654.782L512.634 755.782V1245.84L613.634 1346.84V654.782ZM488.634 1221.84L387.634 1120.84V880.782L488.634 779.782V1221.84ZM267.604 1000.81L363.634 904.782V1096.84L267.604 1000.81Z" fill="white"/>
<path fill-rule="evenodd" clip-rule="evenodd" d="M1427.12 1000.81C1585.36 951.328 1700.13 799.712 1700.13 625.811C1700.13 412.076 1526.87 238.811 1313.13 238.811C1155.23 238.811 1044.19 270.402 972.323 302.345C936.408 318.307 910.336 334.329 893.128 346.476C884.525 352.548 878.14 357.65 873.851 361.289C871.707 363.109 870.086 364.563 868.974 365.589C868.418 366.102 867.99 366.509 867.686 366.801L867.546 366.936L867.473 367.006C867.252 367.22 867.036 367.439 866.818 367.656L233.663 1000.81L867.148 1634.3L867.231 1634.38L867.324 1634.47C867.324 1634.47 867.534 1634.67 867.686 1634.82C867.828 1634.96 867.997 1635.12 868.194 1635.3C868.419 1635.52 868.678 1635.76 868.974 1636.03C870.086 1637.06 871.707 1638.51 873.851 1640.33C878.14 1643.97 884.525 1649.07 893.128 1655.15C910.336 1667.29 936.408 1683.31 972.323 1699.28C1044.19 1731.22 1155.23 1762.81 1313.13 1762.81C1526.87 1762.81 1700.13 1589.54 1700.13 1375.81C1700.13 1201.91 1585.36 1050.29 1427.12 1000.81ZM762.634 1495.84L863.634 1596.84V404.781L762.634 505.781V1495.84ZM738.634 1471.84L637.634 1370.84V630.781L738.634 529.781V1471.84ZM888.238 1621.05C888.595 1621.36 888.975 1621.69 889.379 1622.03C893.147 1625.23 898.969 1629.89 906.968 1635.54C922.963 1646.83 947.671 1662.06 982.07 1677.34C984.22 1678.3 986.408 1679.26 988.634 1680.21V321.41C986.408 322.365 984.22 323.321 982.07 324.276C947.671 339.565 922.963 354.792 906.968 366.083C898.969 371.729 893.147 376.393 889.379 379.59C888.738 380.133 888.156 380.635 887.634 381.091V1620.53C887.827 1620.7 888.028 1620.87 888.238 1621.05ZM1012.63 311.743V1689.88C1081.31 1715.81 1179.78 1738.81 1313.13 1738.81C1513.61 1738.81 1676.13 1576.29 1676.13 1375.81C1676.13 1196.45 1546.13 1042.61 1375.63 1012.98V988.637C1546.13 959.015 1676.13 805.172 1676.13 625.811C1676.13 425.331 1513.61 262.811 1313.13 262.811C1179.78 262.811 1081.31 285.81 1012.63 311.743ZM613.634 654.782L512.634 755.782V1245.84L613.634 1346.84V654.782ZM488.634 1221.84L387.634 1120.84V880.782L488.634 779.782V1221.84ZM267.604 1000.81L363.634 904.782V1096.84L267.604 1000.81Z" fill="white"/>
</svg>
