<svg width="173" height="44" viewBox="0 0 173 44" fill="none" xmlns="http://www.w3.org/2000/svg">
<path d="M82.2769 38.8363V5.21086H89.2896L99.1166 30.294L108.987 5.21086H116.089V38.8363H109.077V31.7931C109.077 24.5237 109.077 22.9334 109.435 20.4317L102.422 38.8363H95.8111L88.8448 20.4317C89.2464 22.9303 89.2896 25.7494 89.2896 29.4297V38.8363H82.2769Z" fill="black"/>
<path d="M131.066 4.57286C138.168 4.57286 142.635 8.57058 142.635 14.9349H135.444C135.444 12.5714 133.701 11.1163 130.976 11.1163C128.029 11.1163 126.151 12.4803 126.151 14.7054C126.151 16.7514 127.18 17.7509 129.5 18.2506L134.458 19.2971C140.352 20.5229 143.167 23.386 143.167 28.7037C143.167 35.2031 138.165 39.4271 130.572 39.4271C123.201 39.4271 118.422 35.3823 118.422 29.0651H125.613C125.613 31.5197 127.399 32.8837 130.615 32.8837C133.877 32.8837 135.932 31.5669 135.932 29.4297C135.932 27.566 135.082 26.6137 132.895 26.158L127.847 25.1114C121.953 23.8857 118.913 20.4757 118.913 14.9789C118.919 8.89115 123.967 4.57286 131.066 4.57286Z" fill="black"/>
<path d="M151.875 23.0214V18.2977C151.965 18.2066 152.055 18.1626 152.144 18.0714L159.336 11.6631H146.874V5.21086H168.403V11.0723L161.434 17.2983C165.901 18.6623 169.518 22.2954 169.518 28.0217C169.518 35.112 163.89 39.4271 157.189 39.4271C150.757 39.4271 145.351 35.4294 145.351 27.8394H152.5C152.5 31.1583 154.464 32.9277 157.368 32.9277C160.183 32.9277 162.104 30.9729 162.104 27.9746C162.104 25.2937 160.584 23.0214 156.698 23.0214H151.875Z" fill="black"/>
<path d="M14.2911 16.8436L3.48254 27.8396L14.2911 38.8356L25.0997 27.8396L14.2911 16.8436Z" fill="black"/>
<path d="M26.1937 4.7327L15.3851 15.7287L26.1937 26.7247L37.0022 15.7287L26.1937 4.7327Z" fill="black"/>
<path d="M38.1002 16.844L27.2916 27.84L38.1002 38.836L48.9088 27.84L38.1002 16.844Z" fill="black"/>
<path d="M50.0049 4.7308L39.1963 15.7268L50.0049 26.7228L60.8134 15.7268L50.0049 4.7308Z" fill="black"/>
<path d="M61.9092 16.8441L51.1006 27.8401L61.9092 38.8362L72.7178 27.8402L61.9092 16.8441Z" fill="black"/>
<path opacity="0.45" d="M14.291 38.8363H23.9482L29.9321 32.7517L25.1005 27.8394L14.291 38.8363Z" fill="black"/>
<path opacity="0.45" d="M61.9093 38.8363H52.2522L46.2713 32.7517L51.0999 27.8394L61.9093 38.8363Z" fill="black"/>
</svg>
