<svg width="308" height="200" viewBox="0 0 308 200" fill="none" xmlns="http://www.w3.org/2000/svg">
<g clip-path="url(#clip0_4692_1383)">
<path d="M106.047 11.0535L47.5273 69.5735L89.5482 111.595L148.069 53.0751L106.047 11.0535Z" fill="#FFFACD"/>
<path d="M24.571 152.853L11.0352 188.947H128.341L114.806 152.853H24.571Z" fill="white"/>
<path d="M106.047 11.0535L47.5273 69.5735L89.5482 111.595L148.069 53.0751L106.047 11.0535Z" stroke="#1D1D1B" stroke-width="16.6667"/>
<path d="M118.816 82.3344L189.002 152.52" stroke="#1D1D1B" stroke-width="16.6667"/>
<path d="M24.571 152.853L11.0352 188.947H128.341L114.806 152.853H24.571Z" stroke="#1D1D1B" stroke-width="16.6667"/>
</g>
<path d="M220.5 41.6666C220.5 66.6667 258 94.7917 258 94.7917C258 94.7917 295.5 66.6667 295.5 41.6666C295.5 20.9559 278.711 4.16663 258 4.16663C237.289 4.16663 220.5 20.9559 220.5 41.6666Z" fill="#FFFACD"/>
<path d="M220.5 41.6666C220.5 66.6667 258 94.7917 258 94.7917C258 94.7917 295.5 66.6667 295.5 41.6666C295.5 20.956 278.711 4.16663 258 4.16663C237.289 4.16663 220.5 20.956 220.5 41.6666Z" stroke="#1D1D1B" stroke-width="8.33333"/>
<path d="M258 28.125V17.7084" stroke="#1D1D1B" stroke-width="8.33333"/>
<path d="M258 67.7083V57.2916" stroke="#1D1D1B" stroke-width="8.33333"/>
<path d="M268.415 36.4583V32.2917C268.415 29.9905 266.55 28.125 264.249 28.125H251.749C249.448 28.125 247.582 29.9905 247.582 32.2917V36.1675C247.582 38.1537 248.984 39.8637 250.932 40.2532L265.066 43.08C267.013 43.4696 268.415 45.1796 268.415 47.1658V53.125C268.415 55.4262 266.55 57.2917 264.249 57.2917H251.749C249.448 57.2917 247.582 55.4262 247.582 53.125V48.9583" stroke="#1D1D1B" stroke-width="8.33333"/>
<defs>
<clipPath id="clip0_4692_1383">
<rect width="200" height="200" fill="white"/>
</clipPath>
</defs>
</svg>
