<svg width="308" height="200" viewBox="0 0 308 200" fill="none" xmlns="http://www.w3.org/2000/svg">
<path d="M15.2695 169.34V38.3651L53.7912 76.8867L100.018 30.6601L146.245 76.8867L184.766 38.3651V169.34H15.2695Z" fill="#FFFACD"/>
<path d="M15.2695 169.34V38.3651L53.7912 76.8867L100.018 30.6601L146.245 76.8867L184.766 38.3651V169.34H15.2695Z" stroke="#1D1D1B" stroke-width="16.6667"/>
<path d="M100.024 107.705L107.729 115.41L100.024 123.114L92.3203 115.41L100.024 107.705Z" stroke="#1D1D1B" stroke-width="16.6667"/>
<path d="M228.832 50L270.499 8.33337H299.665V37.5L257.999 79.1667L228.832 50Z" fill="#FFFACD"/>
<path d="M228.832 25L216.332 37.5L228.832 50L253.832 25H228.832Z" fill="white"/>
<path d="M283 79.1667L270.5 91.6667L258 79.1667L283 54.1667V79.1667Z" fill="white"/>
<path d="M228.832 50L270.499 8.33337H299.665V37.5L257.999 79.1667L228.832 50Z" stroke="#1D1D1B" stroke-width="8.33333"/>
<path d="M228.832 25L216.332 37.5L228.832 50L253.832 25H228.832Z" stroke="#1D1D1B" stroke-width="8.33333"/>
<path d="M283 79.1667L270.5 91.6667L258 79.1667L283 54.1667V79.1667Z" stroke="#1D1D1B" stroke-width="8.33333"/>
<path d="M235.082 72.9171L216.332 91.6671" stroke="#1D1D1B" stroke-width="8.33333"/>
<path d="M247.583 85.4167L239.25 93.75" stroke="#1D1D1B" stroke-width="8.33333"/>
<path d="M222.583 60.4171L214.25 68.7504" stroke="#1D1D1B" stroke-width="8.33333"/>
<path d="M276.815 31.1849L268.352 39.6484" stroke="#1D1D1B" stroke-width="8.33333"/>
</svg>
