<svg width="23" height="24" viewBox="0 0 23 24" fill="none" xmlns="http://www.w3.org/2000/svg">
<path d="M1.17188 22.7999L6.45187 1.19995H7.41187C8.47227 1.19995 9.33187 2.05955 9.33187 3.11995V10.8" stroke="#5F5F5F" stroke-width="2"/>
<path d="M7.41219 17.52V10.8H9.33219C10.3926 10.8 11.2522 11.6596 11.2522 12.72V17.52C11.2522 20.1709 9.10319 22.32 6.45219 22.32H5.49219" stroke="#5F5F5F" stroke-width="2"/>
<path d="M21.3319 22.7999L16.0519 1.19995H15.0919C14.0315 1.19995 13.1719 2.05955 13.1719 3.11995V10.8" stroke="#5F5F5F" stroke-width="2"/>
<path d="M15.09 17.52V10.8H13.17C12.1096 10.8 11.25 11.6596 11.25 12.72V17.52C11.25 20.1709 13.3991 22.32 16.05 22.32H17.01" stroke="#5F5F5F" stroke-width="2"/>
</svg>
