
<svg width="308" height="200" viewBox="0 0 308 200" fill="none" xmlns="http://www.w3.org/2000/svg">
<path d="M68.0147 10.0017H60.0147L16.9922 186.002H60.0147C82.1055 186.002 100.014 168.093 100.014 146.002V106.002C100.014 97.165 92.8505 90.0017 84.0147 90.0017V26.0017C84.0147 17.165 76.8514 10.0017 68.0147 10.0017Z" fill="white"/>
<path d="M132 10.0017H140L183.022 186.002H140C117.909 186.002 100 168.093 100 146.002V106.002C100 97.165 107.163 90.0017 116 90.0017V26.0017C116 17.165 123.163 10.0017 132 10.0017Z" fill="white"/>
<path d="M16.0156 190.002L60.0156 10.0017H68.0156C76.8523 10.0017 84.0156 17.165 84.0156 26.0017V90.0017" stroke="#1D1D1B" stroke-width="16.6667"/>
<path d="M68.0195 146.002V90.0024H84.0195C92.8562 90.0024 100.02 97.1658 100.02 106.002V146.002C100.02 168.093 82.1112 186.002 60.0195 186.002H52.0195" stroke="#1D1D1B" stroke-width="16.6667"/>
<path d="M184.016 190.002L140.016 10.0017H132.016C123.179 10.0017 116.016 17.165 116.016 26.0017V90.0017" stroke="#1D1D1B" stroke-width="16.6667"/>
<path d="M132 146.002V90.0024H116C107.163 90.0024 100 97.1658 100 106.002V146.002C100 168.093 117.909 186.002 140 186.002H148" stroke="#1D1D1B" stroke-width="16.6667"/>
<path d="M234.835 25.1574C232.592 24.0316 230.822 21.9891 230.121 19.3745L228.942 14.9766L213.551 19.1011L223.408 55.8895H226.6L234.835 25.1574Z" fill="white"/>
<path d="M254.075 6.13916L234.043 80.9L282.418 93.8616L302.45 19.1012L287.058 14.9767L286.469 17.1754C285.167 22.0333 280.174 24.9158 275.317 23.6142C270.459 22.3125 267.576 17.3196 268.878 12.4621L269.467 10.2633L254.075 6.13916Z" fill="#06F881"/>
<path d="M254.075 6.13916L234.043 80.9L282.418 93.8616L302.45 19.1012L287.058 14.9767L286.469 17.1754C285.167 22.0333 280.174 24.9158 275.317 23.6142C270.459 22.3125 267.576 17.3196 268.878 12.4621L269.467 10.2633L254.075 6.13916Z" stroke="#1D1D1B" stroke-width="8.33333"/>
<path d="M234.406 24.9279C232.367 23.7654 230.776 21.8204 230.121 19.3746L228.942 14.9771L213.551 19.1012L224.27 59.1062" stroke="#1D1D1B" stroke-width="8.33333"/>
<path d="M247.16 31.9397L258.144 34.8826" stroke="#1D1D1B" stroke-width="8.33333"/>
<path d="M266.953 37.2397L275.749 39.5964" stroke="#1D1D1B" stroke-width="8.33333"/>
<path d="M284.531 41.9526L295.541 44.9031" stroke="#1D1D1B" stroke-width="8.33333"/>
</svg>
