<svg width="121" height="126" viewBox="0 0 121 126" fill="none" xmlns="http://www.w3.org/2000/svg">
<path fill-rule="evenodd" clip-rule="evenodd" d="M82.9606 15.8332H95.1585V53.6141H82.9606V15.8332ZM84.9253 17.798V51.6493H93.1937V17.798H84.9253Z" fill="#1D1D1B"/>
<path fill-rule="evenodd" clip-rule="evenodd" d="M82.9606 72.1157H95.1585V109.897H82.9606V72.1157ZM84.9253 74.0805V107.932H93.1937V74.0805H84.9253Z" fill="#1D1D1B"/>
<path fill-rule="evenodd" clip-rule="evenodd" d="M98.391 62.8649C111.346 58.814 120.741 46.4019 120.741 32.1654C120.741 14.6679 106.557 0.483459 89.0595 0.483459C76.1328 0.483459 67.0426 3.06973 61.1589 5.68472C58.2188 6.99144 56.0843 8.30311 54.6756 9.29751C53.9713 9.79464 53.4486 10.2123 53.0975 10.5102C52.9219 10.6592 52.7893 10.7782 52.6982 10.8622C52.6527 10.9043 52.6176 10.9375 52.5928 10.9614C52.5887 10.9654 52.5813 10.9725 52.5813 10.9725L52.5754 10.9782C52.5707 10.9828 52.5631 10.9902 52.5631 10.9902L52.5587 10.9945L52.5541 10.9991L52.5514 11.0017L52.5488 11.0044L42.3156 21.2375L42.311 21.2421L21.852 41.7012L21.8492 41.704L0.688232 62.865L11.6146 73.7913L42.3156 104.492L42.3202 104.497L52.5488 114.725L52.5556 114.732L52.5631 114.74C52.5705 114.747 52.5803 114.756 52.5928 114.768C52.6044 114.78 52.6183 114.793 52.6344 114.808C52.6528 114.825 52.674 114.845 52.6982 114.868C52.7893 114.952 52.9219 115.071 53.0975 115.22C53.4486 115.517 53.9713 115.935 54.6756 116.432C56.0843 117.427 58.2188 118.738 61.1589 120.045C67.0426 122.66 76.1328 125.246 89.0595 125.246C106.557 125.246 120.741 111.062 120.741 93.5644C120.741 79.3279 111.346 66.9158 98.391 62.8649ZM43.9926 103.391L52.261 111.659V14.0707L43.9926 22.3391V103.391ZM42.0279 101.426L33.7595 93.1575V32.5723L42.0279 24.3039V101.426ZM54.2752 113.641C54.3045 113.667 54.3356 113.693 54.3687 113.721C54.6771 113.983 55.1538 114.365 55.8086 114.827C57.1181 115.751 59.1408 116.998 61.9569 118.25C62.1329 118.328 62.312 118.406 62.4942 118.484V7.24548C62.312 7.32368 62.1329 7.40193 61.9569 7.48015C59.1408 8.73172 57.1181 9.97835 55.8086 10.9027C55.1538 11.3649 54.6771 11.7467 54.3687 12.0084C54.3162 12.0529 54.2686 12.094 54.2258 12.1313V113.598C54.2416 113.612 54.2581 113.627 54.2752 113.641ZM64.459 6.45411V119.276C70.0808 121.399 78.1421 123.282 89.0595 123.282C105.472 123.282 118.777 109.977 118.777 93.5644C118.777 78.8809 108.134 66.2865 94.1761 63.8615V61.8683C108.134 59.4433 118.777 46.8489 118.777 32.1654C118.777 15.7531 105.472 2.44823 89.0595 2.44823C78.1421 2.44823 70.0808 4.33105 64.459 6.45411ZM31.7947 34.5371L23.5263 42.8055V82.9244L31.7947 91.1928V34.5371ZM21.5615 80.9596L13.2931 72.6912V53.0387L21.5615 44.7703V80.9596ZM3.46684 62.865L11.3283 55.0035V70.7265L3.46684 62.865Z" fill="#1D1D1B"/>
<path fill-rule="evenodd" clip-rule="evenodd" d="M98.391 62.8649C111.346 58.814 120.741 46.4019 120.741 32.1654C120.741 14.6679 106.557 0.483459 89.0595 0.483459C76.1328 0.483459 67.0426 3.06973 61.1589 5.68472C58.2188 6.99144 56.0843 8.30311 54.6756 9.29751C53.9713 9.79464 53.4486 10.2123 53.0975 10.5102C52.9219 10.6592 52.7893 10.7782 52.6982 10.8622C52.6527 10.9043 52.6176 10.9375 52.5928 10.9614L52.5813 10.9725L52.5754 10.9782C52.5573 10.9958 52.5395 11.0137 52.5217 11.0314L0.688232 62.865L52.5488 114.725L52.5556 114.732L52.5631 114.74C52.5631 114.74 52.5803 114.756 52.5928 114.768C52.6044 114.78 52.6183 114.793 52.6344 114.808C52.6528 114.825 52.674 114.845 52.6982 114.868C52.7893 114.952 52.9219 115.071 53.0975 115.22C53.4486 115.517 53.9713 115.935 54.6756 116.432C56.0843 117.427 58.2188 118.738 61.1589 120.045C67.0426 122.66 76.1328 125.246 89.0595 125.246C106.557 125.246 120.741 111.062 120.741 93.5644C120.741 79.3279 111.346 66.9158 98.391 62.8649ZM43.9926 103.391L52.261 111.659V14.0707L43.9926 22.3391V103.391ZM42.0279 101.426L33.7595 93.1575V32.5723L42.0279 24.3039V101.426ZM54.2752 113.641C54.3045 113.667 54.3356 113.693 54.3687 113.721C54.6771 113.983 55.1538 114.365 55.8086 114.827C57.1181 115.751 59.1408 116.998 61.9569 118.25C62.1329 118.328 62.312 118.406 62.4942 118.484V7.24548C62.312 7.32368 62.1329 7.40193 61.9569 7.48015C59.1408 8.73172 57.1181 9.97835 55.8086 10.9027C55.1538 11.3649 54.6771 11.7467 54.3687 12.0084C54.3162 12.0529 54.2686 12.094 54.2258 12.1313V113.598C54.2416 113.612 54.2581 113.627 54.2752 113.641ZM64.459 6.45411V119.276C70.0808 121.399 78.1421 123.282 89.0595 123.282C105.472 123.282 118.777 109.977 118.777 93.5644C118.777 78.8809 108.134 66.2865 94.1761 63.8615V61.8683C108.134 59.4433 118.777 46.8489 118.777 32.1654C118.777 15.7531 105.472 2.44823 89.0595 2.44823C78.1421 2.44823 70.0808 4.33105 64.459 6.45411ZM31.7947 34.5371L23.5263 42.8055V82.9244L31.7947 91.1928V34.5371ZM21.5615 80.9596L13.2931 72.6912V53.0387L21.5615 44.7703V80.9596ZM3.46684 62.865L11.3283 55.0035V70.7265L3.46684 62.865Z" fill="#1D1D1B"/>
</svg>
