<svg width="98" height="51" viewBox="0 0 98 51" fill="none" xmlns="http://www.w3.org/2000/svg">
<g clip-path="url(#clip0_296_46)">
<path d="M7.1174 0.553707C6.60434 0.732697 6.53438 0.77161 6.42554 0.997292C6.35558 1.12181 6.2623 1.48757 6.22343 1.79886C6.09128 2.72495 5.9358 3.26192 5.54712 4.04014C5.24394 4.66272 5.07292 4.8884 4.47435 5.48763C3.85246 6.118 3.67366 6.25029 2.95848 6.59271C2.50761 6.81061 1.87017 7.04408 1.54367 7.1219C1.21718 7.19972 0.960647 7.28533 0.983968 7.32424C1.00729 7.35537 0.960647 7.3865 0.875137 7.3865C0.680795 7.3865 0.470905 7.62775 0.470905 7.84565C0.470905 8.05577 0.6497 8.42153 0.937326 8.7873C1.62141 9.66669 1.86239 10.7484 1.59809 11.7679C1.44262 12.3593 1.26382 12.694 0.7974 13.2854C0.579737 13.5578 0.338753 13.9313 0.26879 14.1337C0.0744476 14.6395 0.198826 15.0364 0.828494 15.8691C1.52035 16.7874 1.66805 17.1843 1.66805 18.1649C1.66805 19.1532 1.52035 19.5345 0.789626 20.5229C-0.0421576 21.628 -0.034384 21.9859 0.88291 23.1688C2.02564 24.6552 1.98677 26.2117 0.758531 27.7604C-0.034384 28.7643 -0.0266103 29.1923 0.812947 30.2974C1.48148 31.1767 1.71469 31.776 1.71469 32.6009C1.71469 33.4258 1.48148 34.025 0.812947 34.9044C-0.0266103 36.0095 -0.034384 36.4375 0.758531 37.4414C1.9479 38.9356 2.02564 40.5076 0.983968 41.924C0.540868 42.5232 0.470905 42.6633 0.470905 42.9357C0.470905 43.1614 0.711889 43.4649 0.805173 43.3637C0.836268 43.3404 0.859589 43.4104 0.859589 43.5193C0.859589 43.7139 0.88291 43.7295 1.22495 43.7295C1.72247 43.7295 2.55425 43.8851 2.67086 43.9941C2.72527 44.0485 2.98958 44.212 3.26943 44.352C3.6037 44.531 4.0157 44.8657 4.48212 45.3248C5.0807 45.9163 5.24394 46.142 5.54712 46.7645C5.9358 47.5428 6.09128 48.0797 6.22343 49.0058C6.2623 49.3171 6.35558 49.6751 6.41777 49.7996C6.54992 50.0564 6.80645 50.2198 6.93861 50.142C6.99302 50.1031 7.00857 50.1498 6.98525 50.2977L6.94638 50.5H49.173H91.3996L91.4385 49.5039C91.4851 48.3521 91.6795 47.6439 92.2081 46.6867C92.5968 45.9941 93.5685 44.9902 94.237 44.5933C95.1543 44.0563 96.2349 43.7373 97.1211 43.7295H97.5642V43.3559C97.5642 42.9979 97.5486 42.9668 97.2221 42.7333C96.8101 42.4376 96.3981 41.8929 96.1105 41.2703C95.9239 40.8656 95.8928 40.7177 95.8928 40.0329C95.8928 39.4804 95.9317 39.138 96.0327 38.85C96.2193 38.313 96.779 37.5582 97.2143 37.2547L97.5642 37.0056V36.3831V35.7527L97.1988 35.4803C96.7324 35.1379 96.2893 34.5542 96.0716 34.0017C95.9317 33.6593 95.9006 33.4102 95.9006 32.7565C95.9006 32.0328 95.9239 31.8849 96.1027 31.488C96.3981 30.8499 96.7635 30.3752 97.191 30.0561L97.5642 29.7837L97.5564 29.1534V28.5152L97.2299 28.2818C96.7712 27.9471 96.2893 27.3168 96.0794 26.7876C95.9317 26.4218 95.9006 26.1806 95.9006 25.5191C95.8928 24.7331 95.9006 24.6786 96.1805 24.1105C96.4059 23.6513 96.6002 23.3945 97.02 23.0054L97.5642 22.4996V21.9392V21.3789L97.0356 20.8886C96.1805 20.0949 95.7995 19.1921 95.8773 18.126C95.9472 17.0909 96.437 16.1726 97.2299 15.5967L97.5564 15.3633V14.7329L97.5642 14.1103L97.2066 13.838C96.779 13.5189 96.3903 13.013 96.1105 12.3982C95.9239 11.9936 95.9006 11.8457 95.9006 11.122C95.9006 10.4683 95.9317 10.2192 96.0716 9.87681C96.2893 9.32427 96.7324 8.7406 97.1988 8.39819C97.5408 8.14137 97.5642 8.10246 97.5642 7.77561V7.42541L97.0822 7.40206C94.4158 7.29311 92.0837 5.30864 91.5396 2.67825C91.4774 2.37475 91.423 1.79108 91.423 1.37862V0.623745L90.5134 0.577053C88.8732 0.491447 7.37393 0.468102 7.1174 0.553707Z" fill="#FFDA0A"/>
<path d="M37.7444 22.7727V24.3636H32.7273V22.7727H37.7444ZM33.966 20.6818H36.0228V28.875C36.0228 29.1515 36.0644 29.3636 36.1478 29.5114C36.2349 29.6553 36.3485 29.7538 36.4887 29.8068C36.6288 29.8598 36.7841 29.8864 36.9546 29.8864C37.0834 29.8864 37.2008 29.8769 37.3069 29.858C37.4167 29.839 37.5 29.822 37.5569 29.8068L37.9035 31.4148C37.7936 31.4527 37.6364 31.4943 37.4319 31.5398C37.2311 31.5852 36.9849 31.6117 36.6932 31.6193C36.1781 31.6345 35.7141 31.5568 35.3012 31.3864C34.8883 31.2121 34.5607 30.9432 34.3182 30.5795C34.0796 30.2159 33.9622 29.7614 33.966 29.2159V20.6818ZM39.4645 31.5V22.7727H41.5214V31.5H39.4645ZM40.4986 21.5341C40.1729 21.5341 39.8926 21.4261 39.6577 21.2102C39.4229 20.9905 39.3054 20.7273 39.3054 20.4205C39.3054 20.1098 39.4229 19.8466 39.6577 19.6307C39.8926 19.411 40.1729 19.3011 40.4986 19.3011C40.8282 19.3011 41.1085 19.411 41.3395 19.6307C41.5744 19.8466 41.6918 20.1098 41.6918 20.4205C41.6918 20.7273 41.5744 20.9905 41.3395 21.2102C41.1085 21.4261 40.8282 21.5341 40.4986 21.5341ZM45.5114 28.7614L45.5057 26.2784H45.8353L48.9716 22.7727H51.375L47.5171 27.0682H47.091L45.5114 28.7614ZM43.6364 31.5V19.8636H45.6932V31.5H43.6364ZM49.1137 31.5L46.2728 27.5284L47.6591 26.0795L51.5739 31.5H49.1137ZM52.7458 31.5V22.7727H54.8026V31.5H52.7458ZM53.7799 21.5341C53.4541 21.5341 53.1738 21.4261 52.939 21.2102C52.7041 20.9905 52.5867 20.7273 52.5867 20.4205C52.5867 20.1098 52.7041 19.8466 52.939 19.6307C53.1738 19.411 53.4541 19.3011 53.7799 19.3011C54.1094 19.3011 54.3897 19.411 54.6208 19.6307C54.8556 19.8466 54.9731 20.1098 54.9731 20.4205C54.9731 20.7273 54.8556 20.9905 54.6208 21.2102C54.3897 21.4261 54.1094 21.5341 53.7799 21.5341ZM61.2756 22.7727V24.3636H56.2586V22.7727H61.2756ZM57.4972 20.6818H59.554V28.875C59.554 29.1515 59.5957 29.3636 59.679 29.5114C59.7661 29.6553 59.8798 29.7538 60.0199 29.8068C60.1601 29.8598 60.3154 29.8864 60.4858 29.8864C60.6146 29.8864 60.7321 29.8769 60.8381 29.858C60.948 29.839 61.0313 29.822 61.0881 29.8068L61.4347 31.4148C61.3249 31.4527 61.1677 31.4943 60.9631 31.5398C60.7624 31.5852 60.5161 31.6117 60.2245 31.6193C59.7093 31.6345 59.2453 31.5568 58.8324 31.3864C58.4196 31.2121 58.0919 30.9432 57.8495 30.5795C57.6108 30.2159 57.4934 29.7614 57.4972 29.2159V20.6818ZM62.9958 31.5V22.7727H65.0526V31.5H62.9958ZM64.0299 21.5341C63.7041 21.5341 63.4238 21.4261 63.189 21.2102C62.9541 20.9905 62.8367 20.7273 62.8367 20.4205C62.8367 20.1098 62.9541 19.8466 63.189 19.6307C63.4238 19.411 63.7041 19.3011 64.0299 19.3011C64.3594 19.3011 64.6397 19.411 64.8708 19.6307C65.1056 19.8466 65.2231 20.1098 65.2231 20.4205C65.2231 20.7273 65.1056 20.9905 64.8708 21.2102C64.6397 21.4261 64.3594 21.5341 64.0299 21.5341Z" fill="black"/>
<path d="M10.2841 42.6136L10.0796 42.6136L3.60232 38.608L3.60232 38.4375L4.16482 38.4375L4.16482 38.642L9.97732 42.2216L10.0114 42.2216L10.0114 37.2443L10.2841 37.2443L10.2841 42.6136ZM12.3296 38.608L10.1989 38.608L10.1137 38.608L3.60232 38.608L3.60232 38.3352L12.3296 38.3352L12.3296 38.608ZM12.3296 35.2553L12.108 35.2553L8.80118 32.4599C8.28413 32.0224 7.85232 31.6815 7.50573 31.4371C7.15629 31.1928 6.84663 31.021 6.57675 30.9215C6.30402 30.8221 6.02277 30.7724 5.733 30.7724C5.35232 30.7724 5.01283 30.8604 4.71453 31.0366C4.41624 31.2099 4.18186 31.4485 4.01141 31.7525C3.84095 32.0536 3.75573 32.3974 3.75573 32.7837C3.75573 33.1871 3.84805 33.5423 4.03271 33.8491C4.21453 34.1559 4.45885 34.396 4.76567 34.5692C5.07249 34.7425 5.41198 34.8292 5.78413 34.8292L5.78413 35.1019C5.36084 35.1019 4.9759 35.0039 4.6293 34.8079C4.27987 34.609 4.00146 34.3363 3.79408 33.9897C3.58669 33.6403 3.483 33.2383 3.483 32.7837C3.483 32.3462 3.58101 31.9556 3.77703 31.6119C3.97021 31.2681 4.23726 30.9968 4.57817 30.7979C4.91624 30.5991 5.30118 30.4996 5.733 30.4996C6.05402 30.4996 6.36084 30.5536 6.65345 30.6616C6.94607 30.7667 7.27277 30.9471 7.63357 31.2028C7.99436 31.4556 8.44038 31.8065 8.97163 32.2553L12.0228 34.8292L12.0569 34.8292L12.0569 29.9883L12.3296 29.9883L12.3296 35.2553ZM12.4489 25.3647C12.4489 25.9187 12.2685 26.396 11.9077 26.7965C11.5469 27.1942 11.0313 27.5011 10.3608 27.717C9.69038 27.9329 8.89209 28.0408 7.96595 28.0408C7.03982 28.0408 6.24152 27.9329 5.57107 27.717C4.90061 27.5011 4.38499 27.1942 4.02419 26.7965C3.6634 26.396 3.483 25.9187 3.483 25.3647C3.483 24.8107 3.6634 24.3349 4.02419 23.9371C4.38499 23.5366 4.90061 23.2283 5.57107 23.0124C6.24152 22.7965 7.03982 22.6886 7.96595 22.6886C8.89209 22.6886 9.69038 22.7965 10.3608 23.0124C11.0313 23.2283 11.5469 23.5366 11.9077 23.9371C12.2685 24.3349 12.4489 24.8107 12.4489 25.3647ZM12.1762 25.3647C12.1762 24.6204 11.8026 24.0337 11.0554 23.6048C10.3083 23.1758 9.27845 22.9613 7.96595 22.9613C7.09095 22.9613 6.33953 23.0593 5.71169 23.2553C5.08101 23.4485 4.59805 23.7241 4.26283 24.082C3.92476 24.44 3.75572 24.8675 3.75572 25.3647C3.75572 26.109 4.1293 26.6957 4.87646 27.1246C5.62362 27.5536 6.65345 27.7681 7.96595 27.7681C8.84095 27.7681 9.59379 27.6715 10.2245 27.4783C10.8523 27.2823 11.3353 27.0053 11.6733 26.6474C12.0086 26.2866 12.1762 25.859 12.1762 25.3647ZM12.4489 18.2578C12.4489 18.6271 12.3651 18.9695 12.1975 19.2848C12.0299 19.6001 11.7785 19.8757 11.4432 20.1115C11.1052 20.3445 10.6804 20.5263 10.1691 20.657C9.65771 20.7848 9.0597 20.8487 8.37504 20.8487C7.78697 20.8487 7.20459 20.8075 6.62788 20.7251C6.04834 20.6399 5.52135 20.4979 5.04692 20.299C4.57249 20.1001 4.19323 19.8274 3.90913 19.4808C3.62504 19.1342 3.483 18.6982 3.483 18.1726C3.483 17.7408 3.58101 17.3643 3.77703 17.0433C3.97021 16.7223 4.2401 16.468 4.58669 16.2805C4.93044 16.093 5.32959 15.9851 5.78413 15.9567L5.78413 16.2294C5.1847 16.272 4.69749 16.4638 4.32249 16.8047C3.94464 17.1428 3.75572 17.5987 3.75572 18.1726C3.75572 18.968 4.1634 19.5675 4.97874 19.9709C5.79124 20.3743 6.96311 20.576 8.49436 20.576L8.49436 20.5419C8.20459 20.4482 7.94749 20.2905 7.72305 20.0689C7.49578 19.8445 7.31823 19.5788 7.19038 19.272C7.0597 18.9652 6.99436 18.6442 6.99436 18.3089C6.99436 17.8516 7.11368 17.4339 7.35232 17.0561C7.59095 16.6754 7.91624 16.3714 8.32817 16.1442C8.7401 15.9169 9.20459 15.8033 9.72163 15.8033C10.2046 15.8033 10.6535 15.907 11.0682 16.1143C11.483 16.3189 11.8168 16.6058 12.0696 16.9751C12.3225 17.3416 12.4489 17.7692 12.4489 18.2578ZM12.1762 18.2578C12.1762 17.8374 12.0654 17.4638 11.8438 17.1371C11.6222 16.8075 11.3253 16.549 10.9532 16.3615C10.581 16.1712 10.1705 16.076 9.72163 16.076C9.26141 16.076 8.84663 16.1768 8.47732 16.3786C8.10516 16.5774 7.81112 16.8473 7.59521 17.1882C7.37646 17.5263 7.26709 17.9055 7.26709 18.326C7.26709 18.6584 7.33669 18.9666 7.4759 19.2507C7.61226 19.5348 7.80118 19.7777 8.04266 19.9794C8.28129 20.1783 8.55544 20.3203 8.8651 20.4055C9.17476 20.4908 9.50004 20.5021 9.84095 20.4396C10.3523 20.343 10.7813 20.1925 11.1279 19.9879C11.4745 19.7805 11.7358 19.5305 11.912 19.2379C12.0881 18.9425 12.1762 18.6158 12.1762 18.2578ZM3.483 11.4098C3.483 11.0376 3.5668 10.6953 3.73442 10.3828C3.89919 10.0675 4.14919 9.79332 4.48442 9.56037C4.8168 9.32457 5.23726 9.14276 5.74578 9.01491C6.2543 8.88423 6.85232 8.81889 7.53982 8.81889C8.12788 8.81889 8.71169 8.86008 9.29124 8.94247C9.87078 9.02486 10.3992 9.16548 10.8765 9.36435C11.3537 9.56321 11.7358 9.83594 12.0228 10.1825C12.3069 10.5291 12.4489 10.9666 12.4489 11.495C12.4489 11.9268 12.3509 12.3033 12.1549 12.6243C11.956 12.9453 11.6833 13.1996 11.3367 13.3871C10.9873 13.5746 10.5853 13.6825 10.1307 13.7109L10.1307 13.4382C10.7273 13.3956 11.2174 13.2038 11.6009 12.8629C11.9844 12.522 12.1762 12.0661 12.1762 11.495C12.1762 10.7024 11.7671 10.1044 10.9489 9.70099C10.1307 9.29474 8.95459 9.09162 7.4205 9.09162L7.4205 9.12571C7.71027 9.21662 7.96879 9.37429 8.19607 9.59872C8.4205 9.82315 8.59805 10.0888 8.72874 10.3956C8.85658 10.7024 8.9205 11.0234 8.9205 11.3587C8.9205 11.8189 8.80118 12.2393 8.56254 12.62C8.32391 12.9979 7.99862 13.3004 7.58669 13.5277C7.17476 13.7521 6.71027 13.8643 6.19323 13.8643C5.71027 13.8643 5.26283 13.7621 4.8509 13.5575C4.43896 13.3501 4.108 13.0632 3.858 12.6967C3.608 12.3274 3.483 11.8984 3.483 11.4098ZM3.75572 11.4098C3.75572 11.8303 3.8651 12.2053 4.08385 12.5348C4.3026 12.8615 4.59663 13.12 4.96595 13.3104C5.33527 13.4979 5.74436 13.5916 6.19323 13.5916C6.65345 13.5916 7.06965 13.4922 7.4418 13.2933C7.81112 13.0916 8.10516 12.8217 8.32391 12.4837C8.53982 12.1428 8.64777 11.7621 8.64777 11.3416C8.64777 11.0092 8.57959 10.701 8.44322 10.4169C8.30402 10.1328 8.11368 9.89133 7.8722 9.69247C7.63072 9.49077 7.35658 9.3473 7.04976 9.26207C6.7401 9.17401 6.41482 9.16264 6.07391 9.22798C5.56254 9.32457 5.13499 9.47656 4.79124 9.68395C4.44749 9.88849 4.18896 10.1385 4.01567 10.4339C3.84237 10.7266 3.75572 11.0518 3.75572 11.4098Z" fill="black"/>
<path d="M87.375 8.38636L87.5796 8.38636L94.0569 12.392L94.0569 12.5625L93.4944 12.5625L93.4944 12.358L87.6819 8.77841L87.6478 8.77841L87.6478 13.7557L87.375 13.7557L87.375 8.38636ZM85.3296 12.392L87.4603 12.392L87.5455 12.392L94.0569 12.392L94.0569 12.6648L85.3296 12.6648L85.3296 12.392ZM85.3296 15.7447L85.5512 15.7447L88.858 18.5401C89.375 18.9776 89.8069 19.3185 90.1535 19.5629C90.5029 19.8072 90.8125 19.979 91.0824 20.0785C91.3552 20.1779 91.6364 20.2276 91.9262 20.2276C92.3069 20.2276 92.6464 20.1396 92.9446 19.9634C93.2429 19.7901 93.4773 19.5515 93.6478 19.2475C93.8182 18.9464 93.9035 18.6026 93.9035 18.2163C93.9035 17.8129 93.8111 17.4577 93.6265 17.1509C93.4446 16.8441 93.2003 16.604 92.8935 16.4308C92.5867 16.2575 92.2472 16.1708 91.875 16.1708L91.875 15.8981C92.2983 15.8981 92.6833 15.9961 93.0299 16.1921C93.3793 16.391 93.6577 16.6637 93.8651 17.0103C94.0725 17.3597 94.1762 17.7617 94.1762 18.2163C94.1762 18.6538 94.0782 19.0444 93.8821 19.3881C93.689 19.7319 93.4219 20.0032 93.081 20.2021C92.7429 20.4009 92.358 20.5004 91.9262 20.5004C91.6052 20.5004 91.2983 20.4464 91.0057 20.3384C90.7131 20.2333 90.3864 20.0529 90.0256 19.7972C89.6648 19.5444 89.2188 19.1935 88.6875 18.7447L85.6364 16.1708L85.6023 16.1708L85.6023 21.0117L85.3296 21.0117L85.3296 15.7447ZM85.2103 25.6353C85.2103 25.0813 85.3907 24.604 85.7515 24.2035C86.1123 23.8058 86.6279 23.4989 87.2983 23.283C87.9688 23.0671 88.7671 22.9592 89.6932 22.9592C90.6194 22.9592 91.4177 23.0671 92.0881 23.283C92.7586 23.4989 93.2742 23.8058 93.635 24.2035C93.9958 24.604 94.1762 25.0813 94.1762 25.6353C94.1762 26.1893 93.9958 26.6651 93.635 27.0629C93.2742 27.4634 92.7586 27.7717 92.0881 27.9876C91.4177 28.2035 90.6194 28.3114 89.6932 28.3114C88.7671 28.3114 87.9688 28.2035 87.2983 27.9876C86.6279 27.7717 86.1123 27.4634 85.7515 27.0629C85.3907 26.6651 85.2103 26.1893 85.2103 25.6353ZM85.483 25.6353C85.483 26.3796 85.8566 26.9663 86.6037 27.3952C87.3509 27.8242 88.3807 28.0387 89.6932 28.0387C90.5682 28.0387 91.3196 27.9407 91.9475 27.7447C92.5782 27.5515 93.0611 27.2759 93.3964 26.918C93.7344 26.56 93.9035 26.1325 93.9035 25.6353C93.9035 24.891 93.5299 24.3043 92.7827 23.8754C92.0356 23.4464 91.0057 23.2319 89.6932 23.2319C88.8182 23.2319 88.0654 23.3285 87.4347 23.5217C86.8069 23.7177 86.3239 23.9947 85.9858 24.3526C85.6506 24.7134 85.483 25.141 85.483 25.6353ZM85.2103 32.7422C85.2103 32.3729 85.2941 32.0305 85.4617 31.7152C85.6293 31.3999 85.8807 31.1243 86.216 30.8885C86.554 30.6555 86.9787 30.4737 87.4901 30.343C88.0015 30.2152 88.5995 30.1513 89.2841 30.1513C89.8722 30.1513 90.4546 30.1925 91.0313 30.2749C91.6108 30.3601 92.1378 30.5021 92.6123 30.701C93.0867 30.8999 93.466 31.1726 93.75 31.5192C94.0341 31.8658 94.1762 32.3018 94.1762 32.8274C94.1762 33.2592 94.0782 33.6357 93.8821 33.9567C93.689 34.2777 93.4191 34.532 93.0725 34.7195C92.7287 34.907 92.3296 35.0149 91.875 35.0433L91.875 34.7706C92.4745 34.728 92.9617 34.5362 93.3367 34.1953C93.7145 33.8572 93.9035 33.4013 93.9035 32.8274C93.9035 32.032 93.4958 31.4325 92.6804 31.0291C91.8679 30.6257 90.6961 30.424 89.1648 30.424L89.1648 30.4581C89.4546 30.5518 89.7117 30.7095 89.9361 30.9311C90.1634 31.1555 90.341 31.4212 90.4688 31.728C90.5995 32.0348 90.6648 32.3558 90.6648 32.6911C90.6648 33.1484 90.5455 33.5661 90.3069 33.9439C90.0682 34.3246 89.7429 34.6286 89.331 34.8558C88.9191 35.0831 88.4546 35.1967 87.9375 35.1967C87.4546 35.1967 87.0057 35.093 86.591 34.8857C86.1762 34.6811 85.8424 34.3942 85.5895 34.0249C85.3367 33.6584 85.2103 33.2308 85.2103 32.7422ZM85.483 32.7422C85.483 33.1626 85.5938 33.5362 85.8154 33.8629C86.037 34.1925 86.3339 34.451 86.706 34.6385C87.0782 34.8288 87.4887 34.924 87.9375 34.924C88.3978 34.924 88.8125 34.8232 89.1819 34.6214C89.554 34.4226 89.8481 34.1527 90.064 33.8118C90.2827 33.4737 90.3921 33.0945 90.3921 32.674C90.3921 32.3416 90.3225 32.0334 90.1833 31.7493C90.0469 31.4652 89.858 31.2223 89.6165 31.0206C89.3779 30.8217 89.1037 30.6797 88.7941 30.5945C88.4844 30.5092 88.1591 30.4979 87.8182 30.5604C87.3069 30.657 86.8779 30.8075 86.5313 31.0121C86.1847 31.2195 85.9233 31.4695 85.7472 31.7621C85.5711 32.0575 85.483 32.3842 85.483 32.7422ZM94.1762 39.5902C94.1762 39.9624 94.0924 40.3047 93.9248 40.6172C93.76 40.9325 93.51 41.2067 93.1748 41.4396C92.8424 41.6754 92.4219 41.8572 91.9134 41.9851C91.4049 42.1158 90.8069 42.1811 90.1194 42.1811C89.5313 42.1811 88.9475 42.1399 88.3679 42.0575C87.7884 41.9751 87.26 41.8345 86.7827 41.6357C86.3054 41.4368 85.9233 41.1641 85.6364 40.8175C85.3523 40.4709 85.2103 40.0334 85.2103 39.505C85.2103 39.0732 85.3083 38.6967 85.5043 38.3757C85.7032 38.0547 85.9759 37.8004 86.3225 37.6129C86.6719 37.4254 87.0739 37.3175 87.5285 37.2891L87.5285 37.5618C86.9319 37.6044 86.4418 37.7962 86.0583 38.1371C85.6748 38.478 85.483 38.9339 85.483 39.505C85.483 40.2976 85.8921 40.8956 86.7103 41.299C87.5285 41.7053 88.7046 41.9084 90.2387 41.9084L90.2387 41.8743C89.9489 41.7834 89.6904 41.6257 89.4631 41.4013C89.2387 41.1768 89.0611 40.9112 88.9304 40.6044C88.8026 40.2976 88.7387 39.9766 88.7387 39.6413C88.7387 39.1811 88.858 38.7607 89.0966 38.38C89.3353 38.0021 89.6606 37.6996 90.0725 37.4723C90.4844 37.2479 90.9489 37.1357 91.466 37.1357C91.9489 37.1357 92.3964 37.2379 92.8083 37.4425C93.2202 37.6499 93.5512 37.9368 93.8012 38.3033C94.0512 38.6726 94.1762 39.1016 94.1762 39.5902ZM93.9035 39.5902C93.9035 39.1697 93.7941 38.7947 93.5753 38.4652C93.3566 38.1385 93.0625 37.88 92.6932 37.6896C92.3239 37.5021 91.9148 37.4084 91.466 37.4084C91.0057 37.4084 90.5895 37.5078 90.2174 37.7067C89.8481 37.9084 89.554 38.1783 89.3353 38.5163C89.1194 38.8572 89.0114 39.2379 89.0114 39.6584C89.0114 39.9908 89.0796 40.299 89.216 40.5831C89.3552 40.8672 89.5455 41.1087 89.787 41.3075C90.0285 41.5092 90.3026 41.6527 90.6094 41.7379C90.9191 41.826 91.2444 41.8374 91.5853 41.772C92.0966 41.6754 92.5242 41.5234 92.8679 41.3161C93.2117 41.1115 93.4702 40.8615 93.6435 40.5661C93.8168 40.2734 93.9035 39.9482 93.9035 39.5902Z" fill="black"/>
</g>
<defs>
<clipPath id="clip0_296_46">
<rect width="97" height="50" fill="white" transform="translate(0.32959 0.5)"/>
</clipPath>
</defs>
</svg>
