<svg version="1.2" xmlns="http://www.w3.org/2000/svg" viewBox="0 0 268 89" width="268" height="89">
	<title>workmark-svg</title>
	<style>
		.s0 { fill: #1d1d1b } 
	</style>
	<path id="Layer" fill-rule="evenodd" class="s0" d="m220.4 85.8v-81.9h16.5c6 0 10.8 1.8 14.2 5.7 3.5 3.8 5 9.2 5 15.9v38.7c0 4.6-0.7 8.5-2.2 11.8-1.5 3.2-3.7 5.7-6.7 7.4-2.9 1.7-6.4 2.4-10.3 2.4zm29.2-74.9q-4.4-5-12.8-5h-14.5v77.9h14.5q5.6 0 9.4-2.1 3.9-2.2 5.9-6.5 2-4.4 2-11v-38.7q0-9.7-4.5-14.6z"/>
	<path id="Layer" fill-rule="evenodd" class="s0" d="m189.3 85.8v-81.9h28v15.8h-11.8v16.7h10.7v15.8h-10.7v17.9h12.2v15.7zm14.2-13.8v-21.8h10.7v-11.8h-10.7v-20.7h11.8v-11.8h-24.1v77.9h24.4v-11.8z"/>
	<path id="Layer" fill-rule="evenodd" class="s0" d="m151 57.4h16.2v10.1c0 2.2 0.3 3.4 0.5 3.9 0.2 0.3 0.3 0.5 1 0.5 0.6 0 0.8-0.2 0.9-0.5l0.1-0.1c0.3-0.4 0.6-1.6 0.6-4 0-2.2-0.2-3.8-0.5-5-0.3-1.1-1-2.5-2.1-4.2v-0.1q-1.6-2.7-6-8.9-4.1-5.9-6.3-9.7-2.2-3.9-3.1-7.6-0.7-3.6-0.7-8.3c0-4.3 0.6-8 1.9-11.1 1.3-3.2 3.3-5.6 6-7.3 2.7-1.7 5.9-2.5 9.5-2.5 5.5 0 10 1.8 13.1 5.5 3.1 3.7 4.5 8.9 4.5 15.3v8.2h-16.2v-9.1c0-2.4-0.3-3.6-0.6-4.1-0.1-0.3-0.2-0.4-0.3-0.4 0 0-0.2-0.1-0.5-0.1-0.2 0-0.3 0-0.4 0.1 0 0-0.1 0.1-0.3 0.4-0.3 0.5-0.6 1.8-0.6 4.3q0.1 3.1 0.4 4.8c0.3 1 1 2.4 2 3.9q1.6 2.5 5.9 8.6 4.2 6 6.4 9.9 2.2 4 3.1 7.8 1 3.6 1 8.7c0 4.3-0.7 8.1-2.1 11.2-1.3 3.1-3.3 5.5-6 7.1-2.7 1.7-6 2.4-9.7 2.4-5.6 0-10.1-1.7-13.2-5.3-3.1-3.6-4.5-8.8-4.5-15.1zm32.6 0.7q-0.8-3.4-2.9-7.2-2.1-3.8-6.3-9.8-4.3-6-5.9-8.6-1.7-2.5-2.3-4.5-0.4-2-0.4-5.3 0-3.8 0.8-5.2 0.7-1.6 2.4-1.6 1.8 0 2.6 1.6 0.8 1.4 0.8 5v7.1h12.2v-6.2q0-9.2-4-14-4-4.8-11.6-4.8-5 0-8.4 2.2-3.5 2.1-5.3 6.4-1.8 4.2-1.8 10.3 0 4.6 0.7 7.9 0.8 3.4 2.9 7 2.1 3.7 6.2 9.6 4.4 6.2 6 9 1.8 2.7 2.4 4.8 0.5 2.1 0.5 5.5 0 3.6-0.9 5.1-0.7 1.4-2.6 1.4-1.9 0-2.7-1.4-0.8-1.5-0.8-4.9v-8.1h-12.2v7.3q0 9.1 4 13.8 4 4.7 11.7 4.7 5.2 0 8.7-2.1 3.4-2.1 5.2-6.3 1.9-4.2 1.9-10.4 0-4.9-0.9-8.3z"/>
	<path id="Layer" fill-rule="evenodd" class="s0" d="m112.9 57.4h16.2v10.1c0 2.2 0.3 3.4 0.5 3.9 0.2 0.3 0.3 0.5 1 0.5 0.6 0 0.8-0.2 0.9-0.5l0.1-0.1c0.3-0.4 0.6-1.6 0.6-4 0-2.2-0.2-3.8-0.5-5-0.3-1.1-1-2.5-2.1-4.2v-0.1q-1.6-2.7-6-8.9-4.1-5.9-6.3-9.7-2.2-3.9-3.1-7.6-0.7-3.6-0.7-8.3c0-4.3 0.6-8 1.9-11.1 1.3-3.2 3.3-5.6 6-7.3 2.7-1.7 5.9-2.5 9.5-2.5 5.5 0 10 1.8 13.1 5.5 3.1 3.7 4.5 8.9 4.5 15.3v8.2h-16.2v-9.1c0-2.4-0.3-3.6-0.6-4.1-0.1-0.3-0.2-0.4-0.3-0.4 0 0-0.2-0.1-0.5-0.1-0.2 0-0.3 0-0.4 0.1 0 0-0.1 0.1-0.3 0.4-0.3 0.5-0.6 1.8-0.6 4.3q0.1 3.1 0.4 4.8c0.3 1 1 2.4 2 3.9q1.6 2.5 5.9 8.6 4.2 6 6.4 9.9 2.2 4 3.1 7.8 1 3.6 1 8.7c0 4.3-0.7 8.1-2.1 11.2-1.3 3.1-3.3 5.5-6 7.1-2.7 1.7-6 2.4-9.7 2.4-5.6 0-10.1-1.7-13.2-5.3-3.1-3.6-4.5-8.8-4.5-15.1zm31.6 19.4q1.9-4.2 1.9-10.4 0-4.9-0.9-8.3-0.8-3.4-2.9-7.2-2.1-3.8-6.3-9.8-4.3-6-5.9-8.6-1.7-2.5-2.3-4.5-0.4-2-0.4-5.3 0-3.8 0.8-5.2 0.7-1.6 2.4-1.6 1.8 0 2.6 1.6 0.8 1.4 0.8 5v7.1h12.2v-6.2q0-9.2-4-14-4-4.8-11.6-4.8-5 0-8.5 2.2-3.4 2.1-5.2 6.4-1.8 4.2-1.8 10.3 0 4.6 0.7 7.9 0.8 3.4 2.9 7 2.1 3.7 6.2 9.6 4.4 6.2 6 9 1.8 2.7 2.4 4.8 0.5 2.1 0.5 5.5 0 3.6-0.9 5.1-0.7 1.4-2.6 1.4-1.9 0-2.7-1.4-0.8-1.5-0.8-4.9v-8.1h-12.2v7.3q0 9.1 4 13.8 4 4.7 11.7 4.7 5.2 0 8.7-2.1 3.4-2.1 5.2-6.3z"/>
	<path id="Layer" fill-rule="evenodd" class="s0" d="m82.6 85.8v-81.9h28v15.8h-11.8v16.7h10.6v15.8h-10.6v17.9h12.1v15.7zm14.2-13.8v-21.8h10.7v-11.8h-10.7v-20.7h11.8v-11.8h-24v77.9h24.3v-11.8z"/>
	<path id="Layer" fill-rule="evenodd" class="s0" d="m51.8 85.8v-81.9h16.1v66.2h12.2v15.7zm14.2-13.8v-66.1h-12.3v77.9h24.4v-11.8z"/>
	<path id="Layer" fill-rule="evenodd" class="s0" d="m12.5 85.8v-81.9h16.3c6.1 0 11 1.7 14.3 5.5 3.4 3.6 4.9 9.1 4.9 16.1v4.7c0 3.5-0.6 6.7-1.9 9.5q-1.3 2.7-3.2 4.7 2.2 2.1 3.5 5c1.4 2.8 2 6 2 9.7v5.1c0 7-1.5 12.6-4.9 16.3-3.3 3.6-8.2 5.3-14.2 5.3zm29.6-6.6q4.3-4.8 4.3-15v-5.1q0-5.2-1.8-8.9-1.2-2.6-3.2-4.4-0.7-0.7-1.6-1.3 0.8-0.6 1.6-1.3 1.7-1.8 2.9-4.3 1.7-3.7 1.7-8.7v-4.7q0-10.1-4.4-14.8-4.2-4.8-12.8-4.8h-14.3v77.9h14.8q8.5 0 12.8-4.6z"/>
	<path id="Layer" fill-rule="evenodd" class="s0" d="m33.7 16.8v21.9h-7v-21.9zm-1.9 2h-3.1v18h3.1z"/>
	<path id="Layer" fill-rule="evenodd" class="s0" d="m34.2 50.5v22.4h-7.5v-22.4zm-1.9 2h-3.6v18.5h3.6z"/>
	<path id="Layer" fill-rule="evenodd" class="s0" d="m241.9 17.1v55.5h-7.3v-55.5zm-1.9 2h-3.3v51.5h3.3z"/>
</svg>