<svg width="268" height="164" viewBox="0 0 268 164" fill="none" xmlns="http://www.w3.org/2000/svg">
<path fill-rule="evenodd" clip-rule="evenodd" d="M220.442 122.803V40.9348H236.881C242.856 40.9348 247.716 42.7427 251.146 46.5961C254.563 50.36 256.104 55.7764 256.104 62.4955V101.242C256.104 105.806 255.41 109.746 253.919 112.977C252.423 116.217 250.185 118.728 247.208 120.429L247.2 120.433L247.192 120.438C244.304 122.052 240.835 122.803 236.881 122.803H220.442ZM249.685 47.9099C246.716 44.5696 242.448 42.8995 236.881 42.8995H222.407V120.838H236.881C240.592 120.838 243.71 120.133 246.234 118.723C248.832 117.238 250.799 115.049 252.135 112.154C253.471 109.259 254.139 105.622 254.139 101.242V62.4955C254.139 56.0378 252.654 51.1759 249.685 47.9099Z" fill="#1D1D1B"/>
<path fill-rule="evenodd" clip-rule="evenodd" d="M189.339 122.803V40.9348H217.319V56.6664H205.516V73.4463H216.205V89.178H205.516V107.071H217.653V122.803H189.339ZM203.552 109.036V87.2133H214.24V75.4111H203.552V54.7017H215.354V42.8995H191.304V120.838H215.688V109.036H203.552Z" fill="#1D1D1B"/>
<path fill-rule="evenodd" clip-rule="evenodd" d="M151.014 94.3799H167.191V104.473C167.191 106.732 167.464 107.936 167.735 108.44C167.854 108.66 168.006 108.854 168.678 108.854C169.349 108.854 169.501 108.66 169.62 108.44L169.647 108.39L169.676 108.342C169.959 107.883 170.276 106.669 170.276 104.25C170.276 102.113 170.096 100.48 169.784 99.2942C169.487 98.1674 168.829 96.7738 167.711 95.0964L167.685 95.0575L167.661 95.0174C166.585 93.2244 164.615 90.2662 161.721 86.1108C158.962 82.1581 156.847 78.9138 155.395 76.393C153.911 73.8144 152.862 71.2968 152.29 68.8446L152.283 68.8141L152.277 68.7834C151.799 66.3953 151.57 63.625 151.57 60.4929C151.57 56.2312 152.189 52.5038 153.506 49.3757C154.827 46.2368 156.816 43.7817 159.503 42.1286C162.182 40.4065 165.386 39.6002 169.012 39.6002C174.505 39.6002 178.973 41.3591 182.098 45.0913C185.179 48.7722 186.564 53.974 186.564 60.3816V68.5814H170.387V59.4908C170.387 57.1448 170.111 55.911 169.842 55.412L169.828 55.3858L169.815 55.3592C169.693 55.1152 169.584 55.0279 169.521 54.9897C169.456 54.95 169.314 54.8865 169.012 54.8865C168.771 54.8865 168.667 54.9386 168.619 54.969C168.566 55.0025 168.452 55.0939 168.319 55.3592L168.306 55.3858L168.292 55.412C168.028 55.9016 167.747 57.195 167.747 59.7135C167.747 61.7635 167.888 63.333 168.135 64.4694C168.439 65.535 169.066 66.8525 170.101 68.4382C171.193 70.1134 173.142 72.9459 175.963 76.9541C178.8 80.9855 180.959 84.3147 182.417 86.9243C183.893 89.5642 184.934 92.141 185.505 94.6504C186.151 97.0877 186.453 100.004 186.453 103.359C186.453 107.697 185.797 111.475 184.393 114.617C183.064 117.687 181.069 120.093 178.389 121.736C175.701 123.383 172.424 124.141 168.678 124.141C163.136 124.141 158.63 122.436 155.495 118.778C152.4 115.167 151.014 110.029 151.014 103.693V94.3799ZM183.597 95.12C183.078 92.8189 182.113 90.4065 180.702 87.8828C179.292 85.3591 177.177 82.0931 174.356 78.0848C171.535 74.0765 169.568 71.2188 168.455 69.5115C167.341 67.8043 166.599 66.2826 166.228 64.9465C165.931 63.6104 165.783 61.8661 165.783 59.7135C165.783 57.1898 166.042 55.4454 166.562 54.4805C167.082 53.4413 167.898 52.9217 169.012 52.9217C170.199 52.9217 171.053 53.4413 171.572 54.4805C172.092 55.4454 172.352 57.1156 172.352 59.4908V66.6167H184.599V60.3816C184.599 54.2207 183.263 49.5444 180.591 46.3526C177.919 43.1608 174.059 41.5649 169.012 41.5649C165.671 41.5649 162.851 42.3072 160.55 43.7917C158.249 45.2021 156.504 47.3175 155.317 50.1382C154.129 52.9588 153.535 56.4104 153.535 60.4929C153.535 63.5362 153.758 66.1713 154.203 68.3981C154.723 70.6249 155.688 72.9631 157.098 75.4126C158.508 77.8621 160.587 81.0539 163.333 84.9879C166.228 89.1447 168.232 92.1509 169.346 94.0066C170.533 95.788 171.313 97.3839 171.684 98.7942C172.055 100.205 172.24 102.023 172.24 104.25C172.24 106.699 171.944 108.407 171.35 109.372C170.83 110.337 169.939 110.819 168.678 110.819C167.416 110.819 166.525 110.337 166.005 109.372C165.486 108.407 165.226 106.774 165.226 104.473V96.3447H152.978V103.693C152.978 109.78 154.315 114.382 156.987 117.5C159.659 120.617 163.556 122.176 168.678 122.176C172.166 122.176 175.061 121.471 177.362 120.06C179.663 118.65 181.408 116.572 182.595 113.825C183.857 111.005 184.488 107.516 184.488 103.359C184.488 100.093 184.191 97.3468 183.597 95.12Z" fill="#1D1D1B"/>
<path fill-rule="evenodd" clip-rule="evenodd" d="M112.914 94.3799H129.091V104.473C129.091 106.732 129.364 107.936 129.636 108.44C129.754 108.66 129.906 108.854 130.578 108.854C131.25 108.854 131.402 108.66 131.52 108.44L131.547 108.39L131.577 108.342C131.86 107.883 132.176 106.669 132.176 104.25C132.176 102.113 131.996 100.48 131.684 99.2942C131.388 98.1674 130.73 96.7738 129.611 95.0964L129.585 95.0575L129.561 95.0174C128.486 93.2244 126.515 90.2662 123.621 86.1108C120.862 82.1581 118.747 78.9138 117.296 76.393C115.811 73.8144 114.763 71.2968 114.19 68.8446L114.183 68.8141L114.177 68.7834C113.7 66.3953 113.471 63.625 113.471 60.4929C113.471 56.2312 114.089 52.5038 115.406 49.3757C116.728 46.2368 118.717 43.7817 121.404 42.1286C124.082 40.4065 127.286 39.6002 130.912 39.6002C136.405 39.6002 140.873 41.3591 143.998 45.0913C147.08 48.7722 148.465 53.974 148.465 60.3816V68.5814H132.288V59.4908C132.288 57.1448 132.012 55.911 131.743 55.412L131.729 55.3858L131.716 55.3592C131.594 55.1152 131.484 55.0279 131.422 54.9897C131.356 54.95 131.214 54.8865 130.912 54.8865C130.672 54.8865 130.567 54.9386 130.52 54.969C130.467 55.0025 130.353 55.0939 130.22 55.3592L130.207 55.3858L130.193 55.412C129.929 55.9016 129.648 57.195 129.648 59.7135C129.648 61.7635 129.789 63.333 130.035 64.4694C130.339 65.535 130.967 66.8525 132.001 68.4382C133.094 70.1134 135.043 72.9459 137.863 76.9541C140.7 80.9855 142.86 84.3147 144.318 86.9243C145.793 89.5642 146.835 92.141 147.406 94.6504C148.051 97.0877 148.353 100.004 148.353 103.359C148.353 107.697 147.697 111.474 146.294 114.616C144.964 117.686 142.969 120.093 140.289 121.736C137.601 123.383 134.325 124.141 130.578 124.141C125.037 124.141 120.531 122.436 117.396 118.778C114.3 115.167 112.914 110.029 112.914 103.693V94.3799ZM144.496 113.825C145.758 111.005 146.389 107.516 146.389 103.359C146.389 100.093 146.092 97.3468 145.498 95.12C144.978 92.8189 144.013 90.4065 142.603 87.8828C141.193 85.3591 139.077 82.0931 136.257 78.0848C133.436 74.0765 131.469 71.2188 130.355 69.5115C129.242 67.8043 128.5 66.2826 128.129 64.9465C127.832 63.6104 127.683 61.8661 127.683 59.7135C127.683 57.1898 127.943 55.4454 128.463 54.4805C128.982 53.4413 129.799 52.9217 130.912 52.9217C132.1 52.9217 132.953 53.4413 133.473 54.4805C133.993 55.4454 134.252 57.1156 134.252 59.4908V66.6167H146.5V60.3816C146.5 54.2207 145.164 49.5444 142.492 46.3526C139.819 43.1608 135.96 41.5649 130.912 41.5649C127.572 41.5649 124.751 42.3072 122.45 43.7917C120.149 45.2021 118.405 47.3175 117.217 50.1382C116.03 52.9588 115.436 56.4104 115.436 60.4929C115.436 63.5362 115.658 66.1713 116.104 68.3981C116.623 70.6249 117.588 72.9631 118.999 75.4126C120.409 77.8621 122.487 81.0539 125.234 84.9879C128.129 89.1447 130.133 92.1509 131.246 94.0066C132.434 95.788 133.213 97.3839 133.584 98.7942C133.956 100.205 134.141 102.023 134.141 104.25C134.141 106.699 133.844 108.407 133.25 109.372C132.731 110.337 131.84 110.819 130.578 110.819C129.316 110.819 128.426 110.337 127.906 109.372C127.386 108.407 127.127 106.774 127.127 104.473V96.3447H114.879V103.693C114.879 109.78 116.215 114.382 118.887 117.5C121.56 120.617 125.456 122.176 130.578 122.176C134.067 122.176 136.962 121.471 139.263 120.06C141.564 118.65 143.308 116.572 144.496 113.825Z" fill="#1D1D1B"/>
<path fill-rule="evenodd" clip-rule="evenodd" d="M82.5808 122.803V40.9348H110.56V56.6664H98.7579V73.4463H109.447V89.178H98.7579V107.071H110.894V122.803H82.5808ZM96.7931 109.036V87.2133H107.482V75.4111H96.7931V54.7017H108.595V42.8995H84.5456V120.838H108.929V109.036H96.7931Z" fill="#1D1D1B"/>
<path fill-rule="evenodd" clip-rule="evenodd" d="M51.7629 122.803V40.9348H67.94V107.071H80.0762V122.803H51.7629ZM65.9752 109.036V42.8995H53.7277V120.838H78.1114V109.036H65.9752Z" fill="#1D1D1B"/>
<path fill-rule="evenodd" clip-rule="evenodd" d="M12.5122 122.803V40.935H28.84C34.9064 40.935 39.7912 42.636 43.1004 46.3682C46.4719 50.0118 47.9513 55.5348 47.9513 62.4958V67.1721C47.9513 70.7269 47.359 73.9111 46.105 76.6697L46.1003 76.6802L46.0954 76.6906C45.248 78.4984 44.1909 80.0837 42.9167 81.4264C44.3757 82.7814 45.5452 84.4408 46.429 86.3783C47.77 89.1546 48.3966 92.4258 48.3966 96.1208V101.242C48.3966 108.219 46.9107 113.77 43.5465 117.48C40.2335 121.142 35.348 122.803 29.2853 122.803H12.5122ZM42.0896 116.162C44.9844 112.97 46.4319 107.997 46.4319 101.242V96.1208C46.4319 92.6321 45.838 89.663 44.6504 87.2135C43.8441 85.4397 42.7848 83.9577 41.4725 82.7678C40.9726 82.3145 40.436 81.9036 39.8627 81.5351C40.4002 81.1266 40.9065 80.6777 41.3817 80.1883C42.5472 78.9879 43.5254 77.544 44.3164 75.8567C45.4298 73.4072 45.9865 70.5123 45.9865 67.1721V62.4958C45.9865 55.7411 44.5391 50.805 41.6442 47.6874C38.8236 44.4957 34.5555 42.8998 28.84 42.8998H14.477V120.839H29.2853C35.0008 120.839 39.2689 119.28 42.0896 116.162Z" fill="#1D1D1B"/>
<path fill-rule="evenodd" clip-rule="evenodd" d="M31.777 55.7734H28.6918V73.7778H31.777V55.7734ZM26.7271 53.8086V75.7426H33.7417V53.8086H26.7271Z" fill="#1D1D1B"/>
<path fill-rule="evenodd" clip-rule="evenodd" d="M32.2222 89.512H28.6918V107.962H32.2222V89.512ZM26.7271 87.5472V109.927H34.187V87.5472H26.7271Z" fill="#1D1D1B"/>
<path fill-rule="evenodd" clip-rule="evenodd" d="M239.919 56.1087H236.612V107.627H239.919V56.1087ZM234.647 54.1439V109.592H241.884V54.1439H234.647Z" fill="#1D1D1B"/>
</svg>
