<svg width="305" height="304" viewBox="0 0 305 304" fill="none" xmlns="http://www.w3.org/2000/svg">
<path d="M276.166 236.917C292.777 212.773 302.5 183.522 302.5 152C302.5 69.1573 235.343 2 152.5 2C69.6573 2 2.5 69.1573 2.5 152C2.5 234.843 69.6573 302 152.5 302C183.921 302 213.086 292.339 237.186 275.825L290.5 290L276.166 236.917Z" stroke="#1D1D1B" stroke-width="4" stroke-linejoin="round"/>
<path fill-rule="evenodd" clip-rule="evenodd" d="M164.871 89.7386C145.087 55.472 113.145 36.8754 93.5267 48.2021C86.2243 52.4181 81.6586 60.1857 79.8243 70.0439C76.7306 86.6705 81.4065 109.244 93.8263 130.756C106.246 152.268 123.458 167.604 139.404 173.238C148.858 176.579 157.868 176.509 165.17 172.293C184.789 160.966 184.654 124.005 164.871 89.7386ZM135.581 90.4426C141.936 101.448 145.635 111.209 143.845 112.242C142.054 113.276 135.451 105.192 129.097 94.1862C122.743 83.1803 119.043 73.4202 120.834 72.3864C122.624 71.3527 129.227 79.4367 135.581 90.4426ZM128.339 121.195C130.13 120.161 126.43 110.401 120.076 99.3948C113.721 88.3889 107.119 80.3049 105.328 81.3387C103.538 82.3724 107.237 92.1326 113.591 103.138C119.946 114.144 126.548 122.228 128.339 121.195Z" fill="white"/>
<path d="M135.581 90.4426C141.936 101.448 145.635 111.209 143.845 112.242C142.054 113.276 135.451 105.192 129.097 94.1862C122.743 83.1803 119.043 73.4202 120.834 72.3864C122.624 71.3527 129.227 79.4367 135.581 90.4426Z" fill="black"/>
<path d="M120.076 99.3948C126.43 110.401 130.13 120.161 128.339 121.195C126.548 122.228 119.946 114.144 113.591 103.138C107.237 92.1326 103.538 82.3724 105.328 81.3387C107.119 80.3049 113.721 88.3889 120.076 99.3948Z" fill="black"/>
<path fill-rule="evenodd" clip-rule="evenodd" d="M164.871 89.7386C145.087 55.472 113.145 36.8754 93.5267 48.2021C86.2243 52.4181 81.6586 60.1857 79.8243 70.0439C76.7306 86.6705 81.4065 109.244 93.8263 130.756C106.246 152.268 123.458 167.604 139.404 173.238C148.858 176.579 157.868 176.509 165.17 172.293C184.789 160.966 184.654 124.005 164.871 89.7386ZM135.581 90.4426C141.936 101.448 145.635 111.209 143.845 112.242C142.054 113.276 135.451 105.192 129.097 94.1862C122.743 83.1803 119.043 73.4202 120.834 72.3864C122.624 71.3527 129.227 79.4367 135.581 90.4426ZM128.339 121.195C130.13 120.161 126.43 110.401 120.076 99.3948C113.721 88.3889 107.119 80.3049 105.328 81.3387C103.538 82.3724 107.237 92.1326 113.591 103.138C119.946 114.144 126.548 122.228 128.339 121.195Z" stroke="#1D1D1B" stroke-width="2" stroke-linejoin="round"/>
<path d="M135.581 90.4426C141.936 101.448 145.635 111.209 143.845 112.242C142.054 113.276 135.451 105.192 129.097 94.1862C122.743 83.1803 119.043 73.4202 120.834 72.3864C122.624 71.3527 129.227 79.4367 135.581 90.4426Z" stroke="#1D1D1B" stroke-width="2" stroke-linejoin="round"/>
<path d="M120.076 99.3948C126.43 110.401 130.13 120.161 128.339 121.195C126.548 122.228 119.946 114.144 113.591 103.138C107.237 92.1326 103.538 82.3724 105.328 81.3387C107.119 80.3049 113.721 88.3889 120.076 99.3948Z" stroke="#1D1D1B" stroke-width="2" stroke-linejoin="round"/>
<path d="M135.845 90.4426C142.199 101.448 145.899 111.209 144.108 112.242C142.318 113.276 135.715 105.192 129.361 94.1862C123.007 83.1803 119.307 73.4202 121.097 72.3864C122.888 71.3527 129.491 79.4367 135.845 90.4426Z" fill="black"/>
<path d="M120.339 99.3948C126.694 110.401 130.393 120.161 128.603 121.195C126.812 122.228 120.209 114.144 113.855 103.138C107.501 92.1325 103.801 82.3724 105.592 81.3387C107.382 80.3049 113.985 88.3889 120.339 99.3948Z" fill="black"/>
<path d="M165.434 172.293C185.052 160.966 184.918 124.005 165.134 89.7386C145.35 55.472 113.409 36.8754 93.7904 48.2021M165.434 172.293L134.423 190.197C114.804 201.524 82.8625 182.927 63.0786 148.66C43.2948 114.394 43.1606 77.4332 62.7789 66.1065L93.7904 48.2021M165.434 172.293C158.132 176.509 149.122 176.579 139.667 173.238C123.721 167.604 106.51 152.268 94.09 130.756C81.6701 109.244 76.9943 86.6705 80.088 70.0439C81.9223 60.1857 86.488 52.4181 93.7904 48.2021M162.111 107.509C165.075 121.496 160.682 135.086 149.967 141.272C139.253 147.458 125.288 144.467 114.656 134.907M162.111 107.509C163.303 107.703 164.228 107.172 164.518 106.251M162.111 107.509C160.92 107.315 159.803 106.45 159.241 105.39M114.656 134.907C114.228 136.036 113.306 136.572 112.363 136.363M114.656 134.907C115.084 133.778 114.894 132.379 114.257 131.362M120.339 99.3948C126.694 110.401 130.393 120.161 128.603 121.195C126.812 122.228 120.209 114.144 113.855 103.138C107.501 92.1325 103.801 82.3724 105.592 81.3387C107.382 80.3049 113.985 88.3889 120.339 99.3948ZM135.845 90.4426C142.199 101.448 145.899 111.209 144.108 112.242C142.318 113.276 135.715 105.192 129.361 94.1862C123.007 83.1803 119.307 73.4202 121.097 72.3864C122.888 71.3527 129.491 79.4367 135.845 90.4426Z" stroke="#1D1D1B" stroke-width="2" stroke-linejoin="round"/>
<path d="M63.0773 148.662C82.8612 182.928 114.803 201.525 134.421 190.198L165.433 172.294C158.13 176.51 149.121 176.58 139.666 173.239C123.72 167.605 106.509 152.269 94.0887 130.757C81.6688 109.245 76.993 86.6716 80.0867 70.0449C81.921 60.1867 86.4867 52.4191 93.7891 48.2031L62.7777 66.1076C43.1593 77.4342 43.2935 114.395 63.0773 148.662Z" fill="#CECECE" stroke="#1D1D1B" stroke-width="2" stroke-linejoin="round"/>
<path fill-rule="evenodd" clip-rule="evenodd" d="M154.129 154.92C173.913 120.654 205.855 102.057 225.473 113.384C232.776 117.6 237.341 125.367 239.176 135.226C242.269 151.852 237.594 174.426 225.174 195.938C212.754 217.45 195.542 232.786 179.596 238.42C170.142 241.76 161.132 241.69 153.83 237.474C134.211 226.148 134.346 189.187 154.129 154.92ZM183.419 155.624C177.064 166.63 173.365 176.39 175.155 177.424C176.946 178.458 183.549 170.374 189.903 159.368C196.257 148.362 199.957 138.602 198.166 137.568C196.376 136.534 189.773 144.618 183.419 155.624ZM190.661 186.376C188.87 185.342 192.57 175.582 198.924 164.576C205.279 153.571 211.881 145.487 213.672 146.52C215.462 147.554 211.763 157.314 205.409 168.32C199.054 179.326 192.452 187.41 190.661 186.376Z" fill="white"/>
<path d="M183.419 155.624C177.064 166.63 173.365 176.39 175.155 177.424C176.946 178.458 183.549 170.374 189.903 159.368C196.257 148.362 199.957 138.602 198.166 137.568C196.376 136.534 189.773 144.618 183.419 155.624Z" fill="black"/>
<path d="M198.924 164.576C192.57 175.582 188.87 185.342 190.661 186.376C192.452 187.41 199.054 179.326 205.409 168.32C211.763 157.314 215.462 147.554 213.672 146.52C211.881 145.487 205.279 153.571 198.924 164.576Z" fill="black"/>
<path fill-rule="evenodd" clip-rule="evenodd" d="M154.129 154.92C173.913 120.654 205.855 102.057 225.473 113.384C232.776 117.6 237.341 125.367 239.176 135.226C242.269 151.852 237.594 174.426 225.174 195.938C212.754 217.45 195.542 232.786 179.596 238.42C170.142 241.76 161.132 241.69 153.83 237.474C134.211 226.148 134.346 189.187 154.129 154.92ZM183.419 155.624C177.064 166.63 173.365 176.39 175.155 177.424C176.946 178.458 183.549 170.374 189.903 159.368C196.257 148.362 199.957 138.602 198.166 137.568C196.376 136.534 189.773 144.618 183.419 155.624ZM190.661 186.376C188.87 185.342 192.57 175.582 198.924 164.576C205.279 153.571 211.881 145.487 213.672 146.52C215.462 147.554 211.763 157.314 205.409 168.32C199.054 179.326 192.452 187.41 190.661 186.376Z" stroke="#1D1D1B" stroke-width="2" stroke-linejoin="round"/>
<path d="M183.419 155.624C177.064 166.63 173.365 176.39 175.155 177.424C176.946 178.458 183.549 170.374 189.903 159.368C196.257 148.362 199.957 138.602 198.166 137.568C196.376 136.534 189.773 144.618 183.419 155.624Z" stroke="#1D1D1B" stroke-width="2" stroke-linejoin="round"/>
<path d="M198.924 164.576C192.57 175.582 188.87 185.342 190.661 186.376C192.452 187.41 199.054 179.326 205.409 168.32C211.763 157.314 215.462 147.554 213.672 146.52C211.881 145.487 205.279 153.571 198.924 164.576Z" stroke="#1D1D1B" stroke-width="2" stroke-linejoin="round"/>
<path d="M183.155 155.624C176.801 166.63 173.101 176.39 174.892 177.424C176.682 178.458 183.285 170.374 189.639 159.368C195.993 148.362 199.693 138.602 197.903 137.568C196.112 136.534 189.509 144.618 183.155 155.624Z" fill="black"/>
<path d="M198.661 164.576C192.306 175.582 188.607 185.342 190.397 186.376C192.188 187.41 198.791 179.326 205.145 168.32C211.499 157.314 215.199 147.554 213.408 146.52C211.618 145.487 205.015 153.571 198.661 164.576Z" fill="black"/>
<path d="M153.566 237.474C133.948 226.148 134.082 189.187 153.866 154.92C173.65 120.654 205.591 102.057 225.21 113.384M153.566 237.474L184.577 255.379C204.196 266.705 236.138 248.109 255.921 213.842C275.705 179.575 275.839 142.615 256.221 131.288L225.21 113.384M153.566 237.474C160.868 241.69 169.878 241.76 179.333 238.42C195.279 232.786 212.49 217.45 224.91 195.938C237.33 174.426 242.006 151.852 238.912 135.226C237.078 125.367 232.512 117.6 225.21 113.384M156.889 172.691C153.925 186.678 158.318 200.268 169.033 206.454C179.747 212.639 193.712 209.649 204.344 200.089M156.889 172.691C155.697 172.885 154.772 172.354 154.482 171.432M156.889 172.691C158.08 172.496 159.197 171.632 159.759 170.572M204.344 200.089C204.772 201.218 205.694 201.753 206.637 201.544M204.344 200.089C203.916 198.96 204.106 197.561 204.743 196.543M198.661 164.576C192.306 175.582 188.607 185.342 190.397 186.376C192.188 187.41 198.791 179.326 205.145 168.32C211.499 157.314 215.199 147.554 213.408 146.52C211.618 145.487 205.015 153.571 198.661 164.576ZM183.155 155.624C176.801 166.63 173.101 176.39 174.892 177.424C176.682 178.458 183.285 170.374 189.639 159.368C195.993 148.362 199.693 138.602 197.903 137.568C196.112 136.534 189.509 144.618 183.155 155.624Z" stroke="#1D1D1B" stroke-width="2" stroke-linejoin="round"/>
<path d="M255.923 213.843C236.139 248.11 204.197 266.706 184.579 255.38L153.567 237.475C160.87 241.691 169.879 241.761 179.334 238.421C195.28 232.787 212.491 217.451 224.911 195.939C237.331 174.427 242.007 151.853 238.913 135.227C237.079 125.368 232.513 117.601 225.211 113.385L256.222 131.289C275.841 142.616 275.707 179.577 255.923 213.843Z" fill="#7AE39D" stroke="#1D1D1B" stroke-width="2" stroke-linejoin="round"/>
</svg>
