<svg width="308" height="200" viewBox="0 0 308 200" fill="none" xmlns="http://www.w3.org/2000/svg">
<g clip-path="url(#clip0_4692_1671)">
<path d="M106.047 11.0535L47.5273 69.5735L89.5482 111.595L148.069 53.0751L106.047 11.0535Z" fill="#FFFACD"/>
<path d="M24.571 152.853L11.0352 188.947H128.341L114.806 152.853H24.571Z" fill="white"/>
<path d="M106.047 11.0535L47.5273 69.5735L89.5482 111.595L148.069 53.0751L106.047 11.0535Z" stroke="#1D1D1B" stroke-width="16.6667"/>
<path d="M118.816 82.3344L189.002 152.52" stroke="#1D1D1B" stroke-width="16.6667"/>
<path d="M24.571 152.853L11.0352 188.947H128.341L114.806 152.853H24.571Z" stroke="#1D1D1B" stroke-width="16.6667"/>
</g>
<path d="M228.832 50L270.499 8.33337H299.665V37.5L257.999 79.1667L228.832 50Z" fill="#FFFACD"/>
<path d="M228.832 25L216.332 37.5L228.832 50L253.832 25H228.832Z" fill="white"/>
<path d="M283 79.1667L270.5 91.6667L258 79.1667L283 54.1667V79.1667Z" fill="white"/>
<path d="M228.832 50L270.499 8.33337H299.665V37.5L257.999 79.1667L228.832 50Z" stroke="#1D1D1B" stroke-width="8.33333"/>
<path d="M228.832 25L216.332 37.5L228.832 50L253.832 25H228.832Z" stroke="#1D1D1B" stroke-width="8.33333"/>
<path d="M283 79.1667L270.5 91.6667L258 79.1667L283 54.1667V79.1667Z" stroke="#1D1D1B" stroke-width="8.33333"/>
<path d="M235.082 72.9171L216.332 91.6671" stroke="#1D1D1B" stroke-width="8.33333"/>
<path d="M247.583 85.4167L239.25 93.75" stroke="#1D1D1B" stroke-width="8.33333"/>
<path d="M222.583 60.4171L214.25 68.7504" stroke="#1D1D1B" stroke-width="8.33333"/>
<path d="M276.815 31.1849L268.352 39.6484" stroke="#1D1D1B" stroke-width="8.33333"/>
<defs>
<clipPath id="clip0_4692_1671">
<rect width="200" height="200" fill="white"/>
</clipPath>
</defs>
</svg>
