<svg width="308" height="200" viewBox="0 0 308 200" fill="none" xmlns="http://www.w3.org/2000/svg">
<path d="M90.2445 23.5701L100.008 33.3332L109.771 23.5701C114.191 19.1498 120.186 16.6665 126.438 16.6665C139.455 16.6665 150.008 27.2193 150.008 40.2368C150.008 46.4879 147.524 52.4831 143.104 56.9034L100.008 99.9998L56.9114 56.9034C52.4911 52.4831 50.0078 46.4879 50.0078 40.2368C50.0078 27.2193 60.5606 16.6665 73.5781 16.6665C79.8292 16.6665 85.8245 19.1498 90.2445 23.5701Z" fill="#06F881"/>
<path d="M23.5755 109.763L33.3385 99.9998L23.5755 90.2364C19.1551 85.8164 16.6719 79.8212 16.6719 73.57C16.6719 60.5525 27.2246 49.9998 40.2421 49.9998C46.4933 49.9998 52.4885 52.483 56.9088 56.9033L100.005 99.9998L56.9088 143.096C52.4885 147.516 46.4933 150 40.2421 150C27.2246 150 16.6719 139.447 16.6719 126.43C16.6719 120.178 19.1551 114.183 23.5755 109.763Z" fill="#06F881"/>
<path d="M176.438 109.763L166.674 99.9998L176.438 90.2364C180.858 85.8164 183.341 79.8212 183.341 73.57C183.341 60.5525 172.789 49.9998 159.771 49.9998C153.519 49.9998 147.524 52.483 143.104 56.9033L100.008 99.9998L143.104 143.096C147.524 147.516 153.519 150 159.771 150C172.789 150 183.341 139.447 183.341 126.43C183.341 120.178 180.858 114.183 176.438 109.763Z" fill="#06F881"/>
<path d="M90.2445 23.5701L100.008 33.3332L109.771 23.5701C114.191 19.1498 120.186 16.6665 126.438 16.6665C139.455 16.6665 150.008 27.2193 150.008 40.2368C150.008 46.4879 147.524 52.4831 143.104 56.9034L100.008 99.9998L56.9114 56.9034C52.4911 52.4831 50.0078 46.4879 50.0078 40.2368C50.0078 27.2193 60.5606 16.6665 73.5781 16.6665C79.8292 16.6665 85.8245 19.1498 90.2445 23.5701Z" stroke="#1D1D1B" stroke-width="16.6667"/>
<path d="M23.5755 109.763L33.3385 99.9998L23.5755 90.2364C19.1551 85.8164 16.6719 79.8212 16.6719 73.57C16.6719 60.5525 27.2246 49.9998 40.2421 49.9998C46.4933 49.9998 52.4885 52.483 56.9088 56.9033L100.005 99.9998L56.9088 143.096C52.4885 147.516 46.4933 150 40.2421 150C27.2246 150 16.6719 139.447 16.6719 126.43C16.6719 120.178 19.1551 114.183 23.5755 109.763Z" stroke="#1D1D1B" stroke-width="16.6667"/>
<path d="M176.438 109.763L166.674 99.9998L176.438 90.2364C180.858 85.8164 183.341 79.8212 183.341 73.57C183.341 60.5525 172.789 49.9998 159.771 49.9998C153.519 49.9998 147.524 52.483 143.104 56.9033L100.008 99.9998L143.104 143.096C147.524 147.516 153.519 150 159.771 150C172.789 150 183.341 139.447 183.341 126.43C183.341 120.178 180.858 114.183 176.438 109.763Z" stroke="#1D1D1B" stroke-width="16.6667"/>
<path d="M100.008 99.9998V191.666" stroke="#1D1D1B" stroke-width="16.6667"/>
<path d="M234.835 25.1574C232.592 24.0316 230.822 21.9891 230.121 19.3745L228.942 14.9766L213.551 19.1011L223.408 55.8895H226.6L234.835 25.1574Z" fill="white"/>
<path d="M254.075 6.13916L234.043 80.9L282.418 93.8616L302.45 19.1012L287.058 14.9767L286.469 17.1754C285.167 22.0333 280.174 24.9158 275.317 23.6142C270.459 22.3125 267.576 17.3196 268.878 12.4621L269.467 10.2633L254.075 6.13916Z" fill="#06F881"/>
<path d="M254.075 6.13916L234.043 80.9L282.418 93.8616L302.45 19.1012L287.058 14.9767L286.469 17.1754C285.167 22.0333 280.174 24.9158 275.317 23.6142C270.459 22.3125 267.576 17.3196 268.878 12.4621L269.467 10.2633L254.075 6.13916Z" stroke="#1D1D1B" stroke-width="8.33333"/>
<path d="M234.406 24.9279C232.367 23.7654 230.776 21.8204 230.121 19.3746L228.942 14.9771L213.551 19.1012L224.27 59.1062" stroke="#1D1D1B" stroke-width="8.33333"/>
<path d="M247.16 31.9397L258.144 34.8826" stroke="#1D1D1B" stroke-width="8.33333"/>
<path d="M266.953 37.2397L275.749 39.5964" stroke="#1D1D1B" stroke-width="8.33333"/>
<path d="M284.531 41.9526L295.541 44.9031" stroke="#1D1D1B" stroke-width="8.33333"/>
</svg>
