<svg width="302" height="301" viewBox="0 0 302 301" fill="none" xmlns="http://www.w3.org/2000/svg">
<path d="M2.57674 211.396L2.57673 93.9701M2.57674 211.396L205.964 211.396C247.768 211.396 283.152 195.529 295.035 173.657C297.805 168.559 299.298 163.135 299.298 157.51M2.57674 211.396L2.57673 126.264M2.57674 211.396L2.57673 243.69M2.57673 93.9701C2.57673 64.2096 44.3635 40.084 95.9101 40.084C147.457 40.084 189.243 64.2096 189.243 93.9701L189.243 103.624L205.964 103.624C257.511 103.624 299.298 127.75 299.298 157.51M2.57673 93.9701L2.57673 126.264M299.298 157.51L299.298 189.815M299.298 157.51L299.298 189.804M2.57673 243.69L2.57673 126.264M2.57673 243.69L205.964 243.69C257.505 243.69 299.287 219.571 299.298 189.815M299.298 189.804C299.298 189.808 299.298 189.812 299.298 189.815M299.298 189.804L299.298 189.815" stroke="#1D1D1B" stroke-width="4" stroke-linejoin="round"/>
<path d="M205.964 211.397L2.57623 211.397L2.57622 243.691L205.964 243.691C257.504 243.691 299.287 219.572 299.297 189.816L299.297 189.805L299.297 157.511C299.297 163.136 297.804 168.56 295.035 173.658C283.152 195.53 247.767 211.397 205.964 211.397Z" fill="#7AE39D" stroke="#1D1D1B" stroke-width="4" stroke-linejoin="round"/>
<path d="M2.57673 126.264L2.57674 211.396L205.964 211.396C247.768 211.396 283.152 195.529 295.035 173.657C297.805 168.559 299.298 163.135 299.298 157.51C299.298 127.75 257.511 103.624 205.964 103.624L189.243 103.624L189.243 93.9701C189.243 64.2096 147.457 40.084 95.9101 40.084C44.3635 40.084 2.57673 64.2096 2.57673 93.9701L2.57673 126.264Z" stroke="#1D1D1B" stroke-width="4" stroke-linejoin="round"/>
</svg>
