<svg width="302" height="301" viewBox="0 0 302 301" fill="none" xmlns="http://www.w3.org/2000/svg">
<path d="M7.27334 245.036C-4.89713 228.307 7.07486 200.098 34.0135 182.029C60.9522 163.961 92.6564 162.876 104.827 179.605M7.27334 245.036C19.4438 261.765 51.148 260.68 78.0867 242.612C105.025 224.544 116.997 196.335 104.827 179.605M7.27334 245.036L20.8762 263.734C22.6794 266.213 24.9115 268.301 27.4934 270M104.827 179.605L118.43 198.304C120.233 200.783 121.506 203.513 122.279 206.426M27.429 269.912C27.4504 269.941 27.4719 269.971 27.4934 270M122.215 206.337C122.237 206.367 122.258 206.396 122.279 206.426M122.279 206.426C126.724 223.17 114.637 245.919 91.6896 261.31C68.7423 276.701 42.3371 279.769 27.4934 270M122.279 206.426C122.312 206.471 122.345 206.517 122.378 206.562M27.4934 270C38.7861 285.462 56.5379 293.943 74.5905 294.336M245.14 7.16955C228.41 -5.00093 200.201 6.97106 182.133 33.9097C164.065 60.8484 162.98 92.5526 179.709 104.723M245.14 7.16955C261.869 19.34 260.784 51.0442 242.716 77.9829C224.648 104.922 196.439 116.894 179.709 104.723M245.14 7.16955L263.838 20.7724C266.317 22.5756 268.405 24.8077 270.104 27.3896M179.709 104.723L198.408 118.326C200.886 120.129 203.617 121.402 206.53 122.176M270.015 27.3252C270.045 27.3467 270.074 27.3681 270.104 27.3896M206.441 122.111C206.471 122.133 206.5 122.154 206.53 122.176M206.53 122.176C223.274 126.62 246.023 114.533 261.414 91.5858C276.805 68.6385 279.873 42.2333 270.104 27.3896M206.53 122.176C206.552 122.192 206.575 122.208 206.598 122.225M270.104 27.3896C285.698 38.7786 294.191 56.7374 294.448 74.9487M240.974 132.867C238.832 151.418 227.184 180.42 203.802 203.802C180.454 227.15 151.501 238.798 132.967 240.984M240.974 132.867C229.179 133.256 217.106 129.817 206.598 122.225M240.974 132.867C257.911 132.307 274.273 123.851 284.6 108.453C291.427 98.2741 294.612 86.5601 294.448 74.9487M132.967 240.984C133.381 229.178 129.96 217.088 122.378 206.562M132.967 240.984C132.373 257.88 123.92 274.192 108.557 284.496C98.2428 291.414 86.3528 294.592 74.5905 294.336M122.378 206.562C140.238 202.455 159.265 191.858 175.562 175.562C191.905 159.218 202.516 140.129 206.598 122.225M294.448 74.9487C306.565 114.4 281.474 177.232 229.353 229.353C177.074 281.632 114.019 306.716 74.5905 294.336M24.5701 233.435C17.8087 224.141 26.4216 207.153 43.8076 195.492C61.1935 183.831 80.7688 181.913 87.5302 191.207C94.2915 200.501 85.6786 217.488 68.2927 229.149C50.9067 240.81 31.3314 242.729 24.5701 233.435ZM233.539 24.4663C224.245 17.7049 207.257 26.3178 195.596 43.7038C183.935 61.0897 182.016 80.665 191.31 87.4264C200.605 94.1878 217.592 85.5748 229.253 68.1889C240.914 50.8029 242.833 31.2276 233.539 24.4663Z" stroke="#1D1D1B" stroke-width="4" stroke-linejoin="round"/>
<path d="M43.8034 195.492C26.4174 207.153 17.8045 224.14 24.5659 233.434C31.3272 242.729 50.9025 240.81 68.2885 229.149C85.6744 217.488 94.2873 200.5 87.526 191.206C80.7646 181.912 61.1893 183.831 43.8034 195.492Z" fill="white"/>
<path fill-rule="evenodd" clip-rule="evenodd" d="M245.136 7.1692C228.406 -5.00127 200.197 6.97071 182.129 33.9094C164.061 60.848 162.976 92.5523 179.705 104.723C196.434 116.893 224.643 104.921 242.712 77.9826C260.78 51.0439 261.865 19.3397 245.136 7.1692ZM195.592 43.7034C207.253 26.3175 224.24 17.7046 233.534 24.4659C242.829 31.2273 240.91 50.8026 229.249 68.1885C217.588 85.5745 200.6 94.1874 191.306 87.426C182.012 80.6647 183.931 61.0894 195.592 43.7034Z" fill="white"/>
<path fill-rule="evenodd" clip-rule="evenodd" d="M24.5659 233.434C17.8045 224.14 26.4174 207.153 43.8034 195.492C61.1893 183.831 80.7646 181.912 87.526 191.206C94.2873 200.5 85.6744 217.488 68.2885 229.149C50.9025 240.81 31.3272 242.729 24.5659 233.434Z" fill="white"/>
<path fill-rule="evenodd" clip-rule="evenodd" d="M34.0093 182.029C7.07066 200.097 -4.90134 228.306 7.26915 245.036C19.4396 261.765 51.1438 260.68 78.0825 242.612C105.021 224.543 116.993 196.334 104.823 179.605C92.6522 162.876 60.948 163.961 34.0093 182.029ZM43.8034 195.492C26.4174 207.153 17.8045 224.14 24.5659 233.434C31.3272 242.729 50.9025 240.81 68.2885 229.149C85.6744 217.488 94.2873 200.5 87.526 191.206C80.7646 181.912 61.1893 183.831 43.8034 195.492Z" fill="white"/>
<path d="M43.8034 195.492C26.4174 207.153 17.8045 224.14 24.5659 233.434C31.3272 242.729 50.9025 240.81 68.2885 229.149C85.6744 217.488 94.2873 200.5 87.526 191.206C80.7646 181.912 61.1893 183.831 43.8034 195.492Z" stroke="#1D1D1B" stroke-width="4" stroke-linejoin="round"/>
<path fill-rule="evenodd" clip-rule="evenodd" d="M245.136 7.1692C228.406 -5.00127 200.197 6.97071 182.129 33.9094C164.061 60.848 162.976 92.5523 179.705 104.723C196.434 116.893 224.643 104.921 242.712 77.9826C260.78 51.0439 261.865 19.3397 245.136 7.1692ZM195.592 43.7034C207.253 26.3175 224.24 17.7046 233.534 24.4659C242.829 31.2273 240.91 50.8026 229.249 68.1885C217.588 85.5745 200.6 94.1874 191.306 87.426C182.012 80.6647 183.931 61.0894 195.592 43.7034Z" stroke="#1D1D1B" stroke-width="4" stroke-linejoin="round"/>
<path fill-rule="evenodd" clip-rule="evenodd" d="M24.5659 233.434C17.8045 224.14 26.4174 207.153 43.8034 195.492C61.1893 183.831 80.7646 181.912 87.526 191.206C94.2873 200.5 85.6744 217.488 68.2885 229.149C50.9025 240.81 31.3272 242.729 24.5659 233.434Z" stroke="#1D1D1B" stroke-width="4" stroke-linejoin="round"/>
<path fill-rule="evenodd" clip-rule="evenodd" d="M34.0093 182.029C7.07066 200.097 -4.90134 228.306 7.26915 245.036C19.4396 261.765 51.1438 260.68 78.0825 242.612C105.021 224.543 116.993 196.334 104.823 179.605C92.6522 162.876 60.948 163.961 34.0093 182.029ZM43.8034 195.492C26.4174 207.153 17.8045 224.14 24.5659 233.434C31.3272 242.729 50.9025 240.81 68.2885 229.149C85.6744 217.488 94.2873 200.5 87.526 191.206C80.7646 181.912 61.1893 183.831 43.8034 195.492Z" stroke="#1D1D1B" stroke-width="4" stroke-linejoin="round"/>
<path d="M233.541 24.4656C224.247 17.7043 207.26 26.3172 195.599 43.7032C183.938 61.0891 182.019 80.6644 191.313 87.4258C200.607 94.1871 217.595 85.5742 229.256 68.1883C240.917 50.8023 242.835 31.227 233.541 24.4656Z" fill="#7AE39D"/>
<path d="M24.5727 233.434C17.8113 224.14 26.4242 207.153 43.8102 195.492C61.1961 183.831 80.7714 181.912 87.5328 191.206C94.2942 200.5 85.6812 217.488 68.2953 229.149C50.9093 240.81 31.334 242.728 24.5727 233.434Z" fill="#7AE39D"/>
<path d="M233.541 24.4656C224.247 17.7043 207.26 26.3172 195.599 43.7032C183.938 61.0891 182.019 80.6644 191.313 87.4258C200.607 94.1871 217.595 85.5742 229.256 68.1883C240.917 50.8023 242.835 31.227 233.541 24.4656Z" stroke="#1D1D1B" stroke-width="4" stroke-linejoin="round"/>
<path d="M24.5727 233.434C17.8113 224.14 26.4242 207.153 43.8102 195.492C61.1961 183.831 80.7714 181.912 87.5328 191.206C94.2942 200.5 85.6812 217.488 68.2953 229.149C50.9093 240.81 31.334 242.728 24.5727 233.434Z" stroke="#1D1D1B" stroke-width="4" stroke-linejoin="round"/>
<path d="M104.829 179.607C117 196.336 105.028 224.545 78.0892 242.613C51.1505 260.681 19.4463 261.767 7.27586 245.037L20.8787 263.736C22.6819 266.214 24.9141 268.302 27.4959 270.001C42.3396 279.771 68.7448 276.703 91.6921 261.312C114.639 245.921 126.726 223.171 122.282 206.427C121.509 203.515 120.236 200.784 118.432 198.305L104.829 179.607Z" fill="white"/>
<path d="M179.712 104.724C196.441 116.895 224.65 104.923 242.718 77.9842C260.786 51.0456 261.872 19.3413 245.142 7.17085L263.841 20.7737C266.319 22.5769 268.407 24.809 270.106 27.3909C279.876 42.2346 276.808 68.6398 261.417 91.5871C246.026 114.534 223.276 126.621 206.532 122.177C203.62 121.404 200.889 120.131 198.41 118.327L179.712 104.724Z" fill="white"/>
<path d="M104.829 179.607C117 196.336 105.028 224.545 78.0892 242.613C51.1505 260.681 19.4463 261.767 7.27586 245.037L20.8787 263.736C22.6819 266.214 24.9141 268.302 27.4959 270.001C42.3396 279.771 68.7448 276.703 91.6921 261.312C114.639 245.921 126.726 223.171 122.282 206.427C121.509 203.515 120.236 200.784 118.432 198.305L104.829 179.607Z" stroke="#1D1D1B" stroke-width="4" stroke-linejoin="round"/>
<path d="M179.712 104.724C196.441 116.895 224.65 104.923 242.718 77.9842C260.786 51.0456 261.872 19.3413 245.142 7.17085L263.841 20.7737C266.319 22.5769 268.407 24.809 270.106 27.3909C279.876 42.2346 276.808 68.6398 261.417 91.5871C246.026 114.534 223.276 126.621 206.532 122.177C203.62 121.404 200.889 120.131 198.41 118.327L179.712 104.724Z" stroke="#1D1D1B" stroke-width="4" stroke-linejoin="round"/>
<path d="M122.279 206.425C126.723 223.169 114.636 245.919 91.6889 261.31C68.7416 276.701 42.3364 279.769 27.4928 269.999C38.7855 285.462 56.5372 293.943 74.5898 294.336C86.3521 294.591 98.2422 291.414 108.556 284.496C123.92 274.191 132.372 257.879 132.966 240.983C133.381 229.178 129.959 217.087 122.377 206.561C122.344 206.516 122.312 206.471 122.279 206.425Z" fill="white"/>
<path d="M206.529 122.175C223.273 126.619 246.022 114.532 261.413 91.5851C276.805 68.6378 279.872 42.2326 270.103 27.389C285.697 38.778 294.191 56.7368 294.448 74.948C294.611 86.5594 291.427 98.2734 284.599 108.453C274.272 123.85 257.91 132.306 240.974 132.866C229.179 133.256 217.105 129.816 206.597 122.224C206.574 122.208 206.552 122.191 206.529 122.175Z" fill="white"/>
<path d="M122.279 206.425C126.723 223.169 114.636 245.919 91.6889 261.31C68.7416 276.701 42.3364 279.769 27.4928 269.999C38.7855 285.462 56.5372 293.943 74.5898 294.336C86.3521 294.591 98.2422 291.414 108.556 284.496C123.92 274.191 132.372 257.879 132.966 240.983C133.381 229.178 129.959 217.087 122.377 206.561C122.344 206.516 122.312 206.471 122.279 206.425Z" stroke="#1D1D1B" stroke-width="4" stroke-linejoin="round"/>
<path d="M206.529 122.175C223.273 126.619 246.022 114.532 261.413 91.5851C276.805 68.6378 279.872 42.2326 270.103 27.389C285.697 38.778 294.191 56.7368 294.448 74.948C294.611 86.5594 291.427 98.2734 284.599 108.453C274.272 123.85 257.91 132.306 240.974 132.866C229.179 133.256 217.105 129.816 206.597 122.224C206.574 122.208 206.552 122.191 206.529 122.175Z" stroke="#1D1D1B" stroke-width="4" stroke-linejoin="round"/>
<path d="M203.8 203.802C227.182 180.42 238.83 151.417 240.972 132.866C229.177 133.256 217.103 129.816 206.595 122.225C202.514 140.129 191.903 159.218 175.56 175.561C159.263 191.858 140.235 202.455 122.376 206.562C129.957 217.088 133.379 229.178 132.964 240.984C151.499 238.798 180.452 227.15 203.8 203.802Z" fill="white" stroke="#1D1D1B" stroke-width="4" stroke-linejoin="round"/>
<path d="M240.971 132.866C238.829 151.417 227.181 180.42 203.799 203.801C180.451 227.149 151.498 238.797 132.963 240.983C132.37 257.879 123.917 274.191 108.554 284.496C98.2396 291.413 86.3496 294.591 74.5873 294.335C114.015 306.716 177.071 281.631 229.35 229.352C281.471 177.231 306.562 114.399 294.445 74.948C294.609 86.5594 291.424 98.2734 284.597 108.453C274.269 123.85 257.907 132.306 240.971 132.866Z" fill="white" stroke="#1D1D1B" stroke-width="4" stroke-linejoin="round"/>
<ellipse cx="2.39057" cy="1.32704" rx="2.39057" ry="1.32704" transform="matrix(-0.830496 0.557025 -0.588287 -0.808652 60.7227 216.916)" fill="#1D1D1B"/>
<ellipse cx="2.39057" cy="1.32704" rx="2.39057" ry="1.32704" transform="matrix(-0.830496 0.557025 -0.588287 -0.808652 57.7949 212.894)" fill="#1D1D1B"/>
<ellipse cx="2.39057" cy="1.32704" rx="2.39057" ry="1.32704" transform="matrix(-0.830496 0.557025 -0.588287 -0.808652 54.8652 208.867)" fill="#1D1D1B"/>
<ellipse cx="1.65816" cy="2.17402" rx="1.65816" ry="2.17402" transform="matrix(-1.0064 -0.158937 0.611322 -0.777252 50.3809 221.439)" fill="#1D1D1B"/>
<ellipse cx="1.65816" cy="2.17402" rx="1.65816" ry="2.17402" transform="matrix(-1.0064 -0.158937 0.611322 -0.777252 60.3535 208.769)" fill="#1D1D1B"/>
<ellipse cx="1.65816" cy="2.17402" rx="1.65816" ry="2.17402" transform="matrix(0.190928 -0.962001 0.970418 -0.283643 44.6875 217.675)" fill="#1D1D1B"/>
<ellipse cx="1.65816" cy="2.17402" rx="1.65816" ry="2.17402" transform="matrix(0.190928 -0.962001 0.970418 -0.283643 60.5117 213.051)" fill="#1D1D1B"/>
<ellipse cx="2.55616" cy="1.41897" rx="2.55616" ry="1.41897" transform="matrix(0.557025 -0.830496 -0.808652 -0.588287 216.684 61.6084)" fill="#1D1D1B"/>
<ellipse cx="2.55616" cy="1.41897" rx="2.55616" ry="1.41897" transform="matrix(0.557025 -0.830496 -0.808652 -0.588287 212.377 58.4775)" fill="#1D1D1B"/>
<ellipse cx="2.55616" cy="1.41897" rx="2.55616" ry="1.41897" transform="matrix(0.557025 -0.830496 -0.808652 -0.588287 208.072 55.3486)" fill="#1D1D1B"/>
<ellipse cx="1.77302" cy="2.32461" rx="1.77302" ry="2.32461" transform="matrix(-0.158937 -1.0064 -0.777252 0.611322 221.518 50.5557)" fill="#1D1D1B"/>
<ellipse cx="1.77302" cy="2.32461" rx="1.77302" ry="2.32461" transform="matrix(-0.158937 -1.0064 -0.777252 0.611322 207.965 61.2129)" fill="#1D1D1B"/>
<ellipse cx="1.77302" cy="2.32462" rx="1.77302" ry="2.32462" transform="matrix(-0.962001 0.190928 -0.283643 0.970418 217.488 44.4668)" fill="#1D1D1B"/>
<ellipse cx="1.77302" cy="2.32462" rx="1.77302" ry="2.32462" transform="matrix(-0.962001 0.190928 -0.283643 0.970418 212.547 61.3838)" fill="#1D1D1B"/>
</svg>
