<svg width="301" height="304" viewBox="0 0 301 304" fill="none" xmlns="http://www.w3.org/2000/svg">
<path d="M243.88 36.4262C243.88 100.256 149.9 152 149.9 152M243.88 36.4262H254.9V2H44.9004V36.4262H55.9208M243.88 36.4262H55.9208M149.9 152C149.9 152 55.9208 100.256 55.9208 36.4262M149.9 152C149.9 152 55.9208 203.744 55.9208 267.574M149.9 152C149.9 152 243.88 203.744 243.88 267.574M55.9208 267.574H44.9004L44.9004 302L254.9 302V267.574H243.88M55.9208 267.574L243.88 267.574" stroke="#1D1D1B" stroke-width="4" stroke-linejoin="round"/>
<path d="M152.149 261.264L152.116 224.398C152.107 215.055 159.675 207.487 169.018 207.496C178.361 207.504 185.942 215.085 185.951 224.429L185.954 227.46L188.985 227.462C198.328 227.471 205.909 235.052 205.917 244.395C205.926 253.738 198.358 261.306 189.015 261.297L152.149 261.264Z" fill="#7AE39D"/>
<path d="M107.023 226.277L132.786 219.349C139.316 217.593 146.023 221.465 147.767 227.998C149.511 234.53 145.632 241.249 139.102 243.005L136.984 243.575L137.55 245.694C139.294 252.226 135.415 258.946 128.885 260.702C122.356 262.457 115.649 258.585 113.905 252.053L107.023 226.277Z" fill="#665CFB"/>
<path d="M131.494 107.676L157.257 100.748C163.787 98.9921 170.494 102.864 172.238 109.397C173.982 115.93 170.102 122.649 163.573 124.405L161.455 124.974L162.021 127.093C163.765 133.626 159.885 140.345 153.356 142.101C146.827 143.857 140.12 139.985 138.376 133.452L131.494 107.676Z" fill="#7AE39D"/>
</svg>
