<svg width="304" height="304" viewBox="0 0 304 304" fill="none" xmlns="http://www.w3.org/2000/svg">
<path d="M275.666 236.917C292.277 212.773 302 183.522 302 152C302 69.1573 234.843 2 152 2C69.1573 2 2 69.1573 2 152C2 234.843 69.1573 302 152 302C183.421 302 212.586 292.339 236.686 275.825L290 290L275.666 236.917Z" stroke="#6157FF" stroke-width="4" stroke-linejoin="round"/>
<path fill-rule="evenodd" clip-rule="evenodd" d="M164.373 89.7381C144.589 55.4715 112.647 36.8749 93.0286 48.2016C85.7263 52.4176 81.1606 60.1852 79.3263 70.0434C76.2326 86.67 80.9084 109.244 93.3283 130.756C105.748 152.267 122.96 167.604 138.906 173.238C148.36 176.578 157.37 176.508 164.672 172.292C184.291 160.965 184.156 124.005 164.373 89.7381ZM135.083 90.4421C141.438 101.448 145.137 111.208 143.347 112.242C141.556 113.276 134.953 105.192 128.599 94.1858C122.245 83.1798 118.545 73.4197 120.336 72.386C122.126 71.3522 128.729 79.4362 135.083 90.4421ZM127.841 121.194C129.631 120.16 125.932 110.4 119.578 99.3943C113.223 88.3884 106.621 80.3044 104.83 81.3382C103.04 82.372 106.739 92.1321 113.093 103.138C119.448 114.144 126.05 122.228 127.841 121.194Z" fill="white"/>
<path d="M135.083 90.4421C141.438 101.448 145.137 111.208 143.347 112.242C141.556 113.276 134.953 105.192 128.599 94.1858C122.245 83.1798 118.545 73.4197 120.336 72.386C122.126 71.3522 128.729 79.4362 135.083 90.4421Z" fill="black"/>
<path d="M119.578 99.3943C125.932 110.4 129.631 120.16 127.841 121.194C126.05 122.228 119.448 114.144 113.093 103.138C106.739 92.1321 103.04 82.372 104.83 81.3382C106.621 80.3044 113.223 88.3884 119.578 99.3943Z" fill="black"/>
<path fill-rule="evenodd" clip-rule="evenodd" d="M164.373 89.7381C144.589 55.4715 112.647 36.8749 93.0286 48.2016C85.7263 52.4176 81.1606 60.1852 79.3263 70.0434C76.2326 86.67 80.9084 109.244 93.3283 130.756C105.748 152.267 122.96 167.604 138.906 173.238C148.36 176.578 157.37 176.508 164.672 172.292C184.291 160.965 184.156 124.005 164.373 89.7381ZM135.083 90.4421C141.438 101.448 145.137 111.208 143.347 112.242C141.556 113.276 134.953 105.192 128.599 94.1858C122.245 83.1798 118.545 73.4197 120.336 72.386C122.126 71.3522 128.729 79.4362 135.083 90.4421ZM127.841 121.194C129.631 120.16 125.932 110.4 119.578 99.3943C113.223 88.3884 106.621 80.3044 104.83 81.3382C103.04 82.372 106.739 92.1321 113.093 103.138C119.448 114.144 126.05 122.228 127.841 121.194Z" stroke="#1D1D1B" stroke-width="2" stroke-linejoin="round"/>
<path d="M135.083 90.4421C141.438 101.448 145.137 111.208 143.347 112.242C141.556 113.276 134.953 105.192 128.599 94.1858C122.245 83.1798 118.545 73.4197 120.336 72.386C122.126 71.3522 128.729 79.4362 135.083 90.4421Z" stroke="#1D1D1B" stroke-width="2" stroke-linejoin="round"/>
<path d="M119.578 99.3943C125.932 110.4 129.631 120.16 127.841 121.194C126.05 122.228 119.448 114.144 113.093 103.138C106.739 92.1321 103.04 82.372 104.83 81.3382C106.621 80.3044 113.223 88.3884 119.578 99.3943Z" stroke="#1D1D1B" stroke-width="2" stroke-linejoin="round"/>
<path d="M135.345 90.4421C141.699 101.448 145.399 111.208 143.608 112.242C141.818 113.276 135.215 105.192 128.861 94.1858C122.507 83.1798 118.807 73.4197 120.597 72.386C122.388 71.3522 128.991 79.4362 135.345 90.4421Z" fill="black"/>
<path d="M119.839 99.3943C126.194 110.4 129.893 120.16 128.103 121.194C126.312 122.228 119.709 114.144 113.355 103.138C107.001 92.1321 103.301 82.372 105.092 81.3382C106.882 80.3044 113.485 88.3884 119.839 99.3943Z" fill="black"/>
<path d="M164.934 172.292C184.552 160.965 184.418 124.005 164.634 89.7381C144.85 55.4715 112.909 36.8749 93.2904 48.2016M164.934 172.292L133.923 190.196C114.304 201.523 82.3625 182.927 62.5786 148.66C42.7948 114.393 42.6606 77.4327 62.2789 66.106L93.2904 48.2016M164.934 172.292C157.632 176.508 148.622 176.578 139.167 173.238C123.221 167.604 106.01 152.267 93.59 130.756C81.1701 109.244 76.4943 86.67 79.588 70.0434C81.4223 60.1852 85.988 52.4176 93.2904 48.2016M161.611 107.508C164.575 121.496 160.182 135.086 149.467 141.272C138.753 147.457 124.788 144.467 114.156 134.907M161.611 107.508C162.803 107.703 163.728 107.171 164.018 106.25M161.611 107.508C160.42 107.314 159.303 106.45 158.741 105.39M114.156 134.907C113.728 136.036 112.806 136.571 111.863 136.362M114.156 134.907C114.584 133.778 114.394 132.378 113.757 131.361M119.839 99.3943C126.194 110.4 129.893 120.16 128.103 121.194C126.312 122.228 119.709 114.144 113.355 103.138C107.001 92.1321 103.301 82.372 105.092 81.3382C106.882 80.3044 113.485 88.3884 119.839 99.3943ZM135.345 90.4421C141.699 101.448 145.399 111.208 143.608 112.242C141.818 113.276 135.215 105.192 128.861 94.1858C122.507 83.1798 118.807 73.4197 120.597 72.386C122.388 71.3522 128.991 79.4362 135.345 90.4421Z" stroke="#1D1D1B" stroke-width="2" stroke-linejoin="round"/>
<path d="M62.5812 148.66C82.3651 182.927 114.307 201.523 133.925 190.197L164.937 172.292C157.634 176.508 148.625 176.579 139.17 173.238C123.224 167.604 106.013 152.268 93.5926 130.756C81.1728 109.244 76.4969 86.6704 79.5906 70.0437C81.4249 60.1855 85.9906 52.4179 93.293 48.2019L62.2816 66.1063C42.6632 77.433 42.7974 114.394 62.5812 148.66Z" fill="#CECECE" stroke="#1D1D1B" stroke-width="2" stroke-linejoin="round"/>
<path fill-rule="evenodd" clip-rule="evenodd" d="M153.627 154.92C173.411 120.654 205.353 102.057 224.971 113.384C232.274 117.6 236.839 125.367 238.674 135.226C241.767 151.852 237.092 174.426 224.672 195.938C212.252 217.45 195.04 232.786 179.094 238.42C169.64 241.76 160.63 241.69 153.328 237.474C133.709 226.148 133.844 189.187 153.627 154.92ZM182.917 155.624C176.562 166.63 172.863 176.39 174.653 177.424C176.444 178.458 183.047 170.374 189.401 159.368C195.755 148.362 199.455 138.602 197.664 137.568C195.874 136.534 189.271 144.618 182.917 155.624ZM190.159 186.376C188.369 185.342 192.068 175.582 198.422 164.576C204.777 153.571 211.379 145.487 213.17 146.52C214.96 147.554 211.261 157.314 204.907 168.32C198.552 179.326 191.95 187.41 190.159 186.376Z" fill="white"/>
<path d="M182.917 155.624C176.562 166.63 172.863 176.39 174.653 177.424C176.444 178.458 183.047 170.374 189.401 159.368C195.755 148.362 199.455 138.602 197.664 137.568C195.874 136.534 189.271 144.618 182.917 155.624Z" fill="black"/>
<path d="M198.422 164.576C192.068 175.582 188.369 185.342 190.159 186.376C191.95 187.41 198.552 179.326 204.907 168.32C211.261 157.314 214.96 147.554 213.17 146.52C211.379 145.487 204.777 153.571 198.422 164.576Z" fill="black"/>
<path fill-rule="evenodd" clip-rule="evenodd" d="M153.627 154.92C173.411 120.654 205.353 102.057 224.971 113.384C232.274 117.6 236.839 125.367 238.674 135.226C241.767 151.852 237.092 174.426 224.672 195.938C212.252 217.45 195.04 232.786 179.094 238.42C169.64 241.76 160.63 241.69 153.328 237.474C133.709 226.148 133.844 189.187 153.627 154.92ZM182.917 155.624C176.562 166.63 172.863 176.39 174.653 177.424C176.444 178.458 183.047 170.374 189.401 159.368C195.755 148.362 199.455 138.602 197.664 137.568C195.874 136.534 189.271 144.618 182.917 155.624ZM190.159 186.376C188.369 185.342 192.068 175.582 198.422 164.576C204.777 153.571 211.379 145.487 213.17 146.52C214.96 147.554 211.261 157.314 204.907 168.32C198.552 179.326 191.95 187.41 190.159 186.376Z" stroke="#1D1D1B" stroke-width="2" stroke-linejoin="round"/>
<path d="M182.917 155.624C176.562 166.63 172.863 176.39 174.653 177.424C176.444 178.458 183.047 170.374 189.401 159.368C195.755 148.362 199.455 138.602 197.664 137.568C195.874 136.534 189.271 144.618 182.917 155.624Z" stroke="#1D1D1B" stroke-width="2" stroke-linejoin="round"/>
<path d="M198.422 164.576C192.068 175.582 188.369 185.342 190.159 186.376C191.95 187.41 198.552 179.326 204.907 168.32C211.261 157.314 214.96 147.554 213.17 146.52C211.379 145.487 204.777 153.571 198.422 164.576Z" stroke="#1D1D1B" stroke-width="2" stroke-linejoin="round"/>
<path d="M182.655 155.624C176.301 166.63 172.601 176.39 174.392 177.424C176.182 178.458 182.785 170.374 189.139 159.368C195.493 148.362 199.193 138.602 197.403 137.568C195.612 136.534 189.009 144.618 182.655 155.624Z" fill="black"/>
<path d="M198.161 164.576C191.806 175.582 188.107 185.342 189.897 186.376C191.688 187.41 198.291 179.326 204.645 168.32C210.999 157.314 214.699 147.554 212.908 146.52C211.118 145.487 204.515 153.571 198.161 164.576Z" fill="black"/>
<path d="M153.066 237.474C133.448 226.148 133.582 189.187 153.366 154.92C173.15 120.654 205.091 102.057 224.71 113.384M153.066 237.474L184.077 255.379C203.696 266.705 235.638 248.109 255.421 213.842C275.205 179.575 275.339 142.615 255.721 131.288L224.71 113.384M153.066 237.474C160.368 241.69 169.378 241.76 178.833 238.42C194.779 232.786 211.99 217.45 224.41 195.938C236.83 174.426 241.506 151.852 238.412 135.226C236.578 125.367 232.012 117.6 224.71 113.384M156.389 172.691C153.425 186.678 157.818 200.268 168.533 206.454C179.247 212.639 193.212 209.649 203.844 200.089M156.389 172.691C155.197 172.885 154.272 172.354 153.982 171.432M156.389 172.691C157.58 172.496 158.697 171.632 159.259 170.572M203.844 200.089C204.272 201.218 205.194 201.753 206.137 201.544M203.844 200.089C203.416 198.96 203.606 197.561 204.243 196.543M198.161 164.576C191.806 175.582 188.107 185.342 189.897 186.376C191.688 187.41 198.291 179.326 204.645 168.32C210.999 157.314 214.699 147.554 212.908 146.52C211.118 145.487 204.515 153.571 198.161 164.576ZM182.655 155.624C176.301 166.63 172.601 176.39 174.392 177.424C176.182 178.458 182.785 170.374 189.139 159.368C195.493 148.362 199.193 138.602 197.403 137.568C195.612 136.534 189.009 144.618 182.655 155.624Z" stroke="#1D1D1B" stroke-width="2" stroke-linejoin="round"/>
<path d="M255.419 213.842C235.635 248.109 203.693 266.706 184.075 255.379L153.063 237.474C160.366 241.69 169.375 241.761 178.83 238.42C194.776 232.786 211.987 217.45 224.407 195.938C236.827 174.426 241.503 151.852 238.409 135.226C236.575 125.368 232.009 117.6 224.707 113.384L255.718 131.288C275.337 142.615 275.203 179.576 255.419 213.842Z" fill="#06F881" stroke="#1D1D1B" stroke-width="2" stroke-linejoin="round"/>
</svg>
