<svg width="94" height="98" viewBox="0 0 94 98" fill="none" xmlns="http://www.w3.org/2000/svg">
<path fill-rule="evenodd" clip-rule="evenodd" d="M19.8462 33.29C30.3976 15.0145 47.4332 5.09632 57.8963 11.1372C61.7909 13.3857 64.2259 17.5284 65.2042 22.7862C66.8542 31.6537 64.3604 43.693 57.7365 55.166C51.1126 66.639 41.9331 74.8183 33.4286 77.8231C28.3862 79.6048 23.581 79.5673 19.6864 77.3188C9.22326 71.2779 9.29481 51.5655 19.8462 33.29ZM35.4672 33.6655C32.0782 39.5353 30.1051 44.7407 31.0601 45.292C32.015 45.8434 35.5365 41.5319 38.9254 35.6621C42.3143 29.7923 44.2875 24.5869 43.3325 24.0355C42.3775 23.4842 38.8561 27.7957 35.4672 33.6655ZM39.3298 50.0665C38.3748 49.5152 40.3479 44.3098 43.7369 38.44C47.1258 32.5702 50.6472 28.2587 51.6022 28.81C52.5572 29.3614 50.5841 34.5668 47.1951 40.4366C43.8062 46.3064 40.2847 50.6179 39.3298 50.0665Z" fill="white"/>
<path d="M35.4672 33.6655C32.0782 39.5353 30.1051 44.7407 31.0601 45.292C32.015 45.8434 35.5365 41.5319 38.9254 35.6621C42.3143 29.7923 44.2875 24.5869 43.3325 24.0355C42.3775 23.4842 38.8561 27.7957 35.4672 33.6655Z" fill="black"/>
<path d="M43.7369 38.44C40.3479 44.3098 38.3748 49.5152 39.3298 50.0665C40.2847 50.6179 43.8062 46.3064 47.1951 40.4366C50.5841 34.5668 52.5572 29.3614 51.6022 28.81C50.6472 28.2587 47.1258 32.5702 43.7369 38.44Z" fill="black"/>
<path fill-rule="evenodd" clip-rule="evenodd" d="M19.8462 33.29C30.3976 15.0145 47.4332 5.09632 57.8963 11.1372C61.7909 13.3857 64.2259 17.5284 65.2042 22.7862C66.8542 31.6537 64.3604 43.693 57.7365 55.166C51.1126 66.639 41.9331 74.8183 33.4286 77.8231C28.3862 79.6048 23.581 79.5673 19.6864 77.3188C9.22326 71.2779 9.29481 51.5655 19.8462 33.29ZM35.4672 33.6655C32.0782 39.5353 30.1051 44.7407 31.0601 45.292C32.015 45.8434 35.5365 41.5319 38.9254 35.6621C42.3143 29.7923 44.2875 24.5869 43.3325 24.0355C42.3775 23.4842 38.8561 27.7957 35.4672 33.6655ZM39.3298 50.0665C38.3748 49.5152 40.3479 44.3098 43.7369 38.44C47.1258 32.5702 50.6472 28.2587 51.6022 28.81C52.5572 29.3614 50.5841 34.5668 47.1951 40.4366C43.8062 46.3064 40.2847 50.6179 39.3298 50.0665Z" stroke="#1D1D1B" stroke-width="1.72541" stroke-linejoin="round"/>
<path d="M35.4672 33.6655C32.0782 39.5353 30.1051 44.7407 31.0601 45.292C32.015 45.8434 35.5365 41.5319 38.9254 35.6621C42.3143 29.7923 44.2875 24.5869 43.3325 24.0355C42.3775 23.4842 38.8561 27.7957 35.4672 33.6655Z" stroke="#1D1D1B" stroke-width="1.72541" stroke-linejoin="round"/>
<path d="M43.7369 38.44C40.3479 44.3098 38.3748 49.5152 39.3298 50.0665C40.2847 50.6179 43.8062 46.3064 47.1951 40.4366C50.5841 34.5668 52.5572 29.3614 51.6022 28.81C50.6472 28.2587 47.1258 32.5702 43.7369 38.44Z" stroke="#1D1D1B" stroke-width="1.72541" stroke-linejoin="round"/>
<path d="M35.3265 33.6655C31.9376 39.5353 29.9645 44.7407 30.9194 45.292C31.8744 45.8434 35.3958 41.5319 38.7848 35.6621C42.1737 29.7923 44.1468 24.5869 43.1919 24.0355C42.2369 23.4842 38.7155 27.7957 35.3265 33.6655Z" fill="black"/>
<path d="M43.5962 38.44C40.2073 44.3098 38.2342 49.5152 39.1891 50.0665C40.1441 50.6179 43.6655 46.3064 47.0545 40.4366C50.4434 34.5668 52.4166 29.3614 51.4616 28.81C50.5066 28.2587 46.9852 32.5702 43.5962 38.44Z" fill="black"/>
<path d="M19.5457 77.3188C9.08263 71.2779 9.15419 51.5655 19.7056 33.29C30.257 15.0145 47.2926 5.09632 57.7557 11.1372M19.5457 77.3188L36.0852 86.8678C46.5483 92.9087 63.5839 82.9905 74.1353 64.715C84.6867 46.4395 84.7582 26.7271 74.2951 20.6862L57.7557 11.1372M19.5457 77.3188C23.4403 79.5673 28.2455 79.6048 33.288 77.8231C41.7925 74.8183 50.9719 66.639 57.5959 55.166C64.2198 43.693 66.7136 31.6537 65.0636 22.7862C64.0853 17.5284 61.6503 13.3857 57.7557 11.1372M21.3179 42.7675C19.7375 50.2273 22.0803 57.4754 27.7946 60.7745C33.5088 64.0736 40.9572 62.4786 46.6274 57.38M21.3179 42.7675C20.6824 42.8711 20.189 42.5878 20.0341 42.0964M21.3179 42.7675C21.9534 42.6639 22.5489 42.203 22.8489 41.6375M46.6274 57.38C46.8554 57.9821 47.3474 58.2677 47.8504 58.1562M46.6274 57.38C46.3993 56.7778 46.5006 56.0315 46.8404 55.489M43.5962 38.44C40.2073 44.3098 38.2342 49.5152 39.1891 50.0665C40.1441 50.6179 43.6655 46.3064 47.0545 40.4366C50.4434 34.5668 52.4166 29.3614 51.4616 28.81C50.5066 28.2587 46.9852 32.5702 43.5962 38.44ZM35.3265 33.6655C31.9376 39.5353 29.9645 44.7407 30.9194 45.292C31.8744 45.8434 35.3958 41.5319 38.7848 35.6621C42.1737 29.7923 44.1468 24.5869 43.1919 24.0355C42.2369 23.4842 38.7155 27.7957 35.3265 33.6655Z" stroke="#1D1D1B" stroke-width="1.72541" stroke-linejoin="round"/>
<path d="M74.1354 64.7155C63.5841 82.991 46.5484 92.9092 36.0853 86.8683L19.5459 77.3193C23.4405 79.5678 28.2457 79.6053 33.2882 77.8236C41.7927 74.8188 50.9721 66.6395 57.596 55.1665C64.22 43.6935 66.7137 31.6542 65.0638 22.7867C64.0855 17.5289 61.6504 13.3862 57.7559 11.1377L74.2953 20.6867C84.7584 26.7276 84.6868 46.44 74.1354 64.7155Z" fill="#7AE39D" stroke="#1D1D1B" stroke-width="0.862703" stroke-linejoin="round"/>
</svg>
