<svg width="180" height="38" viewBox="0 0 180 38" fill="none" xmlns="http://www.w3.org/2000/svg">
<path fill-rule="evenodd" clip-rule="evenodd" d="M66.3766 2.86151C62.7025 -0.953837 56.7457 -0.953837 53.0717 2.86151L44.4235 11.8423C40.7495 15.6577 40.7495 21.8436 44.4235 25.6589L53.0717 34.6397C56.7457 38.4551 62.7025 38.4551 66.3766 34.6397L75.0248 25.6589C78.6988 21.8436 78.6988 15.6577 75.0248 11.8423L66.3766 2.86151ZM59.1725 10.2383C60.1011 9.29502 60.1175 7.74864 59.2091 6.78436C58.3008 5.82008 56.8117 5.80305 55.8831 6.74633L50.1754 12.5445C46.8075 15.9658 46.8075 21.5355 50.1754 24.9567L55.8831 30.7549C56.8117 31.6982 58.3008 31.6812 59.2091 30.7169C60.1175 29.7526 60.1011 28.2062 59.1725 27.263L53.4648 21.4648C51.983 19.9595 51.983 17.5417 53.4648 16.0365L59.1725 10.2383Z" fill="black"/>
<path fill-rule="evenodd" clip-rule="evenodd" d="M24.7086 2.86176C21.0346 -0.953594 15.0778 -0.953594 11.4037 2.86176L2.75553 11.8426C-0.91851 15.6579 -0.91851 21.8438 2.75553 25.6592L11.4037 34.64C15.0778 38.4553 21.0346 38.4553 24.7086 34.64L33.3568 25.6592C37.0308 21.8438 37.0308 15.6579 33.3568 11.8426L24.7086 2.86176ZM18.7634 10.2385C17.8349 9.29527 17.8185 7.74889 18.7268 6.7846C19.6352 5.82032 21.1243 5.8033 22.0528 6.74658L27.7606 12.5448C31.1285 15.966 31.1285 21.5357 27.7606 24.957L22.0528 30.7552C21.1243 31.6984 19.6352 31.6814 18.7268 30.7171C17.8185 29.7529 17.8349 28.2065 18.7634 27.2632L24.4712 21.465C25.953 19.9598 25.953 17.542 24.4712 16.0367L18.7634 10.2385Z" fill="black"/>
<path d="M93.2521 19.0008C93.0681 19.0008 92.8961 18.9688 92.7361 18.9048C92.5841 18.8328 92.4481 18.7408 92.3281 18.6288C92.2161 18.5168 92.1241 18.3848 92.0521 18.2328C91.9881 18.0728 91.9561 17.9007 91.9561 17.7167V4.92419C91.9561 4.74018 91.9881 4.57218 92.0521 4.42017C92.1241 4.26016 92.2161 4.12416 92.3281 4.01215C92.4481 3.89215 92.5841 3.80014 92.7361 3.73614C92.8961 3.67214 93.0681 3.64014 93.2521 3.64014H93.3001H98.7603C99.3524 3.64014 99.9044 3.75214 100.416 3.97615C100.936 4.20016 101.388 4.50417 101.772 4.88819C102.156 5.27221 102.457 5.72423 102.673 6.24425C102.897 6.76427 103.009 7.31629 103.009 7.90032C103.009 8.45234 102.909 8.98036 102.709 9.48439C102.517 9.98841 102.248 10.4444 101.904 10.8524C102.417 11.2925 102.821 11.8245 103.117 12.4485C103.421 13.0645 103.573 13.7326 103.573 14.4526C103.573 15.0926 103.449 15.6887 103.201 16.2407C102.961 16.7927 102.629 17.2727 102.204 17.6807C101.788 18.0888 101.296 18.4128 100.728 18.6528C100.168 18.8848 99.5644 19.0008 98.9164 19.0008H93.2521ZM94.5602 12.3525V16.3967H98.8203C99.1164 16.3967 99.3924 16.3407 99.6484 16.2287C99.9124 16.1087 100.14 15.9487 100.332 15.7487C100.532 15.5486 100.688 15.3206 100.8 15.0646C100.912 14.8086 100.968 14.5406 100.968 14.2606C100.968 13.9726 100.908 13.7126 100.788 13.4806C100.676 13.2405 100.52 13.0405 100.32 12.8805C100.128 12.7125 99.9004 12.5845 99.6364 12.4965C99.3804 12.4005 99.1084 12.3525 98.8203 12.3525H94.5602ZM94.5602 6.24425V9.7484H98.6643C98.9044 9.7404 99.1284 9.6884 99.3364 9.59239C99.5444 9.48839 99.7244 9.35638 99.8764 9.19637C100.036 9.03637 100.16 8.85236 100.248 8.64435C100.344 8.43634 100.392 8.21633 100.392 7.98432C100.392 7.74431 100.344 7.5203 100.248 7.31229C100.152 7.10428 100.02 6.92028 99.8524 6.76027C99.6924 6.60026 99.5044 6.47626 99.2884 6.38825C99.0724 6.29225 98.8443 6.24425 98.6043 6.24425H94.5602Z" fill="black"/>
<path d="M104.72 13.4206C104.72 12.6285 104.872 11.8885 105.176 11.2005C105.48 10.5044 105.892 9.89638 106.412 9.37636C106.932 8.85634 107.536 8.44832 108.224 8.15231C108.92 7.8483 109.66 7.69629 110.444 7.69629C111.236 7.69629 111.976 7.8483 112.664 8.15231C113.36 8.44832 113.964 8.85634 114.477 9.37636C114.997 9.89638 115.405 10.5044 115.701 11.2005C116.005 11.8885 116.157 12.6285 116.157 13.4206V17.6687C116.157 17.8527 116.121 18.0247 116.049 18.1848C115.985 18.3448 115.893 18.4848 115.773 18.6048C115.653 18.7248 115.509 18.8208 115.341 18.8928C115.181 18.9648 115.009 19.0008 114.825 19.0008C114.513 19.0008 114.249 18.9088 114.032 18.7248C113.816 18.5408 113.672 18.3088 113.6 18.0287C113.144 18.3728 112.648 18.6448 112.112 18.8448C111.584 19.0448 111.028 19.1448 110.444 19.1448C109.66 19.1448 108.92 18.9968 108.224 18.7008C107.536 18.3968 106.932 17.9847 106.412 17.4647C105.892 16.9447 105.48 16.3367 105.176 15.6406C104.872 14.9446 104.72 14.2046 104.72 13.4206ZM107.324 13.4206C107.324 13.8446 107.404 14.2486 107.564 14.6326C107.732 15.0086 107.956 15.3406 108.236 15.6286C108.524 15.9087 108.856 16.1327 109.232 16.3007C109.608 16.4607 110.012 16.5407 110.444 16.5407C110.876 16.5407 111.28 16.4607 111.656 16.3007C112.04 16.1327 112.372 15.9087 112.652 15.6286C112.932 15.3406 113.152 15.0086 113.312 14.6326C113.472 14.2486 113.552 13.8446 113.552 13.4206C113.552 12.9885 113.472 12.5845 113.312 12.2085C113.152 11.8245 112.932 11.4925 112.652 11.2125C112.372 10.9324 112.04 10.7124 111.656 10.5524C111.28 10.3844 110.876 10.3004 110.444 10.3004C110.02 10.3004 109.616 10.3844 109.232 10.5524C108.856 10.7124 108.524 10.9324 108.236 11.2125C107.956 11.4925 107.732 11.8245 107.564 12.2085C107.404 12.5845 107.324 12.9885 107.324 13.4206Z" fill="black"/>
<path d="M120.966 17.7167C120.966 17.9007 120.93 18.0728 120.858 18.2328C120.794 18.3848 120.706 18.5168 120.594 18.6288C120.482 18.7408 120.35 18.8328 120.198 18.9048C120.046 18.9688 119.882 19.0008 119.706 19.0008C119.522 19.0008 119.346 18.9688 119.178 18.9048C119.018 18.8328 118.878 18.7408 118.758 18.6288C118.638 18.5168 118.542 18.3848 118.47 18.2328C118.398 18.0728 118.362 17.9007 118.362 17.7167V13.8406C118.362 13.0165 118.518 12.2405 118.83 11.5125C119.15 10.7844 119.582 10.1484 120.126 9.6044C120.67 9.06038 121.306 8.63236 122.034 8.32035C122.762 8.00033 123.534 7.84033 124.35 7.84033H124.374C124.806 7.84033 125.138 7.96433 125.37 8.21234C125.61 8.45235 125.73 8.76037 125.73 9.13638C125.73 9.32039 125.694 9.4924 125.622 9.6524C125.55 9.81241 125.45 9.95242 125.322 10.0724C125.202 10.1844 125.058 10.2764 124.89 10.3484C124.73 10.4124 124.558 10.4444 124.374 10.4444H124.35C123.894 10.4444 123.458 10.5324 123.042 10.7084C122.634 10.8844 122.278 11.1245 121.974 11.4285C121.67 11.7325 121.426 12.0885 121.242 12.4965C121.058 12.9045 120.966 13.3406 120.966 13.8046V17.7167Z" fill="black"/>
<path d="M129.793 7.84028H133.969C134.145 7.84028 134.313 7.87628 134.473 7.94828C134.633 8.02028 134.773 8.11629 134.893 8.23629C135.013 8.3563 135.109 8.4963 135.181 8.65631C135.253 8.81632 135.289 8.98432 135.289 9.16033C135.289 9.33634 135.253 9.50435 135.181 9.66435C135.117 9.81636 135.025 9.95237 134.905 10.0724C134.785 10.1844 134.645 10.2764 134.485 10.3484C134.325 10.4124 134.153 10.4444 133.969 10.4444H129.793V13.4806C129.793 13.9046 129.873 14.3046 130.033 14.6806C130.201 15.0486 130.425 15.3726 130.705 15.6526C130.985 15.9247 131.313 16.1407 131.689 16.3007C132.073 16.4607 132.481 16.5407 132.913 16.5407C133.297 16.5407 133.653 16.4887 133.981 16.3847C134.309 16.2727 134.613 16.0927 134.893 15.8447C134.981 15.7647 135.065 15.6967 135.145 15.6406C135.233 15.5766 135.333 15.5246 135.445 15.4846C135.645 15.4126 135.853 15.3926 136.069 15.4246C136.285 15.4486 136.489 15.5486 136.681 15.7247C136.825 15.8607 136.925 16.0167 136.981 16.1927C137.045 16.3607 137.069 16.5407 137.053 16.7327C137.045 16.9167 137.001 17.0967 136.921 17.2727C136.841 17.4487 136.729 17.6047 136.585 17.7407C136.105 18.2048 135.553 18.5568 134.929 18.7968C134.305 19.0288 133.633 19.1448 132.913 19.1448C132.121 19.1448 131.377 18.9968 130.681 18.7008C129.993 18.4048 129.389 18.0007 128.869 17.4887C128.349 16.9767 127.937 16.3767 127.633 15.6887C127.337 14.9926 127.189 14.2486 127.189 13.4566V5.75219C127.189 5.56818 127.221 5.39617 127.285 5.23616C127.357 5.07616 127.453 4.93615 127.573 4.81615C127.693 4.69614 127.833 4.60414 127.993 4.54014C128.153 4.46813 128.325 4.43213 128.509 4.43213C128.685 4.43213 128.849 4.46813 129.001 4.54014C129.161 4.60414 129.297 4.69614 129.409 4.81615C129.529 4.93615 129.621 5.07616 129.685 5.23616C129.757 5.39617 129.793 5.56818 129.793 5.75219V7.84028Z" fill="black"/>
<path d="M140.766 14.5846C140.87 14.8886 141.014 15.1606 141.198 15.4006C141.39 15.6406 141.61 15.8487 141.858 16.0247C142.106 16.1927 142.378 16.3247 142.674 16.4207C142.97 16.5087 143.282 16.5527 143.61 16.5527C144.434 16.5527 145.082 16.3367 145.554 15.9047C145.794 15.7367 146.022 15.6366 146.238 15.6046C146.454 15.5726 146.659 15.5886 146.851 15.6526C146.987 15.7007 147.107 15.7767 147.211 15.8807C147.323 15.9767 147.415 16.0847 147.487 16.2047C147.567 16.3327 147.623 16.4727 147.655 16.6247C147.695 16.7687 147.703 16.9167 147.679 17.0687C147.663 17.2207 147.615 17.3727 147.535 17.5247C147.463 17.6687 147.351 17.8007 147.199 17.9207C147.023 18.0808 146.823 18.2368 146.599 18.3888C146.374 18.5328 146.114 18.6608 145.818 18.7728C145.53 18.8848 145.202 18.9728 144.834 19.0368C144.474 19.1088 144.066 19.1448 143.61 19.1448C142.818 19.1448 142.074 18.9968 141.378 18.7008C140.682 18.3968 140.074 17.9847 139.554 17.4647C139.034 16.9447 138.622 16.3407 138.318 15.6526C138.014 14.9566 137.862 14.2126 137.862 13.4206C137.862 12.6285 138.014 11.8845 138.318 11.1885C138.622 10.4924 139.034 9.88838 139.554 9.37636C140.074 8.85634 140.682 8.44832 141.378 8.15231C142.074 7.8483 142.818 7.69629 143.61 7.69629C144.394 7.69629 145.13 7.8443 145.818 8.14031C146.515 8.43632 147.123 8.84034 147.643 9.35236C148.171 9.85638 148.587 10.4524 148.891 11.1405C149.195 11.8285 149.355 12.5645 149.371 13.3485C149.371 13.7166 149.251 14.0166 149.011 14.2486C148.779 14.4726 148.471 14.5846 148.087 14.5846H140.766ZM146.695 12.4245C146.607 12.0965 146.467 11.8005 146.274 11.5365C146.082 11.2725 145.854 11.0485 145.59 10.8644C145.326 10.6804 145.03 10.5404 144.702 10.4444C144.382 10.3484 144.038 10.3004 143.67 10.3004C143.302 10.3004 142.954 10.3524 142.626 10.4564C142.306 10.5604 142.014 10.7044 141.75 10.8884C141.494 11.0725 141.274 11.2965 141.09 11.5605C140.906 11.8165 140.77 12.1045 140.682 12.4245H146.695Z" fill="black"/>
<path d="M153.498 17.7167C153.498 17.9007 153.462 18.0728 153.39 18.2328C153.326 18.3848 153.238 18.5168 153.126 18.6288C153.014 18.7408 152.882 18.8328 152.73 18.9048C152.578 18.9688 152.414 19.0008 152.238 19.0008C152.054 19.0008 151.878 18.9688 151.71 18.9048C151.55 18.8328 151.41 18.7408 151.29 18.6288C151.17 18.5168 151.074 18.3848 151.002 18.2328C150.93 18.0728 150.894 17.9007 150.894 17.7167V13.8406C150.894 13.0165 151.05 12.2405 151.362 11.5125C151.682 10.7844 152.114 10.1484 152.658 9.6044C153.202 9.06038 153.838 8.63236 154.566 8.32035C155.295 8.00033 156.067 7.84033 156.883 7.84033H156.907C157.339 7.84033 157.671 7.96433 157.903 8.21234C158.143 8.45235 158.263 8.76037 158.263 9.13638C158.263 9.32039 158.227 9.4924 158.155 9.6524C158.083 9.81241 157.983 9.95242 157.855 10.0724C157.735 10.1844 157.591 10.2764 157.423 10.3484C157.263 10.4124 157.091 10.4444 156.907 10.4444H156.883C156.427 10.4444 155.991 10.5324 155.575 10.7084C155.166 10.8844 154.81 11.1245 154.506 11.4285C154.202 11.7325 153.958 12.0885 153.774 12.4965C153.59 12.9045 153.498 13.3406 153.498 13.8046V17.7167Z" fill="black"/>
<path d="M94.9681 29.0291C94.5301 28.9271 94.1011 28.7981 93.6811 28.6421C93.2611 28.4801 92.883 28.2791 92.547 28.0391C92.217 27.7931 91.95 27.4991 91.746 27.1571C91.542 26.815 91.44 26.41 91.44 25.942C91.44 25.468 91.542 25.045 91.746 24.6729C91.956 24.2949 92.226 23.9739 92.556 23.7099C92.892 23.4459 93.2701 23.2449 93.6901 23.1069C94.1161 22.9629 94.5451 22.8909 94.9771 22.8909C95.3251 22.8909 95.6642 22.9269 95.9942 22.9989C96.3242 23.0709 96.6332 23.1789 96.9212 23.3229C97.2092 23.4609 97.4702 23.6349 97.7043 23.8449C97.9383 24.0489 98.1363 24.2889 98.2983 24.5649C98.3643 24.6789 98.3793 24.796 98.3433 24.916C98.3073 25.03 98.2533 25.12 98.1813 25.186C98.0973 25.264 97.9863 25.312 97.8483 25.33C97.7103 25.342 97.5752 25.297 97.4432 25.195C97.0952 24.7809 96.7262 24.4899 96.3362 24.3219C95.9462 24.1479 95.4992 24.0609 94.9951 24.0609C94.7131 24.0609 94.4311 24.0999 94.1491 24.1779C93.8731 24.2559 93.6211 24.3759 93.3931 24.5379C93.1651 24.6939 92.979 24.889 92.835 25.123C92.691 25.357 92.616 25.627 92.61 25.933C92.61 26.257 92.694 26.527 92.862 26.743C93.0361 26.959 93.2551 27.1421 93.5191 27.2921C93.7891 27.4361 94.0831 27.5561 94.4011 27.6521C94.7251 27.7421 95.0311 27.8231 95.3191 27.8951C95.7632 28.0331 96.1952 28.1891 96.6152 28.3631C97.0352 28.5371 97.4072 28.7501 97.7313 29.0021C98.0613 29.2541 98.3253 29.5542 98.5233 29.9022C98.7213 30.2502 98.8203 30.6672 98.8203 31.1532C98.8203 31.6752 98.7153 32.1493 98.5053 32.5753C98.3013 33.0013 98.0223 33.3673 97.6682 33.6733C97.3142 33.9733 96.9032 34.2074 96.4352 34.3754C95.9732 34.5374 95.4872 34.6184 94.9771 34.6184C94.5511 34.6184 94.1371 34.5614 93.7351 34.4474C93.3391 34.3334 92.973 34.1774 92.637 33.9793C92.307 33.7813 92.016 33.5503 91.764 33.2863C91.518 33.0163 91.329 32.7283 91.197 32.4223C91.101 32.2303 91.083 32.0653 91.143 31.9273C91.209 31.7892 91.305 31.6872 91.431 31.6212C91.581 31.5432 91.719 31.5282 91.845 31.5762C91.971 31.6242 92.1 31.7352 92.232 31.9093C92.352 32.1433 92.508 32.3563 92.7 32.5483C92.892 32.7343 93.1081 32.8933 93.3481 33.0253C93.5941 33.1573 93.8581 33.2593 94.1401 33.3313C94.4281 33.4033 94.7251 33.4393 95.0311 33.4393C95.3432 33.4393 95.6552 33.3913 95.9672 33.2953C96.2852 33.1993 96.5672 33.0583 96.8132 32.8723C97.0592 32.6863 97.2602 32.4553 97.4162 32.1793C97.5722 31.8973 97.6502 31.5702 97.6502 31.1982C97.6502 30.8622 97.5722 30.5802 97.4162 30.3522C97.2602 30.1242 97.0562 29.9292 96.8042 29.7672C96.5522 29.6052 96.2642 29.4671 95.9402 29.3531C95.6222 29.2391 95.2981 29.1311 94.9681 29.0291Z" fill="#787878"/>
<path d="M101.591 33.9163C101.591 34.0843 101.534 34.2253 101.42 34.3393C101.306 34.4473 101.171 34.5013 101.015 34.5013C100.859 34.5013 100.721 34.4473 100.601 34.3393C100.481 34.2253 100.421 34.0843 100.421 33.9163V29.011V29.002C100.421 28.594 100.505 28.21 100.673 27.85C100.841 27.484 101.066 27.166 101.348 26.8959C101.63 26.6259 101.954 26.4129 102.32 26.2569C102.692 26.1009 103.082 26.0229 103.49 26.0229C104 26.0229 104.471 26.1399 104.903 26.3739C105.335 26.6019 105.695 26.9049 105.983 27.283C106.127 27.0969 106.292 26.9259 106.478 26.7699C106.664 26.6139 106.865 26.4819 107.081 26.3739C107.297 26.2599 107.522 26.1729 107.756 26.1129C107.996 26.0529 108.242 26.0229 108.494 26.0229C108.902 26.0229 109.286 26.0979 109.646 26.2479C110.012 26.3979 110.33 26.6049 110.6 26.8689C110.876 27.1269 111.098 27.433 111.266 27.787C111.434 28.135 111.527 28.51 111.545 28.912C111.551 28.93 111.554 28.957 111.554 28.993V33.9163C111.554 34.0843 111.497 34.2253 111.383 34.3393C111.269 34.4473 111.134 34.5013 110.978 34.5013C110.822 34.5013 110.684 34.4473 110.564 34.3393C110.444 34.2253 110.384 34.0843 110.384 33.9163V29.011V28.993V28.948C110.372 28.696 110.312 28.465 110.204 28.255C110.096 28.039 109.952 27.853 109.772 27.697C109.598 27.541 109.397 27.418 109.169 27.328C108.947 27.238 108.716 27.193 108.476 27.193C108.224 27.193 107.984 27.241 107.756 27.337C107.528 27.433 107.327 27.562 107.153 27.724C106.985 27.886 106.847 28.075 106.739 28.291C106.631 28.507 106.574 28.735 106.568 28.975V28.993V33.9163C106.568 34.0843 106.511 34.2253 106.397 34.3393C106.283 34.4473 106.148 34.5013 105.992 34.5013C105.836 34.5013 105.695 34.4473 105.569 34.3393C105.449 34.2253 105.389 34.0843 105.389 33.9163V29.011V29.002C105.389 28.744 105.335 28.507 105.227 28.291C105.125 28.069 104.987 27.877 104.813 27.715C104.639 27.553 104.438 27.427 104.21 27.337C103.982 27.241 103.745 27.193 103.499 27.193C103.247 27.193 103.007 27.241 102.779 27.337C102.551 27.427 102.35 27.553 102.176 27.715C102.008 27.877 101.87 28.066 101.762 28.282C101.654 28.492 101.597 28.717 101.591 28.957V28.993V33.9163Z" fill="#787878"/>
<path d="M112.92 30.3251C112.92 29.7311 113.031 29.173 113.253 28.651C113.481 28.123 113.79 27.667 114.18 27.283C114.57 26.8929 115.026 26.5869 115.548 26.3649C116.07 26.1369 116.625 26.0229 117.213 26.0229C117.801 26.0229 118.353 26.1339 118.869 26.3559C119.385 26.5779 119.835 26.8809 120.219 27.265C120.609 27.643 120.915 28.09 121.137 28.606C121.365 29.122 121.485 29.6741 121.497 30.2621V30.2711V30.3251V33.8892C121.497 34.0632 121.44 34.2103 121.326 34.3303C121.212 34.4443 121.068 34.5013 120.894 34.5013C120.726 34.5013 120.588 34.4443 120.48 34.3303C120.378 34.2103 120.327 34.0632 120.327 33.8892L120.318 33.1782C119.922 33.6102 119.46 33.9582 118.932 34.2223C118.404 34.4863 117.831 34.6183 117.213 34.6183C116.625 34.6183 116.07 34.5073 115.548 34.2853C115.026 34.0572 114.57 33.7482 114.18 33.3582C113.79 32.9682 113.481 32.5122 113.253 31.9902C113.031 31.4681 112.92 30.9131 112.92 30.3251ZM114.09 30.3251C114.09 30.7511 114.171 31.1531 114.333 31.5311C114.495 31.9032 114.717 32.2332 114.999 32.5212C115.281 32.8032 115.611 33.0282 115.989 33.1962C116.373 33.3582 116.781 33.4392 117.213 33.4392C117.651 33.4392 118.059 33.3582 118.437 33.1962C118.821 33.0282 119.151 32.8032 119.427 32.5212C119.709 32.2332 119.928 31.9032 120.084 31.5311C120.246 31.1531 120.327 30.7511 120.327 30.3251C120.327 29.8931 120.246 29.4881 120.084 29.11C119.922 28.726 119.7 28.393 119.418 28.111C119.142 27.823 118.815 27.598 118.437 27.436C118.059 27.274 117.651 27.193 117.213 27.193C116.781 27.193 116.373 27.274 115.989 27.436C115.611 27.598 115.281 27.823 114.999 28.111C114.717 28.393 114.495 28.726 114.333 29.11C114.171 29.4881 114.09 29.8931 114.09 30.3251Z" fill="#787878"/>
<path d="M124.621 33.9162C124.621 34.0842 124.564 34.2253 124.45 34.3393C124.342 34.4473 124.21 34.5013 124.054 34.5013C123.886 34.5013 123.742 34.4473 123.622 34.3393C123.508 34.2253 123.451 34.0842 123.451 33.9162V30.6131C123.451 30.0011 123.568 29.425 123.802 28.885C124.036 28.339 124.354 27.865 124.756 27.463C125.158 27.0549 125.629 26.7339 126.169 26.4999C126.709 26.2599 127.285 26.1399 127.898 26.1399H127.916H127.961C128.153 26.1399 128.303 26.1939 128.411 26.3019C128.519 26.4099 128.573 26.5479 128.573 26.7159C128.573 26.8839 128.513 27.0249 128.393 27.139C128.279 27.253 128.135 27.31 127.961 27.31H127.907H127.898C127.454 27.31 127.03 27.397 126.628 27.571C126.232 27.739 125.884 27.973 125.584 28.273C125.29 28.573 125.056 28.924 124.882 29.326C124.708 29.7281 124.621 30.1571 124.621 30.6131V33.9162Z" fill="#787878"/>
<path d="M131.065 26.14H134.962C135.124 26.14 135.262 26.197 135.376 26.311C135.496 26.425 135.556 26.563 135.556 26.725C135.556 26.881 135.499 27.019 135.385 27.1391C135.277 27.2531 135.136 27.3101 134.962 27.3101H131.065V30.4152C131.065 30.8412 131.146 31.2402 131.308 31.6122C131.47 31.9783 131.692 32.2963 131.974 32.5663C132.262 32.8363 132.595 33.0493 132.973 33.2053C133.357 33.3613 133.768 33.4393 134.206 33.4393C134.602 33.4393 134.962 33.3823 135.286 33.2683C135.616 33.1543 135.931 32.9653 136.231 32.7013C136.267 32.6713 136.303 32.6443 136.339 32.6203C136.375 32.5903 136.417 32.5663 136.465 32.5483C136.555 32.5123 136.651 32.5003 136.753 32.5123C136.861 32.5183 136.957 32.5633 137.041 32.6473C137.107 32.7073 137.152 32.7763 137.176 32.8543C137.206 32.9323 137.218 33.0133 137.212 33.0973C137.206 33.1813 137.182 33.2653 137.14 33.3493C137.104 33.4273 137.056 33.4963 136.996 33.5563C136.63 33.9043 136.21 34.1684 135.736 34.3484C135.262 34.5284 134.752 34.6184 134.206 34.6184C133.612 34.6184 133.051 34.5104 132.523 34.2944C132.001 34.0783 131.545 33.7813 131.155 33.4033C130.765 33.0253 130.456 32.5813 130.228 32.0713C130.006 31.5552 129.895 31.0002 129.895 30.4062V23.8899C129.895 23.7219 129.952 23.5809 130.066 23.4669C130.18 23.3469 130.318 23.2869 130.48 23.2869C130.648 23.2869 130.786 23.3439 130.894 23.4579C131.008 23.5719 131.065 23.7159 131.065 23.8899V26.14Z" fill="#787878"/>
<path d="M138.374 30.3251C138.374 29.7311 138.485 29.173 138.707 28.651C138.935 28.123 139.244 27.667 139.634 27.283C140.024 26.8929 140.48 26.5869 141.002 26.3649C141.524 26.1369 142.079 26.0229 142.667 26.0229C143.261 26.0229 143.816 26.1369 144.332 26.3649C144.854 26.5869 145.307 26.8929 145.691 27.283C146.081 27.667 146.387 28.123 146.609 28.651C146.837 29.173 146.951 29.7311 146.951 30.3251C146.951 30.9131 146.837 31.4681 146.609 31.9902C146.387 32.5122 146.081 32.9682 145.691 33.3582C145.307 33.7482 144.854 34.0572 144.332 34.2853C143.816 34.5073 143.261 34.6183 142.667 34.6183C142.049 34.6183 141.473 34.4983 140.939 34.2583C140.405 34.0122 139.94 33.6792 139.544 33.2592V36.9404C139.544 37.1144 139.49 37.2584 139.382 37.3724C139.28 37.4924 139.142 37.5525 138.968 37.5525C138.806 37.5525 138.665 37.4924 138.545 37.3724C138.431 37.2584 138.374 37.1144 138.374 36.9404V30.3251ZM139.544 30.3251C139.544 30.7511 139.625 31.1531 139.787 31.5311C139.949 31.9032 140.171 32.2332 140.453 32.5212C140.735 32.8032 141.065 33.0282 141.443 33.1962C141.827 33.3582 142.235 33.4392 142.667 33.4392C143.105 33.4392 143.513 33.3582 143.891 33.1962C144.275 33.0282 144.605 32.8032 144.881 32.5212C145.163 32.2332 145.382 31.9032 145.538 31.5311C145.7 31.1531 145.781 30.7511 145.781 30.3251C145.781 29.8931 145.7 29.4881 145.538 29.11C145.376 28.726 145.154 28.393 144.872 28.111C144.596 27.823 144.269 27.598 143.891 27.436C143.513 27.274 143.105 27.193 142.667 27.193C142.235 27.193 141.827 27.274 141.443 27.436C141.065 27.598 140.735 27.823 140.453 28.111C140.171 28.393 139.949 28.726 139.787 29.11C139.625 29.4881 139.544 29.8931 139.544 30.3251Z" fill="#787878"/>
<path d="M151.905 33.9253C151.905 34.0933 151.851 34.2314 151.743 34.3394C151.635 34.4474 151.5 34.5014 151.338 34.5014H151.329H151.284C150.876 34.4954 150.498 34.4204 150.15 34.2764C149.802 34.1323 149.502 33.9313 149.25 33.6733C148.998 33.4093 148.8 33.0943 148.656 32.7283C148.518 32.3623 148.449 31.9573 148.449 31.5132V23.4939C148.449 23.3259 148.503 23.1849 148.611 23.0709C148.725 22.9569 148.86 22.8999 149.016 22.8999C149.178 22.8999 149.319 22.9569 149.439 23.0709C149.559 23.1849 149.619 23.3259 149.619 23.4939V31.5222C149.625 32.0863 149.775 32.5273 150.069 32.8453C150.369 33.1573 150.774 33.3193 151.284 33.3313H151.329C151.497 33.3313 151.635 33.3913 151.743 33.5113C151.851 33.6253 151.905 33.7633 151.905 33.9253Z" fill="#787878"/>
<path d="M152.771 30.3251C152.771 29.7311 152.882 29.173 153.104 28.651C153.332 28.123 153.641 27.667 154.031 27.283C154.421 26.8929 154.877 26.5869 155.399 26.3649C155.921 26.1369 156.476 26.0229 157.064 26.0229C157.652 26.0229 158.204 26.1339 158.72 26.3559C159.236 26.5779 159.686 26.8809 160.07 27.265C160.46 27.643 160.766 28.09 160.988 28.606C161.216 29.122 161.336 29.6741 161.348 30.2621V30.2711V30.3251V33.8892C161.348 34.0632 161.291 34.2103 161.177 34.3303C161.063 34.4443 160.919 34.5013 160.745 34.5013C160.577 34.5013 160.439 34.4443 160.331 34.3303C160.229 34.2103 160.178 34.0632 160.178 33.8892L160.169 33.1782C159.773 33.6102 159.311 33.9582 158.783 34.2223C158.255 34.4863 157.682 34.6183 157.064 34.6183C156.476 34.6183 155.921 34.5073 155.399 34.2853C154.877 34.0572 154.421 33.7482 154.031 33.3582C153.641 32.9682 153.332 32.5122 153.104 31.9902C152.882 31.4681 152.771 30.9131 152.771 30.3251ZM153.941 30.3251C153.941 30.7511 154.022 31.1531 154.184 31.5311C154.346 31.9032 154.568 32.2332 154.85 32.5212C155.132 32.8032 155.462 33.0282 155.84 33.1962C156.224 33.3582 156.632 33.4392 157.064 33.4392C157.502 33.4392 157.91 33.3582 158.288 33.1962C158.672 33.0282 159.002 32.8032 159.278 32.5212C159.56 32.2332 159.779 31.9032 159.935 31.5311C160.097 31.1531 160.178 30.7511 160.178 30.3251C160.178 29.8931 160.097 29.4881 159.935 29.11C159.773 28.726 159.551 28.393 159.269 28.111C158.993 27.823 158.666 27.598 158.288 27.436C157.91 27.274 157.502 27.193 157.064 27.193C156.632 27.193 156.224 27.274 155.84 27.436C155.462 27.598 155.132 27.823 154.85 28.111C154.568 28.393 154.346 28.726 154.184 29.11C154.022 29.4881 153.941 29.8931 153.941 30.3251Z" fill="#787878"/>
<path d="M164.014 30.2801C164.014 30.2801 164.008 30.2921 163.996 30.3161C163.996 30.3221 163.996 30.3251 163.996 30.3251C164.002 30.3251 164.005 30.3281 164.005 30.3341C164.005 30.3401 164.008 30.3431 164.014 30.3431C164.014 30.7391 164.089 31.1231 164.239 31.4951C164.395 31.8672 164.608 32.1972 164.878 32.4852C165.148 32.7672 165.466 32.9952 165.832 33.1692C166.198 33.3432 166.594 33.4332 167.02 33.4392C167.41 33.4452 167.779 33.3852 168.127 33.2592C168.475 33.1272 168.802 32.9262 169.108 32.6562C169.168 32.6082 169.231 32.5602 169.297 32.5122C169.369 32.4642 169.444 32.4312 169.522 32.4132C169.6 32.3952 169.681 32.3982 169.765 32.4222C169.855 32.4402 169.948 32.4912 170.044 32.5752C170.17 32.6892 170.23 32.8333 170.224 33.0072C170.224 33.1753 170.155 33.3282 170.017 33.4662C169.837 33.6462 169.636 33.8082 169.414 33.9522C169.192 34.0962 168.955 34.2193 168.703 34.3213C168.457 34.4173 168.199 34.4893 167.929 34.5373C167.659 34.5913 167.389 34.6183 167.119 34.6183C166.531 34.6183 165.976 34.5073 165.454 34.2853C164.938 34.0632 164.485 33.7602 164.095 33.3762C163.711 32.9922 163.405 32.5422 163.177 32.0262C162.955 31.5101 162.844 30.9581 162.844 30.3701L162.862 30.3161C162.856 30.3161 162.853 30.3101 162.853 30.2981C162.853 30.2921 162.85 30.2891 162.844 30.2891C162.844 29.6951 162.955 29.14 163.177 28.624C163.405 28.108 163.711 27.658 164.095 27.274C164.485 26.8839 164.938 26.5779 165.454 26.3559C165.976 26.1339 166.531 26.0229 167.119 26.0229C167.671 26.0229 168.202 26.1189 168.712 26.3109C169.222 26.5029 169.657 26.7789 170.017 27.139C170.155 27.277 170.224 27.433 170.224 27.607C170.23 27.781 170.167 27.925 170.035 28.039C169.945 28.123 169.855 28.174 169.765 28.192C169.681 28.21 169.6 28.21 169.522 28.192C169.444 28.174 169.369 28.144 169.297 28.102C169.231 28.054 169.168 28.006 169.108 27.958C168.808 27.688 168.481 27.493 168.127 27.373C167.779 27.247 167.41 27.187 167.02 27.193C166.606 27.199 166.216 27.289 165.85 27.463C165.484 27.631 165.163 27.859 164.887 28.147C164.617 28.429 164.404 28.756 164.248 29.128C164.092 29.4941 164.014 29.8781 164.014 30.2801Z" fill="#787878"/>
<path d="M172.701 30.8561C172.749 31.2281 172.86 31.5731 173.034 31.8912C173.208 32.2032 173.427 32.4762 173.691 32.7102C173.961 32.9382 174.267 33.1182 174.609 33.2502C174.951 33.3822 175.314 33.4482 175.698 33.4482C176.136 33.4482 176.553 33.3642 176.949 33.1962C177.351 33.0282 177.678 32.7912 177.93 32.4852C178.134 32.3352 178.329 32.2932 178.515 32.3592C178.623 32.3952 178.713 32.4732 178.785 32.5932C178.863 32.7012 178.899 32.8302 178.893 32.9802C178.893 33.1302 178.824 33.2652 178.686 33.3852C178.362 33.7332 177.951 34.0272 177.453 34.2673C176.961 34.5013 176.376 34.6183 175.698 34.6183C175.104 34.6183 174.546 34.5073 174.024 34.2853C173.508 34.0572 173.055 33.7482 172.665 33.3582C172.275 32.9682 171.966 32.5122 171.738 31.9902C171.516 31.4681 171.405 30.9101 171.405 30.3161C171.405 29.7221 171.516 29.167 171.738 28.651C171.966 28.129 172.275 27.673 172.665 27.283C173.055 26.8929 173.508 26.5869 174.024 26.3649C174.546 26.1369 175.104 26.0229 175.698 26.0229C176.286 26.0229 176.841 26.1339 177.363 26.3559C177.885 26.5779 178.338 26.8839 178.722 27.274C179.112 27.658 179.421 28.111 179.649 28.633C179.877 29.149 179.994 29.7011 180 30.2891C180 30.4511 179.946 30.5861 179.838 30.6941C179.736 30.8021 179.601 30.8561 179.433 30.8561H172.701ZM178.803 29.8661C178.761 29.4821 178.65 29.128 178.47 28.804C178.296 28.48 178.071 28.198 177.795 27.958C177.519 27.718 177.204 27.532 176.85 27.4C176.496 27.262 176.121 27.193 175.725 27.193C175.323 27.193 174.945 27.262 174.591 27.4C174.237 27.538 173.922 27.727 173.646 27.967C173.376 28.201 173.154 28.483 172.98 28.813C172.812 29.137 172.707 29.4881 172.665 29.8661H178.803Z" fill="#787878"/>
</svg>
