<svg width="259" height="43" viewBox="0 0 259 43" fill="none" xmlns="http://www.w3.org/2000/svg">
<path fill-rule="evenodd" clip-rule="evenodd" d="M42.868 1.29907H5.33817L16.3648 14.3053C18.0489 12.8258 20.257 11.9287 22.6747 11.9287C27.9572 11.9287 32.2399 16.2119 32.2399 21.4953C32.2399 23.872 31.3734 26.0461 29.9388 27.7193L42.868 38.901V41.6914V1.29907ZM38.0188 41.6914L27.7639 29.5969C26.29 30.5249 24.545 31.0619 22.6747 31.0619C17.392 31.0619 13.1095 26.7788 13.1095 21.4953C13.1095 19.6353 13.6403 17.8993 14.5585 16.4305L2.48193 6.01593V41.6914H38.0188Z" fill="black"/>
<g clip-path="url(#clip0_319_29)">
<path d="M65.9824 35.0798V8.29346H74.9354L86.8344 28.1919L88.5561 27.0057C87.5103 25.2454 86.8344 23.8933 86.5283 22.9494C86.2477 21.98 86.0947 20.4621 86.0692 18.3958V8.29346H91.8848V35.0798H84.8831L70.9946 11.8139L69.2346 12.9237C70.1783 14.6839 70.8415 16.1891 71.2241 17.4391C71.6067 18.6891 71.798 20.3091 71.798 22.2989V35.0798H65.9824Z" fill="black"/>
<path d="M97.5244 35.0798V8.29346H117.764V13.115H103.34V18.9315H114.244V23.6765H103.34V30.2584H117.764V35.0798H97.5244Z" fill="black"/>
<path d="M121.717 24.6332V8.29346H127.532V23.7148C127.532 26.0107 128.055 27.7582 129.101 28.9573C130.147 30.1308 131.69 30.7174 133.731 30.7174C137.863 30.7174 139.929 28.3833 139.929 23.7148V8.29346H145.744V24.6332C145.744 28.0261 144.635 30.7174 142.416 32.7073C140.197 34.6972 137.301 35.6922 133.731 35.6922C130.083 35.6922 127.162 34.6972 124.969 32.7073C122.801 30.7174 121.717 28.0261 121.717 24.6332Z" fill="black"/>
<path d="M157.469 35.0798V13.115H148.287V8.29346H172.467V13.115H163.285V35.0798H157.469Z" fill="black"/>
<path d="M175.284 35.0798V8.29346H188.522C191.353 8.29346 193.585 8.93122 195.217 10.2068C196.85 11.4823 197.666 13.1915 197.666 15.3344C197.666 17.0947 197.232 18.4213 196.365 19.3141C195.6 20.156 194.682 20.73 193.611 21.0361C192.565 21.3422 191.162 21.5336 189.402 21.6101V23.6C191.901 23.6765 193.7 24.0464 194.796 24.7097C195.893 25.373 196.633 26.6868 197.016 28.6511L198.125 35.0798H191.927L191.124 29.1486C190.894 27.5924 190.397 26.4955 189.631 25.8577C188.866 25.2199 187.642 24.901 185.958 24.901H181.099V35.0798H175.284ZM181.099 20.1943H187.412C188.713 20.1943 189.733 19.8881 190.473 19.2759C191.238 18.6636 191.621 17.7835 191.621 16.6355C191.621 15.513 191.238 14.6456 190.473 14.0334C189.733 13.4211 188.713 13.115 187.412 13.115H181.099V20.1943Z" fill="black"/>
<path d="M200.231 21.7656C200.231 17.6839 201.532 14.3164 204.134 11.6633C206.761 9.01016 210.23 7.68359 214.541 7.68359C218.852 7.68359 222.308 9.01016 224.909 11.6633C227.537 14.3164 228.85 17.6839 228.85 21.7656C228.901 25.8218 227.613 29.1637 224.986 31.7915C222.359 34.4189 218.877 35.7199 214.541 35.6946C210.205 35.7199 206.723 34.4189 204.096 31.7915C201.468 29.1637 200.181 25.8218 200.231 21.7656ZM222.767 21.7273C222.767 18.9977 222.027 16.7782 220.548 15.069C219.068 13.3598 217.079 12.5051 214.579 12.5051C212.028 12.5051 210.014 13.3598 208.534 15.069C207.055 16.7782 206.315 18.9977 206.315 21.7273C206.315 24.4315 207.055 26.6382 208.534 28.3474C210.014 30.0312 212.028 30.873 214.579 30.873C217.079 30.873 219.068 30.0312 220.548 28.3474C222.027 26.6382 222.767 24.4315 222.767 21.7273Z" fill="black"/>
<path d="M232.929 35.0798V8.29346H241.882L253.781 28.1919L255.503 27.0057C254.457 25.2454 253.781 23.8933 253.475 22.9494C253.195 21.98 253.041 20.4621 253.016 18.3958V8.29346H258.832V35.0798H251.83L237.941 11.8139L236.181 12.9237C237.125 14.6839 237.788 16.1891 238.171 17.4391C238.554 18.6891 238.745 20.3091 238.745 22.2989V35.0798H232.929Z" fill="black"/>
</g>
<defs>
<clipPath id="clip0_319_29">
<rect width="194.775" height="31.6557" fill="white" transform="translate(64.0435 5.67798)"/>
</clipPath>
</defs>
</svg>
