<?xml version="1.0" encoding="utf-8"?>
<!-- Generator: Adobe Illustrator 22.0.1, SVG Export Plug-In . SVG Version: 6.00 Build 0)  -->
<svg version="1.1" id="Layer_2_1_" xmlns="http://www.w3.org/2000/svg" xmlns:xlink="http://www.w3.org/1999/xlink" x="0px" y="0px"
	 viewBox="0 0 324.8 94.3" style="enable-background:new 0 0 324.8 94.3;" xml:space="preserve">
<style type="text/css">
	.st0{fill:#292929;}
</style>
<title>dark</title>
<path class="st0" d="M112,39.5l-3.7,2.2c-0.5-0.9-1.2-1.7-2-2.3c-1.8-1-4-0.8-5.7,0.5c-0.8,0.6-1.3,1.6-1.2,2.7
	c0,1.5,1.1,2.6,3.3,3.5l3,1.2c2.1,0.7,3.9,2,5.4,3.6c1.2,1.5,1.8,3.3,1.7,5.2c0.1,2.6-0.9,5.1-2.7,6.8c-1.8,1.8-4.4,2.8-6.9,2.7
	c-2.4,0.1-4.7-0.7-6.5-2.3c-1.8-1.8-2.9-4.1-3.2-6.5l4.6-1c0.1,1.3,0.4,2.6,1.1,3.7c1.8,2.2,5.1,2.6,7.3,0.8
	c0.1-0.1,0.2-0.2,0.3-0.3c0.9-1,1.5-2.3,1.4-3.6c0-0.5-0.1-1.1-0.2-1.6c-0.2-0.5-0.4-1-0.8-1.3c-0.4-0.4-0.8-0.8-1.3-1.2
	c-0.6-0.4-1.3-0.7-2-1l-2.8-1.2c-4.1-1.7-6.2-4.3-6.2-7.7c0-2.2,0.9-4.3,2.6-5.7c1.8-1.6,4.1-2.4,6.5-2.3
	C107.3,34.5,110,36.2,112,39.5z"/>
<path class="st0" d="M132.8,53v12.2h-4.6V35.1h5.1c1.9-0.1,3.8,0.1,5.7,0.5c1.3,0.4,2.5,1,3.4,2c1.7,1.7,2.7,4,2.6,6.4
	c0.1,2.5-0.9,4.9-2.8,6.6c-2.1,1.7-4.8,2.6-7.5,2.5H132.8z M132.8,48.8h1.7c4.2,0,6.3-1.6,6.3-4.8c0-3.1-2.2-4.7-6.5-4.7h-1.5V48.8z
	"/>
<path class="st0" d="M207.5,52.4l9.3,12.8h-5.6l-8.6-12.3h-0.8v12.3h-4.6V35.1h5.3c4,0,6.9,0.7,8.6,2.2c1.9,1.6,3,4.1,2.9,6.6
	c0,2-0.6,3.9-1.8,5.5C211.1,50.9,209.4,52,207.5,52.4z M201.8,48.9h1.4c4.3,0,6.5-1.6,6.5-4.9c0-3.1-2.1-4.6-6.3-4.6h-1.6
	L201.8,48.9z"/>
<path class="st0" d="M239.3,39.3v25.9h-4.6V39.3h-6.9l-3.2-4.3h24.8l-3.2,4.3H239.3z"/>
<path class="st0" d="M298.3,65.2V33l22,23V35.1h4.5v32l-22-23v21.1H298.3z"/>
<polygon class="st0" points="279.5,65.2 284.5,65.2 270.1,33.2 255.2,65.2 260.1,65.2 270.1,43.4 277.5,60.6 "/>
<polygon class="st0" points="178.2,65.2 183.1,65.2 168.8,33.2 153.8,65.2 158.7,65.2 168.7,43.4 176.1,60.6 "/>
<g id="SvgjsG1176">
	<polygon class="st0" points="10.2,50.5 5.3,55.6 19.8,53.3 	"/>
	<polygon class="st0" points="3.1,37.2 9.8,49.7 9.8,49.7 12,41.5 	"/>
	<polygon class="st0" points="4.1,56.8 3.8,57.2 0,71.9 19.3,54.2 	"/>
	<polygon class="st0" points="13.4,22.3 2.7,36 14.3,41.5 27.3,44 	"/>
	<polygon class="st0" points="3.7,55.8 8.4,51.1 2.1,52.3 	"/>
	<polygon class="st0" points="9,15.1 2.4,34.9 13,21.3 	"/>
	<polygon class="st0" points="13.6,20.6 29.5,0.1 9.1,14.5 9.5,14.3 	"/>
	<polygon class="st0" points="20.9,94.3 20.9,54.2 0.1,73.1 	"/>
	<polygon class="st0" points="2,37.2 2,51.4 8.8,50.1 	"/>
	<polygon class="st0" points="51.4,50.5 42,53.3 56.4,55.6 	"/>
	<polygon class="st0" points="51.8,49.7 58.6,37.2 49.6,41.5 	"/>
	<polygon class="st0" points="58,57.2 57.5,56.8 42.3,54.2 61.6,71.9 	"/>
	<polygon class="st0" points="33,44.3 33,44.3 33,44.3 33,44.3 47.6,21.4 30.9,0 14.1,21.4 28.6,44.3 28.6,44.3 28.6,44.3 
		28.6,44.3 28.6,44.3 24.1,56.9 30.9,60.6 37.6,56.9 	"/>
	<polygon class="st0" points="48.2,22.3 34.3,44 47.5,41.5 58.9,36 	"/>
	<polygon class="st0" points="59.5,52.3 53.3,51.1 58,55.8 	"/>
	<polygon class="st0" points="59.3,34.9 52.8,15.1 48.8,21.3 	"/>
	<polygon class="st0" points="52.2,14.3 52.5,14.5 32.2,0.1 48.1,20.6 	"/>
	<polygon class="st0" points="40.8,94.3 61.5,73.1 40.8,54.2 	"/>
	<polygon class="st0" points="59.7,51.4 59.7,37.2 52.8,50.1 	"/>
</g>
</svg>
